G04*
G04 #@! TF.GenerationSoftware,Altium Limited,Altium Designer,19.0.15 (446)*
G04*
G04 Layer_Physical_Order=2*
G04 Layer_Color=16711680*
%FSTAX24Y24*%
%MOIN*%
G70*
G01*
G75*
%ADD43C,0.0500*%
%ADD44C,0.0200*%
%ADD45O,0.0650X0.0900*%
%ADD46R,0.0650X0.0900*%
%ADD47C,0.1100*%
%ADD48R,0.0650X0.1000*%
%ADD49O,0.0650X0.1000*%
%ADD50C,0.0750*%
%ADD51R,0.0500X0.0500*%
%ADD52R,0.0630X0.0630*%
%ADD53C,0.0630*%
%ADD54R,0.0630X0.0630*%
%ADD55C,0.0180*%
%ADD56C,0.0250*%
%ADD57C,0.0500*%
%ADD58C,0.1378*%
G36*
X033789Y036255D02*
X033782Y036251D01*
X033654Y036146D01*
X033549Y036018D01*
X033471Y035873D01*
X033423Y035714D01*
X033407Y03555D01*
X033423Y035386D01*
X033471Y035227D01*
X033549Y035082D01*
X033654Y034954D01*
X033782Y034849D01*
X033927Y034771D01*
X034086Y034723D01*
X03425Y034707D01*
X034414Y034723D01*
X034573Y034771D01*
X034718Y034849D01*
X034846Y034954D01*
X034948Y035079D01*
X034952Y035079D01*
X034998Y035044D01*
Y019906D01*
X034952Y019871D01*
X034948Y019871D01*
X034846Y019996D01*
X034718Y020101D01*
X034573Y020179D01*
X034414Y020227D01*
X03425Y020243D01*
X034086Y020227D01*
X033927Y020179D01*
X033782Y020101D01*
X033654Y019996D01*
X033549Y019868D01*
X033471Y019723D01*
X033423Y019564D01*
X033407Y0194D01*
X033423Y019236D01*
X033471Y019077D01*
X033549Y018932D01*
X033654Y018804D01*
X033777Y018703D01*
X033775Y018671D01*
X03377Y018653D01*
X01338D01*
X013375Y018671D01*
X013373Y018703D01*
X013496Y018804D01*
X013601Y018932D01*
X013679Y019077D01*
X013727Y019236D01*
X013743Y0194D01*
X013727Y019564D01*
X013679Y019723D01*
X013601Y019868D01*
X013496Y019996D01*
X013368Y020101D01*
X013223Y020179D01*
X013064Y020227D01*
X0129Y020243D01*
X012736Y020227D01*
X012577Y020179D01*
X012432Y020101D01*
X012304Y019996D01*
X012248Y019929D01*
X012198Y019946D01*
Y035073D01*
X012247Y035086D01*
X012249Y035082D01*
X012354Y034954D01*
X012482Y034849D01*
X012627Y034771D01*
X012786Y034723D01*
X01295Y034707D01*
X013114Y034723D01*
X013273Y034771D01*
X013418Y034849D01*
X013546Y034954D01*
X013651Y035082D01*
X013729Y035227D01*
X013777Y035386D01*
X013793Y03555D01*
X013777Y035714D01*
X013729Y035873D01*
X013651Y036018D01*
X013546Y036146D01*
X013418Y036251D01*
X013411Y036255D01*
X013423Y036303D01*
X033777D01*
X033789Y036255D01*
D02*
G37*
%LPC*%
G36*
X024798Y035359D02*
X024634Y035343D01*
X024476Y035295D01*
X02433Y035217D01*
X024202Y035112D01*
X024097Y034985D01*
X02402Y034839D01*
X023972Y034681D01*
X023955Y034516D01*
X023972Y034352D01*
X02402Y034194D01*
X024097Y034048D01*
X024202Y03392D01*
X02433Y033815D01*
X024476Y033737D01*
X024634Y033689D01*
X024798Y033673D01*
X024963Y033689D01*
X025121Y033737D01*
X025267Y033815D01*
X025395Y03392D01*
X025499Y034048D01*
X025577Y034194D01*
X025625Y034352D01*
X025641Y034516D01*
X025625Y034681D01*
X025577Y034839D01*
X025499Y034985D01*
X025395Y035112D01*
X025267Y035217D01*
X025121Y035295D01*
X024963Y035343D01*
X024798Y035359D01*
D02*
G37*
G36*
X02045Y033473D02*
Y03305D01*
X020873D01*
X020863Y033124D01*
X020815Y03324D01*
X020739Y033339D01*
X02064Y033415D01*
X020524Y033463D01*
X02045Y033473D01*
D02*
G37*
G36*
X0162D02*
Y03305D01*
X016623D01*
X016613Y033124D01*
X016565Y03324D01*
X016489Y033339D01*
X01639Y033415D01*
X016274Y033463D01*
X0162Y033473D01*
D02*
G37*
G36*
X02035D02*
X020276Y033463D01*
X02016Y033415D01*
X020061Y033339D01*
X019985Y03324D01*
X019937Y033124D01*
X019927Y03305D01*
X02035D01*
Y033473D01*
D02*
G37*
G36*
X0161D02*
X016026Y033463D01*
X01591Y033415D01*
X015811Y033339D01*
X015735Y03324D01*
X015687Y033124D01*
X015677Y03305D01*
X0161D01*
Y033473D01*
D02*
G37*
G36*
X020873Y03295D02*
X020809D01*
X020815Y032943D01*
X020865Y032891D01*
X020873Y03295D01*
D02*
G37*
G36*
X016623D02*
X0162D01*
Y0327D01*
X016521Y032948D01*
X016522Y032941D01*
X016526Y032931D01*
X016534Y032919D01*
X016544Y032904D01*
X016558Y032887D01*
X016598Y032841D01*
X016613Y032876D01*
X016623Y03295D01*
D02*
G37*
G36*
X020729D02*
X02045D01*
Y032671D01*
X020729Y03295D01*
D02*
G37*
G36*
X02045Y032583D02*
Y032527D01*
X020504Y032535D01*
X02045Y032583D01*
D02*
G37*
G36*
X0162Y032531D02*
Y032527D01*
X016203Y032528D01*
X0162Y032531D01*
D02*
G37*
G36*
X02035Y03295D02*
X019927D01*
X019937Y032876D01*
X019985Y03276D01*
X020061Y032661D01*
X02016Y032585D01*
X020276Y032537D01*
X02035Y032527D01*
Y03295D01*
D02*
G37*
G36*
X0161D02*
X015677D01*
X015687Y032876D01*
X015735Y03276D01*
X015811Y032661D01*
X01591Y032585D01*
X016026Y032537D01*
X0161Y032527D01*
Y03295D01*
D02*
G37*
G36*
X02291Y03349D02*
X022773Y033471D01*
X022645Y033419D01*
X022536Y033334D01*
X022451Y033225D01*
X022399Y033097D01*
X02238Y03296D01*
X022399Y032823D01*
X022451Y032695D01*
X022536Y032586D01*
X022645Y032501D01*
X022773Y032449D01*
X02291Y03243D01*
X023047Y032449D01*
X023175Y032501D01*
X023284Y032586D01*
X023369Y032695D01*
X023421Y032823D01*
X02344Y03296D01*
X023421Y033097D01*
X023369Y033225D01*
X023284Y033334D01*
X023175Y033419D01*
X023047Y033471D01*
X02291Y03349D01*
D02*
G37*
G36*
X01866D02*
X018523Y033471D01*
X018395Y033419D01*
X018286Y033334D01*
X018201Y033225D01*
X018149Y033097D01*
X01813Y03296D01*
X018149Y032823D01*
X018201Y032695D01*
X018286Y032586D01*
X018395Y032501D01*
X018523Y032449D01*
X01866Y03243D01*
X018797Y032449D01*
X018925Y032501D01*
X019034Y032586D01*
X019119Y032695D01*
X019171Y032823D01*
X01919Y03296D01*
X019171Y033097D01*
X019119Y033225D01*
X019034Y033334D01*
X018925Y033419D01*
X018797Y033471D01*
X01866Y03349D01*
D02*
G37*
G36*
X014804Y032381D02*
X014733Y032371D01*
X0147Y032358D01*
X013354D01*
X013354Y032358D01*
X01325Y032344D01*
X013153Y032304D01*
X013069Y03224D01*
X013069Y03224D01*
X012522Y031692D01*
X012458Y031609D01*
X012417Y031512D01*
X012404Y031407D01*
X012404Y031407D01*
Y023669D01*
X012404Y023669D01*
X012417Y023565D01*
X012458Y023468D01*
X012522Y023384D01*
X013041Y022865D01*
X013041Y022865D01*
X013125Y022801D01*
X013222Y02276D01*
X013275Y022753D01*
X013288Y022744D01*
X013401Y022697D01*
X013522Y022681D01*
X013643Y022697D01*
X013757Y022744D01*
X013854Y022818D01*
X013928Y022916D01*
X013975Y023029D01*
X013991Y02315D01*
X013975Y023271D01*
X013928Y023384D01*
X013854Y023482D01*
X013757Y023556D01*
X013643Y023603D01*
X013522Y023619D01*
X013439Y023608D01*
X013358Y023689D01*
X013377Y023735D01*
X013472D01*
Y02415D01*
Y024565D01*
X013211D01*
Y03124D01*
X013521Y031551D01*
X015048D01*
X015153Y031565D01*
X01525Y031605D01*
X015334Y031669D01*
X015398Y031753D01*
X015438Y03185D01*
X015452Y031954D01*
X015438Y032059D01*
X015398Y032156D01*
X015334Y03224D01*
X01525Y032304D01*
X015153Y032344D01*
X015048Y032358D01*
X014908D01*
X014876Y032371D01*
X014804Y032381D01*
D02*
G37*
G36*
X02037Y03161D02*
X020233Y031591D01*
X020105Y031539D01*
X019996Y031454D01*
X019911Y031345D01*
X019859Y031217D01*
X01984Y03108D01*
X019859Y030943D01*
X019911Y030815D01*
X019996Y030706D01*
X020105Y030621D01*
X020233Y030569D01*
X02037Y03055D01*
X020507Y030569D01*
X020635Y030621D01*
X020744Y030706D01*
X020829Y030815D01*
X020881Y030943D01*
X0209Y03108D01*
X020881Y031217D01*
X020829Y031345D01*
X020744Y031454D01*
X020635Y031539D01*
X020507Y031591D01*
X02037Y03161D01*
D02*
G37*
G36*
X01612D02*
X015983Y031591D01*
X015855Y031539D01*
X015746Y031454D01*
X015661Y031345D01*
X015609Y031217D01*
X01559Y03108D01*
X015609Y030943D01*
X015661Y030815D01*
X015746Y030706D01*
X015855Y030621D01*
X015983Y030569D01*
X01612Y03055D01*
X016257Y030569D01*
X016385Y030621D01*
X016494Y030706D01*
X016579Y030815D01*
X016631Y030943D01*
X01665Y03108D01*
X016631Y031217D01*
X016579Y031345D01*
X016494Y031454D01*
X016385Y031539D01*
X016257Y031591D01*
X01612Y03161D01*
D02*
G37*
G36*
X02285Y03158D02*
X022713Y031561D01*
X022585Y031509D01*
X022476Y031424D01*
X022391Y031315D01*
X022339Y031187D01*
X02232Y03105D01*
X022339Y030913D01*
X022391Y030785D01*
X022476Y030676D01*
X022585Y030591D01*
X022713Y030539D01*
X02285Y03052D01*
X022987Y030539D01*
X023115Y030591D01*
X023224Y030676D01*
X023309Y030785D01*
X023361Y030913D01*
X02338Y03105D01*
X023361Y031187D01*
X023309Y031315D01*
X023224Y031424D01*
X023115Y031509D01*
X022987Y031561D01*
X02285Y03158D01*
D02*
G37*
G36*
X0186D02*
X018463Y031561D01*
X018335Y031509D01*
X018226Y031424D01*
X018141Y031315D01*
X018089Y031187D01*
X01807Y03105D01*
X018089Y030913D01*
X018141Y030785D01*
X018226Y030676D01*
X018335Y030591D01*
X018463Y030539D01*
X0186Y03052D01*
X018737Y030539D01*
X018865Y030591D01*
X018974Y030676D01*
X019059Y030785D01*
X019111Y030913D01*
X01913Y03105D01*
X019111Y031187D01*
X019059Y031315D01*
X018974Y031424D01*
X018865Y031509D01*
X018737Y031561D01*
X0186Y03158D01*
D02*
G37*
G36*
X0332Y031553D02*
X033063Y03154D01*
X032931Y0315D01*
X032809Y031435D01*
X032703Y031347D01*
X032615Y031241D01*
X03255Y031119D01*
X03251Y030987D01*
X032497Y03085D01*
X03251Y030713D01*
X03255Y030581D01*
X032615Y030459D01*
X032703Y030353D01*
X032809Y030265D01*
X032931Y0302D01*
X033063Y03016D01*
X0332Y030147D01*
X033337Y03016D01*
X033469Y0302D01*
X033591Y030265D01*
X033697Y030353D01*
X033785Y030459D01*
X03385Y030581D01*
X03389Y030713D01*
X033903Y03085D01*
X03389Y030987D01*
X03385Y031119D01*
X033785Y031241D01*
X033697Y031347D01*
X033591Y031435D01*
X033469Y0315D01*
X033337Y03154D01*
X0332Y031553D01*
D02*
G37*
G36*
X03315Y029498D02*
X033094Y029493D01*
X03315Y029457D01*
Y029498D01*
D02*
G37*
G36*
Y029286D02*
X032663Y02897D01*
X032669Y029007D01*
X03267Y029045D01*
X032665Y029083D01*
X032656Y029122D01*
X032642Y029161D01*
X032636Y029173D01*
X032597Y0291D01*
X032559Y028977D01*
X032552Y0289D01*
X03315D01*
Y029286D01*
D02*
G37*
G36*
X03325Y029498D02*
Y029406D01*
X033276Y029398D01*
X033309Y029389D01*
X03325Y02935D01*
Y0289D01*
X033848D01*
X033841Y028977D01*
X033803Y0291D01*
X033743Y029213D01*
X033662Y029312D01*
X033563Y029393D01*
X03345Y029453D01*
X033327Y029491D01*
X03325Y029498D01*
D02*
G37*
G36*
X033848Y0288D02*
X03325D01*
Y028457D01*
X033585D01*
X033559Y028429D01*
X033536Y028398D01*
X033516Y028363D01*
X033499Y028325D01*
X033484Y028284D01*
X033477Y028261D01*
X033563Y028307D01*
X033662Y028388D01*
X033743Y028487D01*
X033803Y0286D01*
X033841Y028723D01*
X033848Y0288D01*
D02*
G37*
G36*
X03315D02*
X032552D01*
X032559Y028723D01*
X032597Y0286D01*
X032657Y028487D01*
X032738Y028388D01*
X032837Y028307D01*
X032923Y028261D01*
X032916Y028284D01*
X032901Y028325D01*
X032884Y028363D01*
X032864Y028398D01*
X032841Y028429D01*
X032815Y028457D01*
X03315D01*
Y0288D01*
D02*
G37*
G36*
X016359Y025245D02*
X016059D01*
Y024945D01*
X016359D01*
Y024966D01*
X016183Y025143D01*
X016198Y025135D01*
X016221Y025138D01*
X01625Y025149D01*
X016287Y025171D01*
X016331Y025201D01*
X016359Y025223D01*
Y025245D01*
D02*
G37*
G36*
X016759Y024845D02*
X016739D01*
X016715Y024818D01*
X016684Y024774D01*
X016663Y024737D01*
X016651Y024707D01*
X016649Y024684D01*
X016656Y024669D01*
X01648Y024845D01*
X016059D01*
Y024555D01*
X016059Y024545D01*
X016035Y024505D01*
X016009D01*
Y023705D01*
Y022925D01*
Y022135D01*
Y021345D01*
Y020555D01*
Y019775D01*
Y018985D01*
X016809D01*
Y019775D01*
Y020555D01*
Y021345D01*
Y022135D01*
Y022925D01*
Y023705D01*
Y024505D01*
X016783D01*
X016759Y024545D01*
X016759Y024555D01*
Y024845D01*
D02*
G37*
G36*
X013937Y024565D02*
X013572D01*
Y0242D01*
X013836D01*
Y024464D01*
X013841Y024452D01*
X013856Y024441D01*
X013881Y024431D01*
X013916Y024423D01*
X013937Y02442D01*
Y024565D01*
D02*
G37*
G36*
X013836Y0241D02*
X013572D01*
Y023735D01*
X013937D01*
Y023879D01*
X013916Y023877D01*
X013881Y023869D01*
X013856Y023859D01*
X013841Y023848D01*
X013836Y023836D01*
Y0241D01*
D02*
G37*
G36*
X031046Y02221D02*
X030922Y022194D01*
X030806Y022146D01*
X030707Y02207D01*
X030631Y021971D01*
X030583Y021855D01*
X030571Y021764D01*
X03052D01*
X030508Y021855D01*
X030461Y021971D01*
X030384Y02207D01*
X030285Y022146D01*
X03017Y022194D01*
X030046Y02221D01*
X029922Y022194D01*
X029806Y022146D01*
X029707Y02207D01*
X029631Y021971D01*
X029583Y021855D01*
X029571Y021764D01*
X02952D01*
X029508Y021855D01*
X029461Y021971D01*
X029384Y02207D01*
X029285Y022146D01*
X02917Y022194D01*
X029046Y02221D01*
X028922Y022194D01*
X028806Y022146D01*
X028707Y02207D01*
X028631Y021971D01*
X028583Y021855D01*
X028571Y021764D01*
X02852D01*
X028508Y021855D01*
X028461Y021971D01*
X028384Y02207D01*
X028285Y022146D01*
X02817Y022194D01*
X028046Y02221D01*
X027922Y022194D01*
X027806Y022146D01*
X027707Y02207D01*
X027631Y021971D01*
X027583Y021855D01*
X027567Y021731D01*
Y021481D01*
X027583Y021357D01*
X027631Y021241D01*
X027707Y021142D01*
X027806Y021066D01*
X027922Y021018D01*
X028046Y021002D01*
X02817Y021018D01*
X028285Y021066D01*
X028384Y021142D01*
X028461Y021241D01*
X028508Y021357D01*
X02852Y021448D01*
X028571D01*
X028583Y021357D01*
X028631Y021241D01*
X028707Y021142D01*
X028806Y021066D01*
X028922Y021018D01*
X029046Y021002D01*
X02917Y021018D01*
X029285Y021066D01*
X029384Y021142D01*
X029461Y021241D01*
X029508Y021357D01*
X02952Y021448D01*
X029571D01*
X029583Y021357D01*
X029631Y021241D01*
X029707Y021142D01*
X029806Y021066D01*
X029922Y021018D01*
X030046Y021002D01*
X03017Y021018D01*
X030285Y021066D01*
X030384Y021142D01*
X030461Y021241D01*
X030508Y021357D01*
X03052Y021448D01*
X030571D01*
X030583Y021357D01*
X030631Y021241D01*
X030707Y021142D01*
X030806Y021066D01*
X030922Y021018D01*
X031046Y021002D01*
X03117Y021018D01*
X031285Y021066D01*
X031384Y021142D01*
X031461Y021241D01*
X031508Y021357D01*
X031525Y021481D01*
Y021731D01*
X031508Y021855D01*
X031461Y021971D01*
X031384Y02207D01*
X031285Y022146D01*
X03117Y022194D01*
X031046Y02221D01*
D02*
G37*
G36*
X013522Y022619D02*
X013401Y022603D01*
X013288Y022556D01*
X01319Y022482D01*
X013116Y022384D01*
X013069Y022271D01*
X013053Y02215D01*
X013069Y022029D01*
X013116Y021916D01*
X01319Y021818D01*
X013288Y021744D01*
X013401Y021697D01*
X013522Y021681D01*
X013643Y021697D01*
X013757Y021744D01*
X013854Y021818D01*
X013928Y021916D01*
X013975Y022029D01*
X013991Y02215D01*
X013975Y022271D01*
X013928Y022384D01*
X013854Y022482D01*
X013757Y022556D01*
X013643Y022603D01*
X013522Y022619D01*
D02*
G37*
G36*
X032471Y02177D02*
X032415Y021691D01*
X032395Y021656D01*
X032471D01*
Y02177D01*
D02*
G37*
G36*
X031996Y022156D02*
X031621D01*
Y021656D01*
X031996D01*
Y021755D01*
X031722Y022055D01*
X031781Y022058D01*
X031842Y022069D01*
X031904Y022087D01*
X031967Y022111D01*
X031996Y022126D01*
Y022156D01*
D02*
G37*
G36*
X032471Y021556D02*
X032347D01*
X032344Y021549D01*
X03233Y021489D01*
X032329Y021435D01*
X032342Y021388D01*
X032368Y021348D01*
X032178Y021556D01*
X032096D01*
Y021056D01*
X032471D01*
Y021556D01*
D02*
G37*
G36*
X031996D02*
X031621D01*
Y021056D01*
X031996D01*
Y021556D01*
D02*
G37*
G36*
X013522Y021619D02*
X013401Y021603D01*
X013288Y021556D01*
X01319Y021482D01*
X013116Y021384D01*
X013069Y021271D01*
X013053Y02115D01*
X013069Y021029D01*
X013116Y020916D01*
X01319Y020818D01*
X013288Y020744D01*
X013401Y020697D01*
X013522Y020681D01*
X013643Y020697D01*
X013757Y020744D01*
X013854Y020818D01*
X013928Y020916D01*
X013975Y021029D01*
X013991Y02115D01*
X013975Y021271D01*
X013928Y021384D01*
X013854Y021482D01*
X013757Y021556D01*
X013643Y021603D01*
X013522Y021619D01*
D02*
G37*
G36*
X024465Y020165D02*
X023535D01*
Y019235D01*
X024465D01*
Y020165D01*
D02*
G37*
G36*
X025Y020169D02*
X024879Y020153D01*
X024766Y020106D01*
X024668Y020032D01*
X024594Y019934D01*
X024547Y019821D01*
X024531Y0197D01*
X024547Y019579D01*
X024594Y019466D01*
X024668Y019368D01*
X024766Y019294D01*
X024879Y019247D01*
X025Y019231D01*
X025121Y019247D01*
X025234Y019294D01*
X025332Y019368D01*
X025406Y019466D01*
X025453Y019579D01*
X025469Y0197D01*
X025453Y019821D01*
X025406Y019934D01*
X025332Y020032D01*
X025234Y020106D01*
X025121Y020153D01*
X025Y020169D01*
D02*
G37*
G36*
X0173Y035804D02*
X017176Y035788D01*
X01706Y03574D01*
X016961Y035664D01*
X016885Y035565D01*
X016837Y035449D01*
X016821Y035325D01*
Y034975D01*
X016837Y034851D01*
X016885Y034735D01*
X016961Y034636D01*
X01706Y03456D01*
X017176Y034512D01*
X0173Y034496D01*
X01742Y034512D01*
X017435Y03451D01*
X01747Y034486D01*
Y024925D01*
X01749Y024827D01*
X017545Y024745D01*
X020715Y021575D01*
X020797Y021519D01*
X020895Y0215D01*
X021464D01*
X021471Y0215D01*
Y021355D01*
Y020555D01*
Y019835D01*
X021471Y019805D01*
X021471Y019755D01*
Y018985D01*
X022271D01*
Y019755D01*
X022271Y019785D01*
X022271Y019835D01*
Y020555D01*
Y021355D01*
Y022125D01*
Y022925D01*
Y023705D01*
Y024505D01*
Y025305D01*
X021471D01*
Y024505D01*
Y023705D01*
Y022925D01*
Y022125D01*
Y02201D01*
X021464Y02201D01*
X021001D01*
X01798Y025031D01*
Y0345D01*
X018775D01*
Y0358D01*
X017825D01*
Y035359D01*
X017775Y035356D01*
X017763Y035449D01*
X017715Y035565D01*
X017639Y035664D01*
X01754Y03574D01*
X017424Y035788D01*
X0173Y035804D01*
D02*
G37*
%LPD*%
G36*
X01762Y035058D02*
X017621Y035039D01*
X017625Y035019D01*
X017633Y034997D01*
X017645Y034973D01*
X017661Y034947D01*
X017681Y03492D01*
X017706Y03489D01*
X017766Y034825D01*
X017654Y034654D01*
X017628Y034679D01*
X017582Y034717D01*
X017562Y034729D01*
X017545Y034737D01*
X017529Y034741D01*
X017516Y03474D01*
X017504Y034735D01*
X017495Y034726D01*
X017488Y034712D01*
X017624Y035074D01*
X01762Y035058D01*
D02*
G37*
G36*
X021623Y021555D02*
X021621Y021574D01*
X021615Y021591D01*
X021605Y021606D01*
X021591Y021619D01*
X021573Y02163D01*
X02155Y021639D01*
X021524Y021646D01*
X021494Y021651D01*
X02146Y021654D01*
X021422Y021655D01*
Y021855D01*
X02146Y021856D01*
X021494Y021859D01*
X021524Y021864D01*
X02155Y021871D01*
X021573Y02188D01*
X021591Y021891D01*
X021605Y021904D01*
X021615Y021919D01*
X021621Y021936D01*
X021623Y021955D01*
Y021555D01*
D02*
G37*
D43*
X013354Y031954D02*
X015048D01*
X013326Y02315D02*
X013522D01*
X012807Y031407D02*
X013354Y031954D01*
X032046Y021731D02*
X0332Y022885D01*
X032046Y021606D02*
Y021731D01*
X028988Y027338D02*
Y029712D01*
X0279Y02625D02*
X028988Y027338D01*
X0332Y022885D02*
Y02885D01*
X028988Y029712D02*
X0325D01*
X0267Y032D02*
X028988Y029712D01*
X0325D02*
X0332Y029012D01*
Y02885D02*
Y029012D01*
X0214Y032D02*
X0267D01*
X0204Y033D02*
X0214Y032D01*
X016409Y024895D02*
X016895Y025381D01*
Y032187D01*
X01615Y032932D02*
X016895Y032187D01*
X01615Y032932D02*
Y033D01*
X015338Y024895D02*
X016409D01*
X014593Y02415D02*
X015338Y024895D01*
X013522Y02415D02*
X014593D01*
X012807Y023669D02*
Y031407D01*
Y023669D02*
X013326Y02315D01*
D44*
X017725Y024925D02*
Y034725D01*
Y024925D02*
X020895Y021755D01*
X0173Y03515D02*
X017725Y034725D01*
X020895Y021755D02*
X021871D01*
D45*
X029046Y021606D02*
D03*
X030046D02*
D03*
X031046D02*
D03*
X028046D02*
D03*
D46*
X032046D02*
D03*
D47*
X0332Y02885D02*
D03*
Y03085D02*
D03*
D48*
X0183Y03515D02*
D03*
D49*
X0173D02*
D03*
D50*
X02291Y03296D02*
D03*
X02037Y03108D02*
D03*
X0204Y033D02*
D03*
X02285Y03105D02*
D03*
X01866Y03296D02*
D03*
X01612Y03108D02*
D03*
X01615Y033D02*
D03*
X0186Y03105D02*
D03*
D51*
X021871Y020205D02*
D03*
Y020955D02*
D03*
Y021755D02*
D03*
Y022525D02*
D03*
Y023325D02*
D03*
Y024105D02*
D03*
Y024905D02*
D03*
Y019385D02*
D03*
X016409D02*
D03*
Y020175D02*
D03*
Y020955D02*
D03*
Y021745D02*
D03*
Y023325D02*
D03*
Y024105D02*
D03*
Y024895D02*
D03*
Y022535D02*
D03*
D52*
X013522Y02415D02*
D03*
D53*
Y02315D02*
D03*
Y02215D02*
D03*
Y02115D02*
D03*
X025Y0197D02*
D03*
D54*
X024D02*
D03*
D55*
X01625Y0355D02*
D03*
X016Y035D02*
D03*
X01625Y0345D02*
D03*
X016Y034D02*
D03*
X01575Y0355D02*
D03*
X0155Y035D02*
D03*
X01575Y0345D02*
D03*
X0155Y034D02*
D03*
X01525Y0355D02*
D03*
X015Y035D02*
D03*
X01525Y0345D02*
D03*
X015Y034D02*
D03*
X01475Y0355D02*
D03*
X0145Y035D02*
D03*
X01475Y0345D02*
D03*
X0145Y034D02*
D03*
X0295Y0205D02*
D03*
X02975Y02D02*
D03*
X0295Y0195D02*
D03*
X029Y0205D02*
D03*
X02925Y02D02*
D03*
X029Y0195D02*
D03*
X0285Y0205D02*
D03*
X02875Y02D02*
D03*
X0285Y0195D02*
D03*
X028Y0205D02*
D03*
X02825Y02D02*
D03*
X028Y0195D02*
D03*
X0275Y0205D02*
D03*
X02775Y02D02*
D03*
X0275Y0195D02*
D03*
X027Y0205D02*
D03*
X02725Y02D02*
D03*
X027Y0195D02*
D03*
X0265Y0205D02*
D03*
X02675Y02D02*
D03*
X0265Y0195D02*
D03*
X026Y0205D02*
D03*
X02625Y02D02*
D03*
X026Y0195D02*
D03*
X02675Y03D02*
D03*
X0265Y0295D02*
D03*
X02675Y029D02*
D03*
X0265Y0285D02*
D03*
X02625Y03D02*
D03*
X026Y0295D02*
D03*
X02625Y029D02*
D03*
X02575Y03D02*
D03*
X0255Y0295D02*
D03*
X02575Y029D02*
D03*
X0255Y0285D02*
D03*
X02975Y0355D02*
D03*
X0295Y035D02*
D03*
X02975Y0345D02*
D03*
X0295Y034D02*
D03*
X02975Y0335D02*
D03*
X0295Y033D02*
D03*
X02925Y0355D02*
D03*
X029Y035D02*
D03*
X02925Y0345D02*
D03*
X029Y034D02*
D03*
X02925Y0335D02*
D03*
X029Y033D02*
D03*
X02875Y0355D02*
D03*
X0285Y035D02*
D03*
X02875Y0345D02*
D03*
Y0335D02*
D03*
X02825Y0355D02*
D03*
X028Y035D02*
D03*
X02775Y0355D02*
D03*
X0275Y035D02*
D03*
X02725Y0355D02*
D03*
X027Y035D02*
D03*
X02725Y0345D02*
D03*
X027Y034D02*
D03*
X02725Y0335D02*
D03*
X027Y033D02*
D03*
X02675Y0355D02*
D03*
X0265Y035D02*
D03*
X02675Y0345D02*
D03*
X0265Y034D02*
D03*
X02675Y0335D02*
D03*
X0265Y033D02*
D03*
D56*
X014648Y0319D02*
D03*
X014898Y031853D02*
D03*
X014804Y032103D02*
D03*
D57*
X0279Y02625D02*
D03*
D58*
X024798Y034516D02*
D03*
X03425Y03555D02*
D03*
Y0194D02*
D03*
X0129D02*
D03*
X01295Y03555D02*
D03*
M02*
