G04*
G04 #@! TF.GenerationSoftware,Altium Limited,Altium Designer,19.0.15 (446)*
G04*
G04 Layer_Color=65535*
%FSTAX24Y24*%
%MOIN*%
G70*
G01*
G75*
%ADD10C,0.0100*%
%ADD11C,0.0079*%
%ADD12C,0.0070*%
%ADD13C,0.0070*%
%ADD14C,0.0060*%
%ADD15C,0.0118*%
%ADD16C,0.0160*%
%ADD17C,0.0050*%
%ADD18C,0.0040*%
G36*
X0211Y01938D02*
X0206Y01963D01*
Y01913D01*
X0211Y01938D01*
D02*
G37*
G36*
X032046Y022366D02*
X032296Y022616D01*
X031796D01*
X032046Y022366D01*
D02*
G37*
G36*
X03235Y02985D02*
X0326Y0296D01*
Y02975D01*
X03285D01*
Y02995D01*
X0326D01*
Y0301D01*
X03235Y02985D01*
D02*
G37*
D10*
X02765Y0347D02*
G03*
X0274Y03445I0J-00025D01*
G01*
Y03295D02*
G03*
X02765Y0327I00025J0D01*
G01*
X03145Y03445D02*
G03*
X0312Y0347I-00025J0D01*
G01*
Y0327D02*
G03*
X03145Y03295I0J00025D01*
G01*
X0275Y0273D02*
G03*
X02725Y02705I0J-00025D01*
G01*
Y02555D02*
G03*
X0275Y0253I00025J0D01*
G01*
X0313Y02705D02*
G03*
X03105Y0273I-00025J0D01*
G01*
Y0253D02*
G03*
X0313Y02555I0J00025D01*
G01*
X02555Y02715D02*
G03*
X02575Y02695I0002J0D01*
G01*
Y02865D02*
G03*
X02555Y02845I0J-0002D01*
G01*
X02625D02*
G03*
X02605Y02865I-0002J0D01*
G01*
Y02695D02*
G03*
X02625Y02715I0J0002D01*
G01*
X03025Y0327D02*
Y0347D01*
X02765D02*
X0312D01*
X0274Y03295D02*
Y03445D01*
X02765Y0327D02*
X0312D01*
X03145Y03295D02*
Y03445D01*
X0301Y0253D02*
Y0273D01*
X0275D02*
X03105D01*
X02725Y02555D02*
Y02705D01*
X0275Y0253D02*
X03105D01*
X0313Y02555D02*
Y02705D01*
X02575Y02695D02*
X0259D01*
X02555Y02715D02*
Y02845D01*
X02575Y02865D02*
X02605D01*
X02625Y02715D02*
Y02845D01*
X0259Y02695D02*
X02605D01*
X027748Y022603D02*
X027882D01*
X027815D01*
Y023003D01*
X027748Y022936D01*
X028282Y022603D02*
Y023003D01*
X028082Y022803D01*
X028348D01*
X028748Y022603D02*
X028882D01*
X028815D01*
Y023003D01*
X028748Y022936D01*
X029348Y022603D02*
X029082D01*
X029348Y02287D01*
Y022936D01*
X029282Y023003D01*
X029148D01*
X029082Y022936D01*
X030065Y023403D02*
X029798D01*
Y023203D01*
X029932Y02327D01*
X029998D01*
X030065Y023203D01*
Y02307D01*
X029998Y023003D01*
X029865D01*
X029798Y02307D01*
X030198Y023403D02*
Y023137D01*
X030332Y023003D01*
X030465Y023137D01*
Y023403D01*
X030798Y020503D02*
X030665D01*
X030598Y020436D01*
Y02017D01*
X030665Y020103D01*
X030798D01*
X030865Y02017D01*
Y020436D01*
X030798Y020503D01*
X030998Y020103D02*
Y020503D01*
X031198D01*
X031265Y020436D01*
Y020303D01*
X031198Y020237D01*
X030998D01*
X031665Y020103D02*
X031398D01*
X031665Y02037D01*
Y020436D01*
X031598Y020503D01*
X031465D01*
X031398Y020436D01*
X028848Y020503D02*
X028715D01*
X028648Y020436D01*
Y02017D01*
X028715Y020103D01*
X028848D01*
X028915Y02017D01*
Y020436D01*
X028848Y020503D01*
X029048Y020103D02*
Y020503D01*
X029248D01*
X029315Y020436D01*
Y020303D01*
X029248Y020237D01*
X029048D01*
X029448Y020103D02*
X029581D01*
X029515D01*
Y020503D01*
X029448Y020436D01*
X030748Y022553D02*
X030882D01*
X030815D01*
Y022953D01*
X030748Y022886D01*
X031082D02*
X031148Y022953D01*
X031282D01*
X031348Y022886D01*
Y02282D01*
X031282Y022753D01*
X031215D01*
X031282D01*
X031348Y022687D01*
Y02262D01*
X031282Y022553D01*
X031148D01*
X031082Y02262D01*
X032017Y023336D02*
X03195Y023403D01*
X031817D01*
X03175Y023336D01*
Y02307D01*
X031817Y023003D01*
X03195D01*
X032017Y02307D01*
Y023203D01*
X031883D01*
X03215Y023003D02*
Y023403D01*
X032416Y023003D01*
Y023403D01*
X03255D02*
Y023003D01*
X03275D01*
X032816Y02307D01*
Y023336D01*
X03275Y023403D01*
X03255D01*
X024798Y021003D02*
X024915D01*
X024857D01*
Y020653D01*
X024798D01*
X024915D01*
X025265Y021003D02*
X025148D01*
X02509Y020945D01*
Y020712D01*
X025148Y020653D01*
X025265D01*
X025323Y020712D01*
Y020945D01*
X025265Y021003D01*
X02544Y020653D02*
X025557D01*
X025498D01*
Y021003D01*
X02544Y020945D01*
X025965Y021003D02*
X025848Y020945D01*
X025731Y020828D01*
Y020712D01*
X02579Y020653D01*
X025906D01*
X025965Y020712D01*
Y02077D01*
X025906Y020828D01*
X025731D01*
X023248Y020653D02*
Y020886D01*
X023365Y021003D01*
X023482Y020886D01*
Y020653D01*
Y020828D01*
X023248D01*
X023598Y021003D02*
Y020653D01*
X023773D01*
X023832Y020712D01*
Y020945D01*
X023773Y021003D01*
X023598D01*
X024181Y020945D02*
X024123Y021003D01*
X024007D01*
X023948Y020945D01*
Y020712D01*
X024007Y020653D01*
X024123D01*
X024181Y020712D01*
X030348Y035603D02*
X030448D01*
X030398D01*
Y035303D01*
X030348D01*
X030448D01*
X030648D02*
X030748D01*
X030798Y035353D01*
Y035453D01*
X030748Y035503D01*
X030648D01*
X030598Y035453D01*
Y035353D01*
X030648Y035303D01*
X030898Y035603D02*
X031098D01*
X030998D01*
Y035303D01*
X031398Y035603D02*
X031198D01*
Y035303D01*
X031398D01*
X031198Y035453D02*
X031298D01*
X031498Y035303D02*
Y035503D01*
X031598Y035603D01*
X031698Y035503D01*
Y035303D01*
Y035453D01*
X031498D01*
X031798Y035303D02*
Y035603D01*
X031898Y035503D01*
X031998Y035603D01*
Y035303D01*
X032398Y035603D02*
Y035303D01*
X032598D01*
X032748Y035503D02*
X032848D01*
X032898Y035453D01*
Y035303D01*
X032748D01*
X032698Y035353D01*
X032748Y035403D01*
X032898D01*
X032998Y035603D02*
Y035303D01*
X033148D01*
X033198Y035353D01*
Y035403D01*
Y035453D01*
X033148Y035503D01*
X032998D01*
X018482Y022803D02*
X018248D01*
Y022453D01*
X018482D01*
X018248Y022628D02*
X018365D01*
X018832Y022745D02*
X018773Y022803D01*
X018657D01*
X018598Y022745D01*
Y022686D01*
X018657Y022628D01*
X018773D01*
X018832Y02257D01*
Y022512D01*
X018773Y022453D01*
X018657D01*
X018598Y022512D01*
X018948Y022453D02*
Y022803D01*
X019123D01*
X019181Y022745D01*
Y022628D01*
X019123Y02257D01*
X018948D01*
X019298Y022628D02*
X019531D01*
X019648Y022745D02*
X019706Y022803D01*
X019823D01*
X019881Y022745D01*
Y022512D01*
X019823Y022453D01*
X019706D01*
X019648Y022512D01*
Y022745D01*
X019998Y022803D02*
X020231D01*
Y022745D01*
X019998Y022512D01*
Y022453D01*
X027348Y03122D02*
Y030928D01*
X027407Y03087D01*
X027523D01*
X027582Y030928D01*
Y03122D01*
X0134Y03225D02*
Y031958D01*
X013458Y0319D01*
X013575D01*
X013633Y031958D01*
Y03225D01*
X013983Y0319D02*
X01375D01*
X013983Y032133D01*
Y032192D01*
X013925Y03225D01*
X013808D01*
X01375Y032192D01*
X033348Y02745D02*
Y0271D01*
Y027275D01*
X033582D01*
Y02745D01*
Y0271D01*
X033698Y02745D02*
Y0271D01*
X033873D01*
X033932Y027158D01*
Y027392D01*
X033873Y02745D01*
X033698D01*
X034048Y0271D02*
X034165D01*
X034107D01*
Y02745D01*
X034048Y027392D01*
X015048Y025803D02*
Y025512D01*
X015107Y025453D01*
X015223D01*
X015282Y025512D01*
Y025803D01*
X015398Y025453D02*
X015515D01*
X015457D01*
Y025803D01*
X015398Y025745D01*
X021463Y030545D02*
X021405Y030603D01*
X021288D01*
X02123Y030545D01*
Y030486D01*
X021288Y030428D01*
X021405D01*
X021463Y03037D01*
Y030312D01*
X021405Y030253D01*
X021288D01*
X02123Y030312D01*
X02158Y030603D02*
Y030253D01*
X021697Y03037D01*
X021813Y030253D01*
Y030603D01*
X022163Y030253D02*
X02193D01*
X022163Y030486D01*
Y030545D01*
X022105Y030603D01*
X021988D01*
X02193Y030545D01*
X017282Y030495D02*
X017223Y030553D01*
X017107D01*
X017048Y030495D01*
Y030436D01*
X017107Y030378D01*
X017223D01*
X017282Y03032D01*
Y030262D01*
X017223Y030203D01*
X017107D01*
X017048Y030262D01*
X017398Y030553D02*
Y030203D01*
X017515Y03032D01*
X017632Y030203D01*
Y030553D01*
X017748Y030203D02*
X017865D01*
X017807D01*
Y030553D01*
X017748Y030495D01*
X01512Y02882D02*
Y02917D01*
X015295D01*
X015353Y029112D01*
Y028995D01*
X015295Y028937D01*
X01512D01*
X015237D02*
X015353Y02882D01*
X01547Y028878D02*
X015528Y02882D01*
X015645D01*
X015703Y028878D01*
Y029112D01*
X015645Y02917D01*
X015528D01*
X01547Y029112D01*
Y029053D01*
X015528Y028995D01*
X015703D01*
X01335Y02883D02*
Y02918D01*
X013525D01*
X013583Y029122D01*
Y029005D01*
X013525Y028947D01*
X01335D01*
X013467D02*
X013583Y02883D01*
X0137Y029122D02*
X013758Y02918D01*
X013875D01*
X013933Y029122D01*
Y029063D01*
X013875Y029005D01*
X013933Y028947D01*
Y028888D01*
X013875Y02883D01*
X013758D01*
X0137Y028888D01*
Y028947D01*
X013758Y029005D01*
X0137Y029063D01*
Y029122D01*
X013758Y029005D02*
X013875D01*
X01855Y02883D02*
Y02918D01*
X018725D01*
X018783Y029122D01*
Y029005D01*
X018725Y028947D01*
X01855D01*
X018667D02*
X018783Y02883D01*
X0189Y02918D02*
X019133D01*
Y029122D01*
X0189Y028888D01*
Y02883D01*
X02205D02*
Y02918D01*
X022225D01*
X022283Y029122D01*
Y029005D01*
X022225Y028947D01*
X02205D01*
X022167D02*
X022283Y02883D01*
X022633Y02918D02*
X022517Y029122D01*
X0224Y029005D01*
Y028888D01*
X022458Y02883D01*
X022575D01*
X022633Y028888D01*
Y028947D01*
X022575Y029005D01*
X0224D01*
X02385Y02882D02*
Y02917D01*
X024025D01*
X024083Y029112D01*
Y028995D01*
X024025Y028937D01*
X02385D01*
X023967D02*
X024083Y02882D01*
X024433Y02917D02*
X0242D01*
Y028995D01*
X024317Y029053D01*
X024375D01*
X024433Y028995D01*
Y028878D01*
X024375Y02882D01*
X024258D01*
X0242Y028878D01*
X019298Y020453D02*
Y020803D01*
X019473D01*
X019532Y020745D01*
Y020628D01*
X019473Y02057D01*
X019298D01*
X019415D02*
X019532Y020453D01*
X019823D02*
Y020803D01*
X019648Y020628D01*
X019882D01*
X02026Y02883D02*
Y02918D01*
X020435D01*
X020493Y029122D01*
Y029005D01*
X020435Y028947D01*
X02026D01*
X020377D02*
X020493Y02883D01*
X02061Y029122D02*
X020668Y02918D01*
X020785D01*
X020843Y029122D01*
Y029063D01*
X020785Y029005D01*
X020727D01*
X020785D01*
X020843Y028947D01*
Y028888D01*
X020785Y02883D01*
X020668D01*
X02061Y028888D01*
X0169Y02882D02*
Y02917D01*
X017075D01*
X017133Y029112D01*
Y028995D01*
X017075Y028937D01*
X0169D01*
X017017D02*
X017133Y02882D01*
X017483D02*
X01725D01*
X017483Y029053D01*
Y029112D01*
X017425Y02917D01*
X017308D01*
X01725Y029112D01*
X021348Y035003D02*
Y035353D01*
X021523D01*
X021582Y035295D01*
Y035178D01*
X021523Y03512D01*
X021348D01*
X021465D02*
X021582Y035003D01*
X021698D02*
X021815D01*
X021757D01*
Y035353D01*
X021698Y035295D01*
X017298Y034003D02*
Y033653D01*
X017532D01*
X017882Y034003D02*
X017648D01*
Y033653D01*
X017882D01*
X017648Y033828D02*
X017765D01*
X017998Y034003D02*
Y033653D01*
X018173D01*
X018231Y033712D01*
Y033945D01*
X018173Y034003D01*
X017998D01*
X018348Y033653D02*
X018465D01*
X018406D01*
Y034003D01*
X018348Y033945D01*
X025832Y026345D02*
X025773Y026403D01*
X025657D01*
X025598Y026345D01*
Y026112D01*
X025657Y026053D01*
X025773D01*
X025832Y026112D01*
X025948Y026345D02*
X026007Y026403D01*
X026123D01*
X026182Y026345D01*
Y026286D01*
X026123Y026228D01*
X026065D01*
X026123D01*
X026182Y02617D01*
Y026112D01*
X026123Y026053D01*
X026007D01*
X025948Y026112D01*
X030632Y024845D02*
X030573Y024903D01*
X030457D01*
X030398Y024845D01*
Y024612D01*
X030457Y024553D01*
X030573D01*
X030632Y024612D01*
X030748Y024903D02*
X030982D01*
X030865D01*
Y024553D01*
X031331D02*
X031098D01*
X031331Y024786D01*
Y024845D01*
X031273Y024903D01*
X031157D01*
X031098Y024845D01*
X027669Y032245D02*
X027611Y032303D01*
X027494D01*
X027436Y032245D01*
Y032012D01*
X027494Y031953D01*
X027611D01*
X027669Y032012D01*
X027786Y032303D02*
X028019D01*
X027902D01*
Y031953D01*
X028135D02*
X028252D01*
X028194D01*
Y032303D01*
X028135Y032245D01*
D11*
X028438Y028378D02*
G03*
X028438Y028378I-000039J0D01*
G01*
X014063Y03017D02*
G03*
X014063Y03017I-00002J0D01*
G01*
X009798Y022983D02*
X011921D01*
X009798Y023317D02*
X011921D01*
X009798Y023983D02*
X011932D01*
X009798Y024317D02*
X011921D01*
X011932Y02065D02*
Y02465D01*
Y02065D02*
X012931D01*
X011932Y02465D02*
X012931D01*
Y02065D02*
Y02465D01*
X012748Y024633D02*
X012915Y024467D01*
X009632Y02415D02*
X009798Y024317D01*
X009632Y02315D02*
X009798Y022983D01*
X009632Y02315D02*
X009798Y023317D01*
X009632Y02415D02*
X009798Y023983D01*
X009632Y02215D02*
X009798Y021983D01*
X009632Y02115D02*
X009798Y021317D01*
X009632Y02115D02*
X009798Y020983D01*
X009632Y02215D02*
X009798Y022317D01*
X011921D01*
X009798Y021983D02*
X011932D01*
X009798Y021317D02*
X011921D01*
X009798Y020983D02*
X011921D01*
X0235Y0202D02*
X0255D01*
X0235Y0192D02*
Y0202D01*
Y0192D02*
X0255D01*
Y0202D01*
D12*
X032737Y031237D02*
G03*
X032749Y031251I000463J-000387D01*
G01*
X031744Y02885D02*
G03*
X031744Y02885I-000064J0D01*
G01*
X031734Y03087D02*
G03*
X031734Y03087I-000064J0D01*
G01*
X032738Y029238D02*
G03*
X032749Y029251I000462J-000388D01*
G01*
X031556Y021026D02*
Y022206D01*
X027436Y021006D02*
Y022226D01*
X032616Y021006D02*
Y022226D01*
X027436D02*
X032616D01*
X027436Y021006D02*
X032616D01*
Y019706D02*
Y021006D01*
X027436Y019706D02*
X032616D01*
X027436D02*
Y021006D01*
X0342Y02785D02*
Y03185D01*
X03248Y02985D02*
X03399D01*
X0314Y02779D02*
X03165D01*
X0312Y02785D02*
X0327D01*
X0312D02*
Y03185D01*
X03138D01*
Y0318D02*
Y03185D01*
Y0318D02*
X03169D01*
Y03185D01*
X0342D01*
X0327Y02785D02*
X0342D01*
X0322Y02787D02*
Y03184D01*
X01751Y03454D02*
X01768Y03471D01*
X01767Y03451D02*
X01784Y03468D01*
X017121Y034752D02*
Y035543D01*
X01767Y03515D02*
X01796Y03486D01*
X01767Y03515D02*
X01796Y03544D01*
X01767Y03483D02*
Y03549D01*
X02045Y03319D02*
X02046Y0332D01*
X0162Y03319D02*
X01621Y0332D01*
D13*
X017123Y034748D02*
G03*
X017124Y035547I000679J000398D01*
G01*
D14*
X0221Y032D02*
G03*
X0221Y032I-0005J0D01*
G01*
X01785D02*
G03*
X01785Y032I-0005J0D01*
G01*
X02085Y03105D02*
X0224D01*
X02045Y0316D02*
Y03255D01*
X02085Y03305D02*
X02239D01*
X0227Y0316D02*
Y03255D01*
X0166Y03105D02*
X01815D01*
X0162Y0316D02*
Y03255D01*
X0166Y03305D02*
X01814D01*
X01845Y0316D02*
Y03255D01*
D15*
X022854Y018874D02*
G03*
X022854Y018874I-000059J0D01*
G01*
D16*
X021675Y018135D02*
G03*
X021675Y018135I-0003J0D01*
G01*
X02224Y017415D02*
Y025685D01*
X01603D02*
X02224D01*
X016955Y024895D02*
X021285D01*
X016955Y018995D02*
Y024895D01*
X021285Y018995D02*
Y024895D01*
X016955Y018995D02*
X021285D01*
X016855Y018545D02*
X020795D01*
X016855Y017785D02*
Y018545D01*
X020795Y017785D02*
Y018545D01*
X016855Y017785D02*
X020795D01*
X01603Y017415D02*
Y025685D01*
Y017415D02*
X02224D01*
D17*
X027977Y029368D02*
Y030832D01*
X030623Y029368D02*
Y030832D01*
X027977Y029368D02*
X02808D01*
X030524D02*
X030623D01*
X030036Y030832D02*
X030623D01*
X027977D02*
X028607D01*
X02056Y0207D02*
Y0221D01*
Y0207D02*
X02123D01*
Y0221D01*
X02056D02*
X02123D01*
X02376Y0271D02*
Y0285D01*
Y0271D02*
X02443D01*
Y0285D01*
X02376D02*
X02443D01*
X02201Y0271D02*
Y0285D01*
Y0271D02*
X02268D01*
Y0285D01*
X02201D02*
X02268D01*
X01686Y0271D02*
Y0285D01*
Y0271D02*
X01753D01*
Y0285D01*
X01686D02*
X01753D01*
X01955Y03554D02*
X02095D01*
X01955Y03487D02*
Y03554D01*
Y03487D02*
X02095D01*
Y03554D01*
X014195Y030288D02*
Y031312D01*
X013105Y030288D02*
Y031312D01*
X02026Y0271D02*
Y0285D01*
Y0271D02*
X02093D01*
Y0285D01*
X02026D02*
X02093D01*
X01399Y0271D02*
Y0285D01*
X01332D02*
X01399D01*
X01332Y0271D02*
Y0285D01*
Y0271D02*
X01399D01*
X01579D02*
Y0285D01*
X01512D02*
X01579D01*
X01512Y0271D02*
Y0285D01*
Y0271D02*
X01579D01*
X01856D02*
Y0285D01*
Y0271D02*
X01923D01*
Y0285D01*
X01856D02*
X01923D01*
D18*
X02115Y02123D02*
Y02157D01*
X02065Y02123D02*
Y02157D01*
X02435Y02763D02*
Y02797D01*
X02385Y02763D02*
Y02797D01*
X0226Y02763D02*
Y02797D01*
X0221Y02763D02*
Y02797D01*
X01745Y02763D02*
Y02797D01*
X01695Y02763D02*
Y02797D01*
X02008Y03495D02*
X02042D01*
X02008Y03545D02*
X02042D01*
X02085Y02763D02*
Y02797D01*
X02035Y02763D02*
Y02797D01*
X0134Y02763D02*
Y02797D01*
X0139Y02763D02*
Y02797D01*
X0152Y02763D02*
Y02797D01*
X0157Y02763D02*
Y02797D01*
X01915Y02763D02*
Y02797D01*
X01865Y02763D02*
Y02797D01*
M02*
