G04*
G04 #@! TF.GenerationSoftware,Altium Limited,Altium Designer,19.0.15 (446)*
G04*
G04 Layer_Physical_Order=1*
G04 Layer_Color=255*
%FSTAX24Y24*%
%MOIN*%
G70*
G01*
G75*
%ADD10C,0.0100*%
G04:AMPARAMS|DCode=19|XSize=98.4mil|YSize=169.3mil|CornerRadius=24.6mil|HoleSize=0mil|Usage=FLASHONLY|Rotation=180.000|XOffset=0mil|YOffset=0mil|HoleType=Round|Shape=RoundedRectangle|*
%AMROUNDEDRECTD19*
21,1,0.0984,0.1201,0,0,180.0*
21,1,0.0492,0.1693,0,0,180.0*
1,1,0.0492,-0.0246,0.0600*
1,1,0.0492,0.0246,0.0600*
1,1,0.0492,0.0246,-0.0600*
1,1,0.0492,-0.0246,-0.0600*
%
%ADD19ROUNDEDRECTD19*%
G04:AMPARAMS|DCode=20|XSize=36.6mil|YSize=51.6mil|CornerRadius=2.7mil|HoleSize=0mil|Usage=FLASHONLY|Rotation=0.000|XOffset=0mil|YOffset=0mil|HoleType=Round|Shape=RoundedRectangle|*
%AMROUNDEDRECTD20*
21,1,0.0366,0.0461,0,0,0.0*
21,1,0.0311,0.0516,0,0,0.0*
1,1,0.0055,0.0156,-0.0230*
1,1,0.0055,-0.0156,-0.0230*
1,1,0.0055,-0.0156,0.0230*
1,1,0.0055,0.0156,0.0230*
%
%ADD20ROUNDEDRECTD20*%
G04:AMPARAMS|DCode=21|XSize=127.6mil|YSize=51.6mil|CornerRadius=3.9mil|HoleSize=0mil|Usage=FLASHONLY|Rotation=0.000|XOffset=0mil|YOffset=0mil|HoleType=Round|Shape=RoundedRectangle|*
%AMROUNDEDRECTD21*
21,1,0.1276,0.0438,0,0,0.0*
21,1,0.1198,0.0516,0,0,0.0*
1,1,0.0077,0.0599,-0.0219*
1,1,0.0077,-0.0599,-0.0219*
1,1,0.0077,-0.0599,0.0219*
1,1,0.0077,0.0599,0.0219*
%
%ADD21ROUNDEDRECTD21*%
%ADD22R,0.0550X0.0394*%
G04:AMPARAMS|DCode=23|XSize=50mil|YSize=50mil|CornerRadius=12.5mil|HoleSize=0mil|Usage=FLASHONLY|Rotation=270.000|XOffset=0mil|YOffset=0mil|HoleType=Round|Shape=RoundedRectangle|*
%AMROUNDEDRECTD23*
21,1,0.0500,0.0250,0,0,270.0*
21,1,0.0250,0.0500,0,0,270.0*
1,1,0.0250,-0.0125,-0.0125*
1,1,0.0250,-0.0125,0.0125*
1,1,0.0250,0.0125,0.0125*
1,1,0.0250,0.0125,-0.0125*
%
%ADD23ROUNDEDRECTD23*%
%ADD24R,0.0394X0.0550*%
G04:AMPARAMS|DCode=25|XSize=19.3mil|YSize=17.7mil|CornerRadius=2.2mil|HoleSize=0mil|Usage=FLASHONLY|Rotation=270.000|XOffset=0mil|YOffset=0mil|HoleType=Round|Shape=RoundedRectangle|*
%AMROUNDEDRECTD25*
21,1,0.0193,0.0133,0,0,270.0*
21,1,0.0149,0.0177,0,0,270.0*
1,1,0.0044,-0.0066,-0.0074*
1,1,0.0044,-0.0066,0.0074*
1,1,0.0044,0.0066,0.0074*
1,1,0.0044,0.0066,-0.0074*
%
%ADD25ROUNDEDRECTD25*%
%ADD43C,0.0500*%
%ADD44C,0.0200*%
%ADD45O,0.0650X0.0900*%
%ADD46R,0.0650X0.0900*%
%ADD47C,0.1100*%
%ADD48R,0.0650X0.1000*%
%ADD49O,0.0650X0.1000*%
%ADD50C,0.0750*%
%ADD51R,0.0500X0.0500*%
%ADD52R,0.0630X0.0630*%
%ADD53C,0.0630*%
%ADD54R,0.0630X0.0630*%
%ADD55C,0.0180*%
%ADD56C,0.0250*%
%ADD57C,0.0500*%
%ADD58C,0.1378*%
G36*
X033789Y036255D02*
X033782Y036251D01*
X033654Y036146D01*
X033549Y036018D01*
X033471Y035873D01*
X033423Y035714D01*
X033407Y03555D01*
X033423Y035386D01*
X033471Y035227D01*
X033549Y035082D01*
X033654Y034954D01*
X033782Y034849D01*
X033927Y034771D01*
X034086Y034723D01*
X03425Y034707D01*
X034414Y034723D01*
X034573Y034771D01*
X034718Y034849D01*
X034846Y034954D01*
X034948Y035079D01*
X034952Y035079D01*
X034998Y035044D01*
Y019906D01*
X034952Y019871D01*
X034948Y019871D01*
X034846Y019996D01*
X034718Y020101D01*
X034573Y020179D01*
X034414Y020227D01*
X03425Y020243D01*
X034086Y020227D01*
X033927Y020179D01*
X033782Y020101D01*
X033654Y019996D01*
X033549Y019868D01*
X033471Y019723D01*
X033423Y019564D01*
X033407Y0194D01*
X033423Y019236D01*
X033471Y019077D01*
X033549Y018932D01*
X033654Y018804D01*
X033777Y018703D01*
X033775Y018671D01*
X03377Y018653D01*
X01338D01*
X013375Y018671D01*
X013373Y018703D01*
X013496Y018804D01*
X013601Y018932D01*
X013679Y019077D01*
X013727Y019236D01*
X013743Y0194D01*
X013727Y019564D01*
X013679Y019723D01*
X013601Y019868D01*
X013496Y019996D01*
X013368Y020101D01*
X013223Y020179D01*
X013064Y020227D01*
X0129Y020243D01*
X012736Y020227D01*
X012577Y020179D01*
X012432Y020101D01*
X012304Y019996D01*
X012248Y019929D01*
X012198Y019946D01*
Y035073D01*
X012247Y035086D01*
X012249Y035082D01*
X012354Y034954D01*
X012482Y034849D01*
X012627Y034771D01*
X012786Y034723D01*
X01295Y034707D01*
X013114Y034723D01*
X013273Y034771D01*
X013418Y034849D01*
X013546Y034954D01*
X013651Y035082D01*
X013729Y035227D01*
X013777Y035386D01*
X013793Y03555D01*
X013777Y035714D01*
X013729Y035873D01*
X013651Y036018D01*
X013546Y036146D01*
X013418Y036251D01*
X013411Y036255D01*
X013423Y036303D01*
X033777D01*
X033789Y036255D01*
D02*
G37*
%LPC*%
G36*
X0173Y035804D02*
X017176Y035788D01*
X01706Y03574D01*
X016961Y035664D01*
X016885Y035565D01*
X016837Y035449D01*
X016821Y035325D01*
Y034975D01*
X016837Y034851D01*
X016885Y034735D01*
X016961Y034636D01*
X01706Y03456D01*
X017176Y034512D01*
X0173Y034496D01*
X017424Y034512D01*
X01754Y03456D01*
X017639Y034636D01*
X017715Y034735D01*
X017763Y034851D01*
X017775Y034944D01*
X017825Y034941D01*
Y0345D01*
X018775D01*
Y034945D01*
X018781Y034945D01*
X019447D01*
X019453Y034945D01*
Y034775D01*
X020147D01*
Y035625D01*
X019453D01*
Y035455D01*
X019447Y035455D01*
X018781D01*
X018775Y035455D01*
Y0358D01*
X017825D01*
Y035359D01*
X017775Y035356D01*
X017763Y035449D01*
X017715Y035565D01*
X017639Y035664D01*
X01754Y03574D01*
X017424Y035788D01*
X0173Y035804D01*
D02*
G37*
G36*
X028602Y034466D02*
X028548Y034388D01*
X028508Y034316D01*
X028483Y034253D01*
X028474Y034198D01*
X02848Y034151D01*
X028503Y034114D01*
X028541Y034085D01*
X0281Y03432D01*
Y03375D01*
X028645D01*
Y0343D01*
X028633Y034391D01*
X028602Y034466D01*
D02*
G37*
G36*
X027962Y034649D02*
X027804D01*
X027714Y034638D01*
X027629Y034603D01*
X027557Y034547D01*
X027502Y034475D01*
X027467Y034391D01*
X027455Y0343D01*
Y03375D01*
X028D01*
Y034373D01*
X02771Y034528D01*
X027773Y03455D01*
X027839Y03458D01*
X027908Y034616D01*
X027962Y034649D01*
D02*
G37*
G36*
X024798Y035359D02*
X024634Y035343D01*
X024476Y035295D01*
X02433Y035217D01*
X024202Y035112D01*
X024097Y034985D01*
X02402Y034839D01*
X023972Y034681D01*
X023955Y034516D01*
X023972Y034352D01*
X02402Y034194D01*
X024097Y034048D01*
X024202Y03392D01*
X02433Y033815D01*
X024476Y033737D01*
X024634Y033689D01*
X024798Y033673D01*
X024963Y033689D01*
X025121Y033737D01*
X025267Y033815D01*
X025395Y03392D01*
X025499Y034048D01*
X025577Y034194D01*
X025625Y034352D01*
X025641Y034516D01*
X025625Y034681D01*
X025577Y034839D01*
X025499Y034985D01*
X025395Y035112D01*
X025267Y035217D01*
X025121Y035295D01*
X024963Y035343D01*
X024798Y035359D01*
D02*
G37*
G36*
X0162Y033473D02*
Y033409D01*
X016207Y033415D01*
X016259Y033465D01*
X0162Y033473D01*
D02*
G37*
G36*
X016615Y033104D02*
X016567Y03305D01*
X016623D01*
X016615Y033104D01*
D02*
G37*
G36*
X02045Y033473D02*
Y03305D01*
X020873D01*
X020863Y033124D01*
X020815Y03324D01*
X020739Y033339D01*
X02064Y033415D01*
X020524Y033463D01*
X02045Y033473D01*
D02*
G37*
G36*
X0162Y033329D02*
Y03305D01*
X016479D01*
X0162Y033329D01*
D02*
G37*
G36*
X0161Y033473D02*
X016026Y033463D01*
X01591Y033415D01*
X015811Y033339D01*
X015747Y033255D01*
X015882Y033263D01*
Y03305D01*
X0161D01*
Y033473D01*
D02*
G37*
G36*
X02035D02*
X020276Y033463D01*
X020244Y033449D01*
X020319Y033384D01*
X020331Y033376D01*
X020341Y033372D01*
X020348Y033371D01*
X0201Y03305D01*
X02035D01*
Y033473D01*
D02*
G37*
G36*
X019928Y033053D02*
X019927Y03305D01*
X019931D01*
X019928Y033053D01*
D02*
G37*
G36*
X028645Y03365D02*
X0281D01*
Y032751D01*
X028296D01*
X028386Y032762D01*
X028471Y032797D01*
X028543Y032853D01*
X028598Y032925D01*
X028633Y033009D01*
X028645Y0331D01*
Y03365D01*
D02*
G37*
G36*
X028D02*
X027455D01*
Y0331D01*
X027467Y033009D01*
X027502Y032925D01*
X027557Y032853D01*
X027629Y032797D01*
X027714Y032762D01*
X027804Y032751D01*
X028D01*
Y03365D01*
D02*
G37*
G36*
X0161Y03295D02*
X015882D01*
Y032738D01*
X015878Y03274D01*
X015869Y032742D01*
X015856Y032744D01*
X015817Y032747D01*
X015744Y032749D01*
X015811Y032661D01*
X01591Y032585D01*
X016026Y032537D01*
X0161Y032527D01*
Y03295D01*
D02*
G37*
G36*
X020873D02*
X02045D01*
Y032527D01*
X020524Y032537D01*
X02064Y032585D01*
X020739Y032661D01*
X020815Y03276D01*
X020863Y032876D01*
X020873Y03295D01*
D02*
G37*
G36*
X016623D02*
X0162D01*
Y032527D01*
X016274Y032537D01*
X01639Y032585D01*
X016489Y032661D01*
X016565Y03276D01*
X016613Y032876D01*
X016623Y03295D01*
D02*
G37*
G36*
X02035D02*
X019927D01*
X019937Y032876D01*
X019985Y03276D01*
X020061Y032661D01*
X02016Y032585D01*
X020276Y032537D01*
X02035Y032527D01*
Y03295D01*
D02*
G37*
G36*
X01866Y03349D02*
X018523Y033471D01*
X018395Y033419D01*
X018286Y033334D01*
X018201Y033225D01*
X018149Y033097D01*
X01813Y03296D01*
X018149Y032823D01*
X018201Y032695D01*
X018286Y032586D01*
X018395Y032501D01*
X018523Y032449D01*
X01866Y03243D01*
X018797Y032449D01*
X018925Y032501D01*
X019034Y032586D01*
X019119Y032695D01*
X019171Y032823D01*
X01919Y03296D01*
X019171Y033097D01*
X019119Y033225D01*
X019034Y033334D01*
X018925Y033419D01*
X018797Y033471D01*
X01866Y03349D01*
D02*
G37*
G36*
X013216Y031381D02*
X0132D01*
X013152Y031371D01*
X013112Y031344D01*
X013085Y031304D01*
X013075Y031256D01*
Y031232D01*
X013216D01*
Y031381D01*
D02*
G37*
G36*
X029899Y031828D02*
X028701D01*
X028627Y031814D01*
X028565Y031772D01*
X028523Y03171D01*
X028509Y031636D01*
Y031198D01*
X028523Y031124D01*
X028565Y031062D01*
X028627Y03102D01*
X028701Y031005D01*
X029899D01*
X029973Y03102D01*
X030035Y031062D01*
X030077Y031124D01*
X030091Y031198D01*
Y031636D01*
X030077Y03171D01*
X030035Y031772D01*
X029973Y031814D01*
X029899Y031828D01*
D02*
G37*
G36*
X013216Y031132D02*
X013075D01*
Y031108D01*
X013085Y03106D01*
X013112Y03102D01*
X013152Y030993D01*
X0132Y030983D01*
X013216D01*
Y031132D01*
D02*
G37*
G36*
X021047Y035625D02*
X020353D01*
Y035405D01*
X020351Y035402D01*
X02031Y035304D01*
X020297Y0352D01*
X02031Y035096D01*
X020351Y034998D01*
X020353Y034995D01*
Y034775D01*
X020554D01*
X021147Y034183D01*
Y032568D01*
X020937Y032358D01*
X014908D01*
X014876Y032371D01*
X014804Y032381D01*
X014733Y032371D01*
X014666Y032343D01*
X014627Y032314D01*
X014603Y032304D01*
X014519Y03224D01*
X014315Y032035D01*
X014251Y031952D01*
X01421Y031854D01*
X014203Y031796D01*
X014198Y031779D01*
X014197Y031757D01*
X013694D01*
X013616Y031742D01*
X01355Y031697D01*
X013378Y031525D01*
X013334Y031459D01*
X013318Y031381D01*
Y031381D01*
X013316D01*
Y031357D01*
X013293Y031323D01*
X01328Y031256D01*
Y031182D01*
Y031108D01*
X013293Y03104D01*
X013316Y031006D01*
Y030983D01*
X013332D01*
X013388Y030945D01*
X013456Y030932D01*
X013588D01*
X013656Y030945D01*
X013712Y030983D01*
X013728D01*
Y031006D01*
X013751Y03104D01*
X013764Y031108D01*
Y031182D01*
X013792D01*
Y031108D01*
X013805Y03104D01*
X013828Y031006D01*
Y030983D01*
X013844D01*
X0139Y030945D01*
X013967Y030932D01*
X0141D01*
X014167Y030945D01*
X014175Y03095D01*
X014175Y03095D01*
X014194Y030963D01*
X014195Y030963D01*
X014244Y030939D01*
X014245Y030938D01*
Y030586D01*
X014195Y030571D01*
X014188Y03058D01*
X014148Y030607D01*
X0141Y030617D01*
X014084D01*
Y030418D01*
X01402D01*
Y030492D01*
X014007Y03056D01*
X013984Y030594D01*
Y030617D01*
X013968D01*
X013912Y030655D01*
X013844Y030668D01*
X013712D01*
X01365Y030656D01*
X013588Y030668D01*
X013456D01*
X013394Y030656D01*
X013333Y030668D01*
X0132D01*
X013133Y030655D01*
X013084Y030622D01*
X012918D01*
X01284Y030607D01*
X012774Y030562D01*
X012774Y030562D01*
X012708Y030497D01*
X012652Y030485D01*
X01257Y03043D01*
X01252Y03038D01*
X012464Y030298D01*
X012445Y0302D01*
Y029122D01*
X012464Y029024D01*
X01252Y028942D01*
X013225Y028236D01*
Y027903D01*
X014075D01*
Y028597D01*
X013585D01*
X012955Y029227D01*
Y030107D01*
X012986Y030152D01*
X012997Y030208D01*
X013003Y030214D01*
X013084D01*
X013133Y030182D01*
X0132Y030168D01*
X013318D01*
Y030078D01*
X013334Y03D01*
X013378Y029934D01*
X013453Y029858D01*
X013464Y029802D01*
X01352Y02972D01*
X015025Y028215D01*
Y027903D01*
X015875D01*
Y028157D01*
X015925Y028172D01*
X01594Y02815D01*
X01675Y027339D01*
X01527Y025858D01*
X015215Y025776D01*
X015195Y025678D01*
Y023D01*
X015215Y022902D01*
X01527Y02282D01*
X015678Y022411D01*
X015761Y022356D01*
X015859Y022336D01*
X016002D01*
X016009Y022336D01*
Y022D01*
X016002Y022D01*
X015786D01*
X015005Y022781D01*
Y026673D01*
X015335Y027003D01*
X015875D01*
Y027697D01*
X015025D01*
Y027414D01*
X01457Y026958D01*
X014514Y026876D01*
X014495Y026778D01*
Y022675D01*
X014514Y022577D01*
X01457Y022495D01*
X0155Y021565D01*
X015582Y021509D01*
X01568Y02149D01*
X016002D01*
X016009Y02149D01*
Y02121D01*
X016002Y02121D01*
X015751D01*
X014355Y022606D01*
Y026978D01*
X014336Y027076D01*
X01428Y027158D01*
X014075Y027364D01*
Y027697D01*
X013225D01*
Y027003D01*
X013715D01*
X013845Y026873D01*
Y024565D01*
X013572D01*
Y02415D01*
Y023735D01*
X013845D01*
Y023545D01*
X0138Y023523D01*
X013757Y023556D01*
X013643Y023603D01*
X013522Y023619D01*
X013401Y023603D01*
X013288Y023556D01*
X01319Y023482D01*
X013116Y023384D01*
X013069Y023271D01*
X013053Y02315D01*
X013069Y023029D01*
X013116Y022916D01*
X01319Y022818D01*
X013288Y022744D01*
X013401Y022697D01*
X013522Y022681D01*
X013643Y022697D01*
X013757Y022744D01*
X0138Y022777D01*
X013845Y022755D01*
Y022551D01*
X013795Y022527D01*
X013757Y022556D01*
X013643Y022603D01*
X013522Y022619D01*
X013401Y022603D01*
X013288Y022556D01*
X01319Y022482D01*
X013116Y022384D01*
X013069Y022271D01*
X013053Y02215D01*
X013069Y022029D01*
X013116Y021916D01*
X01319Y021818D01*
X013288Y021744D01*
X013401Y021697D01*
X013522Y021681D01*
X013618Y021694D01*
X01367Y021642D01*
X013661Y021629D01*
X013637Y021604D01*
X013522Y021619D01*
X013401Y021603D01*
X013288Y021556D01*
X01319Y021482D01*
X013116Y021384D01*
X013069Y021271D01*
X013053Y02115D01*
X013069Y021029D01*
X013116Y020916D01*
X01319Y020818D01*
X013288Y020744D01*
X013401Y020697D01*
X013522Y020681D01*
X013618Y020694D01*
X015107Y019205D01*
X015189Y01915D01*
X015287Y01913D01*
X016002D01*
X016009Y01913D01*
Y018985D01*
X016809D01*
Y019775D01*
Y020555D01*
Y021345D01*
Y022135D01*
Y022925D01*
Y02307D01*
X016815Y02307D01*
X018325D01*
X018423Y023089D01*
X018505Y023145D01*
X01973Y02437D01*
X019785Y024452D01*
X019805Y02455D01*
Y026294D01*
X020514Y027003D01*
X021025D01*
Y027697D01*
X020175D01*
Y027385D01*
X01937Y02658D01*
X019315Y026498D01*
X019295Y0264D01*
Y024656D01*
X019198Y024558D01*
X019151Y024583D01*
X019155Y0246D01*
Y026997D01*
X019155Y027003D01*
X019325D01*
Y027697D01*
X018475D01*
Y027003D01*
X018645D01*
X018645Y026997D01*
Y024706D01*
X018299Y02436D01*
X016815D01*
X016809Y02436D01*
Y024505D01*
X016783D01*
X016759Y024545D01*
X016759Y024555D01*
Y024845D01*
X016059D01*
Y024555D01*
X016059Y024545D01*
X016035Y024505D01*
X016009D01*
Y023705D01*
Y02286D01*
X015959Y022852D01*
X015705Y023106D01*
Y025573D01*
X017135Y027003D01*
X017625D01*
Y027697D01*
X017114D01*
X016981Y02783D01*
X016988Y027893D01*
X016998Y027901D01*
X017096Y02786D01*
X0172Y027847D01*
X017304Y02786D01*
X017402Y027901D01*
X017405Y027903D01*
X017625D01*
Y028597D01*
X017603D01*
Y031396D01*
X017745Y031551D01*
X018315D01*
X018325Y031501D01*
X018226Y031424D01*
X018141Y031315D01*
X018089Y031187D01*
X01807Y03105D01*
X018089Y030913D01*
X018141Y030785D01*
X018226Y030676D01*
X018335Y030591D01*
X018463Y030539D01*
X0186Y03052D01*
X018737Y030539D01*
X018865Y030591D01*
X018974Y030676D01*
X019059Y030785D01*
X019111Y030913D01*
X01913Y03105D01*
X019111Y031187D01*
X019059Y031315D01*
X018974Y031424D01*
X018875Y031501D01*
X018885Y031551D01*
X020039D01*
X020056Y031501D01*
X019996Y031454D01*
X019911Y031345D01*
X019859Y031217D01*
X01984Y03108D01*
X019859Y030943D01*
X019911Y030815D01*
X019996Y030706D01*
X020105Y030621D01*
X020233Y030569D01*
X02037Y03055D01*
X020507Y030569D01*
X020635Y030621D01*
X020744Y030706D01*
X020829Y030815D01*
X020881Y030943D01*
X0209Y03108D01*
X020881Y031217D01*
X020829Y031345D01*
X020744Y031454D01*
X020684Y031501D01*
X020701Y031551D01*
X021034D01*
X021147Y031439D01*
Y029395D01*
X020348Y028597D01*
X020175D01*
Y027903D01*
X020395D01*
X020398Y027901D01*
X020496Y02786D01*
X0206Y027847D01*
X020704Y02786D01*
X020802Y027901D01*
X020805Y027903D01*
X021025D01*
Y028133D01*
X021835Y028943D01*
X021899Y029026D01*
X02194Y029124D01*
X021953Y029228D01*
X021953Y029228D01*
Y031442D01*
X022108Y031597D01*
X022667D01*
X022677Y031547D01*
X022585Y031509D01*
X022476Y031424D01*
X022391Y031315D01*
X022339Y031187D01*
X02232Y03105D01*
X022339Y030913D01*
X022391Y030785D01*
X022476Y030676D01*
X022585Y030591D01*
X022595Y030587D01*
Y028856D01*
X022345Y028605D01*
X022339Y028597D01*
X021925D01*
Y027903D01*
X022775D01*
Y028315D01*
X02303Y02857D01*
X023085Y028652D01*
X023105Y02875D01*
Y030587D01*
X023115Y030591D01*
X023224Y030676D01*
X023309Y030785D01*
X023361Y030913D01*
X02338Y03105D01*
X023361Y031187D01*
X023309Y031315D01*
X023224Y031424D01*
X023115Y031509D01*
X023023Y031547D01*
X023033Y031597D01*
X023398D01*
X023697Y031322D01*
Y028597D01*
X023675D01*
Y027903D01*
X023895D01*
X023898Y027901D01*
X023996Y02786D01*
X0241Y027847D01*
X024204Y02786D01*
X024302Y027901D01*
X024305Y027903D01*
X024525D01*
Y028597D01*
X024503D01*
Y031334D01*
X024766Y031597D01*
X026335D01*
X028897Y029035D01*
Y028783D01*
Y027456D01*
X028897Y027456D01*
X02891Y027352D01*
X028951Y027255D01*
X029015Y027171D01*
X029147Y027039D01*
X029147Y025308D01*
X028209D01*
X028206Y025358D01*
X028236Y025362D01*
X028321Y025397D01*
X028393Y025453D01*
X028448Y025525D01*
X028483Y025609D01*
X028495Y0257D01*
Y02625D01*
X0279D01*
X027305D01*
Y0257D01*
X027317Y025609D01*
X027352Y025525D01*
X027407Y025453D01*
X027479Y025397D01*
X027564Y025362D01*
X027594Y025358D01*
X027591Y025308D01*
X021605D01*
X021579Y025305D01*
X021471D01*
Y025282D01*
X021403Y025254D01*
X02132Y02519D01*
X02132Y02519D01*
X020615Y024485D01*
X020551Y024402D01*
X02051Y024305D01*
X020505Y024264D01*
X020455Y024267D01*
Y025094D01*
X022355Y026995D01*
X022361Y027003D01*
X022604D01*
X022607Y027002D01*
X022615Y027003D01*
X022624Y027001D01*
X022633Y027003D01*
X022775D01*
Y027095D01*
X02278Y027095D01*
X02367D01*
X023675Y027095D01*
Y027003D01*
X023817D01*
X023826Y027001D01*
X023835Y027003D01*
X023843Y027002D01*
X023846Y027003D01*
X024351D01*
X024351Y027003D01*
X024353Y027003D01*
X024365D01*
X024374Y027001D01*
X024383Y027003D01*
X024525D01*
Y02707D01*
X024528Y02707D01*
X025521D01*
X025535Y027036D01*
X025579Y026979D01*
X025636Y026935D01*
X025703Y026907D01*
X025775Y026898D01*
X026025D01*
X026097Y026907D01*
X026164Y026935D01*
X026221Y026979D01*
X026265Y027036D01*
X026293Y027103D01*
X026302Y027175D01*
Y027425D01*
X026293Y027497D01*
X026265Y027564D01*
X026221Y027621D01*
X026164Y027665D01*
X026097Y027693D01*
X026025Y027702D01*
X025775D01*
X025703Y027693D01*
X025636Y027665D01*
X025579Y027621D01*
X025547Y02758D01*
X024531D01*
X024525Y02758D01*
Y027697D01*
X023846D01*
X023843Y027698D01*
X023835Y027697D01*
X023826Y027699D01*
X023817Y027697D01*
X023675D01*
Y027605D01*
X02367Y027605D01*
X02278D01*
X022775Y027605D01*
Y027697D01*
X022633D01*
X022624Y027699D01*
X022615Y027697D01*
X022607Y027698D01*
X022604Y027697D01*
X021925D01*
Y027285D01*
X02002Y02538D01*
X019964Y025298D01*
X019945Y0252D01*
Y019952D01*
X019964Y019854D01*
X02002Y019771D01*
X020586Y019205D01*
X020669Y01915D01*
X020767Y01913D01*
X021464D01*
X021471Y01913D01*
Y018985D01*
X022271D01*
Y019755D01*
X022271Y019785D01*
X022271Y019835D01*
Y01995D01*
X022277Y01995D01*
X023389D01*
X023535Y019804D01*
Y019235D01*
X024465D01*
Y019809D01*
X024508Y019827D01*
X024544Y019795D01*
X024531Y0197D01*
X024547Y019579D01*
X024594Y019466D01*
X024668Y019368D01*
X024766Y019294D01*
X024879Y019247D01*
X025Y019231D01*
X025121Y019247D01*
X025234Y019294D01*
X025332Y019368D01*
X025406Y019466D01*
X025453Y019579D01*
X025469Y0197D01*
X025453Y019821D01*
X025406Y019934D01*
X025332Y020032D01*
X025234Y020106D01*
X025121Y020153D01*
X025Y020169D01*
X024904Y020156D01*
X023125Y021935D01*
X023043Y02199D01*
X022945Y02201D01*
X022277D01*
X022271Y02201D01*
Y02227D01*
X022277Y02227D01*
X027021D01*
X027567Y021725D01*
Y021481D01*
X027583Y021357D01*
X027631Y021241D01*
X027707Y021142D01*
X027806Y021066D01*
X027922Y021018D01*
X028046Y021002D01*
X02817Y021018D01*
X028285Y021066D01*
X028384Y021142D01*
X028461Y021241D01*
X028508Y021357D01*
X02852Y021448D01*
X028571D01*
X028583Y021357D01*
X028631Y021241D01*
X028707Y021142D01*
X028806Y021066D01*
X028922Y021018D01*
X029046Y021002D01*
X02917Y021018D01*
X029285Y021066D01*
X029384Y021142D01*
X029461Y021241D01*
X029508Y021357D01*
X02952Y021448D01*
X029571D01*
X029583Y021357D01*
X029631Y021241D01*
X029707Y021142D01*
X029806Y021066D01*
X029906Y021025D01*
X030716Y020215D01*
X0308Y020151D01*
X030897Y02011D01*
X031001Y020097D01*
X031001Y020097D01*
X032795D01*
X032795Y020097D01*
X0329Y02011D01*
X032997Y020151D01*
X03308Y020215D01*
X033785Y02092D01*
X033849Y021003D01*
X03389Y0211D01*
X033903Y021205D01*
Y026681D01*
X033903Y026681D01*
X03389Y026786D01*
X033849Y026883D01*
X033785Y026967D01*
X033785Y026967D01*
X031951Y028801D01*
X031951Y029503D01*
X03194Y029562D01*
X031907Y029611D01*
X031857Y029645D01*
X031798Y029656D01*
X031203D01*
Y032736D01*
X031246Y032754D01*
X031329Y032817D01*
X031392Y0329D01*
X031432Y032996D01*
X031446Y0331D01*
Y033297D01*
X031833D01*
X032797Y032333D01*
Y031424D01*
X032703Y031347D01*
X032615Y031241D01*
X03255Y031119D01*
X03251Y030987D01*
X032497Y03085D01*
X03251Y030713D01*
X03255Y030581D01*
X032615Y030459D01*
X032703Y030353D01*
X032809Y030265D01*
X032931Y0302D01*
X033063Y03016D01*
X0332Y030147D01*
X033337Y03016D01*
X033469Y0302D01*
X033591Y030265D01*
X033697Y030353D01*
X033785Y030459D01*
X03385Y030581D01*
X03389Y030713D01*
X033903Y03085D01*
X03389Y030987D01*
X03385Y031119D01*
X033785Y031241D01*
X033697Y031347D01*
X033603Y031424D01*
Y0325D01*
X03359Y032604D01*
X033549Y032702D01*
X033485Y032785D01*
X033485Y032785D01*
X032285Y033985D01*
X032202Y034049D01*
X032104Y03409D01*
X032Y034103D01*
X032Y034103D01*
X031446D01*
Y0343D01*
X031432Y034404D01*
X031392Y0345D01*
X031329Y034583D01*
X031246Y034646D01*
X031149Y034686D01*
X031046Y0347D01*
X030554D01*
X030451Y034686D01*
X030354Y034646D01*
X030271Y034583D01*
X030208Y0345D01*
X030168Y034404D01*
X030154Y0343D01*
Y0331D01*
X030168Y032996D01*
X030208Y0329D01*
X030271Y032817D01*
X030354Y032754D01*
X030397Y032736D01*
Y029656D01*
X029898D01*
X02984Y029645D01*
X02979Y029611D01*
X029757Y029562D01*
X029745Y029503D01*
Y029265D01*
X029695Y029262D01*
X02969Y029306D01*
X029649Y029403D01*
X029585Y029487D01*
X026787Y032285D01*
X026703Y032349D01*
X026606Y03239D01*
X026502Y032403D01*
X026502Y032403D01*
X023069D01*
X023059Y032453D01*
X023175Y032501D01*
X023284Y032586D01*
X023369Y032695D01*
X023421Y032823D01*
X02344Y03296D01*
X023421Y033097D01*
X023369Y033225D01*
X023284Y033334D01*
X023175Y033419D01*
X023047Y033471D01*
X02291Y03349D01*
X022773Y033471D01*
X022645Y033419D01*
X022536Y033334D01*
X022451Y033225D01*
X022399Y033097D01*
X02238Y03296D01*
X022399Y032823D01*
X022451Y032695D01*
X022536Y032586D01*
X022645Y032501D01*
X022761Y032453D01*
X022751Y032403D01*
X022114D01*
X021953Y032564D01*
Y03435D01*
X021953Y03435D01*
X02194Y034454D01*
X021899Y034552D01*
X021835Y034635D01*
X021835Y034635D01*
X021047Y035424D01*
Y035625D01*
D02*
G37*
G36*
X03325Y029498D02*
Y029403D01*
X033282Y029408D01*
X033321Y029418D01*
X03336Y029432D01*
X033399Y029451D01*
X03342Y029462D01*
X033327Y029491D01*
X03325Y029498D01*
D02*
G37*
G36*
X033812Y02907D02*
X033801Y029049D01*
X033782Y02901D01*
X033768Y028971D01*
X033758Y028932D01*
X033753Y0289D01*
X033848D01*
X033841Y028977D01*
X033812Y02907D01*
D02*
G37*
G36*
X03325Y029355D02*
Y0289D01*
X033705D01*
X03325Y029355D01*
D02*
G37*
G36*
X03315Y029498D02*
X033073Y029491D01*
X03295Y029453D01*
X032837Y029393D01*
X032738Y029312D01*
X032657Y029213D01*
X032597Y0291D01*
X032559Y028977D01*
X032552Y0289D01*
X03315D01*
Y029498D01*
D02*
G37*
G36*
X028554Y029143D02*
X028448D01*
Y028833D01*
X028684D01*
Y029013D01*
X028674Y029063D01*
X028646Y029105D01*
X028604Y029134D01*
X028554Y029143D01*
D02*
G37*
G36*
X028348D02*
X028243D01*
X028193Y029134D01*
X028151Y029105D01*
X028123Y029063D01*
X028117Y029035D01*
X028233Y029038D01*
Y028833D01*
X028348D01*
Y029143D01*
D02*
G37*
G36*
X028684Y028733D02*
X028448D01*
Y028423D01*
X028554D01*
X028604Y028433D01*
X028646Y028461D01*
X028674Y028503D01*
X028684Y028553D01*
Y028733D01*
D02*
G37*
G36*
X028348D02*
X028233D01*
Y028528D01*
X028228Y028527D01*
X028213Y028527D01*
X028118Y028527D01*
X028123Y028503D01*
X028151Y028461D01*
X028193Y028433D01*
X028243Y028423D01*
X028348D01*
Y028733D01*
D02*
G37*
G36*
X026025Y028654D02*
X02595D01*
Y02835D01*
X026254D01*
Y028425D01*
X026237Y028513D01*
X026187Y028587D01*
X026113Y028637D01*
X026025Y028654D01*
D02*
G37*
G36*
X02585D02*
X025775D01*
X025687Y028637D01*
X025613Y028587D01*
X025563Y028513D01*
X025546Y028425D01*
Y02835D01*
X02585D01*
Y028654D01*
D02*
G37*
G36*
X019275Y028547D02*
X01895D01*
Y0283D01*
X019275D01*
Y028547D01*
D02*
G37*
G36*
X01885D02*
X018525D01*
Y0283D01*
X01885D01*
Y028547D01*
D02*
G37*
G36*
X033848Y0288D02*
X03325D01*
Y028202D01*
X033327Y028209D01*
X03345Y028247D01*
X033563Y028307D01*
X033662Y028388D01*
X033743Y028487D01*
X033803Y0286D01*
X033841Y028723D01*
X033848Y0288D01*
D02*
G37*
G36*
X03315D02*
X032552D01*
X032559Y028723D01*
X032597Y0286D01*
X032657Y028487D01*
X032738Y028388D01*
X032837Y028307D01*
X03295Y028247D01*
X033073Y028209D01*
X03315Y028202D01*
Y0288D01*
D02*
G37*
G36*
X019275Y0282D02*
X01895D01*
Y027953D01*
X019275D01*
Y0282D01*
D02*
G37*
G36*
X01885D02*
X018525D01*
Y027953D01*
X01885D01*
Y0282D01*
D02*
G37*
G36*
X026254Y02825D02*
X02595D01*
Y027946D01*
X026025D01*
X026113Y027963D01*
X026187Y028013D01*
X026237Y028087D01*
X026254Y028175D01*
Y02825D01*
D02*
G37*
G36*
X02585D02*
X025546D01*
Y028175D01*
X025563Y028087D01*
X025613Y028013D01*
X025687Y027963D01*
X025775Y027946D01*
X02585D01*
Y02825D01*
D02*
G37*
G36*
X028213Y027241D02*
X028225Y027218D01*
X028262Y027158D01*
X028304Y027097D01*
X028351Y027037D01*
X02795D01*
Y02635D01*
X028495D01*
Y0269D01*
X028483Y026991D01*
X028448Y027075D01*
X028393Y027147D01*
X028321Y027203D01*
X028236Y027238D01*
X028213Y027241D01*
D02*
G37*
G36*
X02755Y027232D02*
X027479Y027203D01*
X027407Y027147D01*
X027352Y027075D01*
X027317Y026991D01*
X027305Y0269D01*
Y02635D01*
X02785D01*
Y027037D01*
X027449D01*
X027479Y027077D01*
X027505Y027121D01*
X027528Y02717D01*
X027548Y027224D01*
X02755Y027232D01*
D02*
G37*
G36*
X016759Y025245D02*
X016459D01*
Y024945D01*
X016759D01*
Y025245D01*
D02*
G37*
G36*
X016359D02*
X016059D01*
Y024945D01*
X016359D01*
Y025245D01*
D02*
G37*
G36*
X013472Y024565D02*
X013107D01*
Y0242D01*
X013472D01*
Y024565D01*
D02*
G37*
G36*
Y0241D02*
X013107D01*
Y023735D01*
X013472D01*
Y0241D01*
D02*
G37*
%LPD*%
G36*
X019606Y035D02*
X019604Y035019D01*
X019598Y035036D01*
X019587Y035051D01*
X019573Y035064D01*
X019555Y035075D01*
X019533Y035084D01*
X019507Y035091D01*
X019477Y035096D01*
X019443Y035099D01*
X019404Y0351D01*
Y0353D01*
X019443Y035301D01*
X019477Y035304D01*
X019507Y035309D01*
X019533Y035316D01*
X019555Y035325D01*
X019573Y035336D01*
X019587Y035349D01*
X019598Y035364D01*
X019604Y035381D01*
X019606Y0354D01*
Y035D01*
D02*
G37*
G36*
X018625Y035381D02*
X018631Y035364D01*
X018641Y035349D01*
X018655Y035336D01*
X018673Y035325D01*
X018695Y035316D01*
X018721Y035309D01*
X018751Y035304D01*
X018786Y035301D01*
X018824Y0353D01*
Y0351D01*
X018786Y035099D01*
X018751Y035096D01*
X018721Y035091D01*
X018695Y035084D01*
X018673Y035075D01*
X018655Y035064D01*
X018641Y035051D01*
X018631Y035036D01*
X018625Y035019D01*
X018623Y035D01*
Y0354D01*
X018625Y035381D01*
D02*
G37*
G36*
X01462Y031501D02*
X014579Y031498D01*
X014467Y031497D01*
X014451Y031499D01*
X014441Y031502D01*
X014435Y031506D01*
X014434Y031512D01*
X014439Y031518D01*
X014368Y031589D01*
X014362Y031584D01*
X014356Y031585D01*
X014352Y031591D01*
X014349Y031601D01*
X014347Y031617D01*
X014345Y031637D01*
X014346Y031694D01*
X014351Y03177D01*
X01462Y031501D01*
D02*
G37*
G36*
X017887Y032D02*
X017907Y031954D01*
X017448Y031453D01*
X016948D01*
X0164Y031953D01*
X016419Y032003D01*
X017887Y032D01*
D02*
G37*
G36*
X021698Y032603D02*
X022298Y032003D01*
X021698Y031403D01*
X021398Y031403D01*
X020798Y032003D01*
X020899Y032104D01*
X021398Y032603D01*
X021698Y032603D01*
D02*
G37*
G36*
X024148Y031252D02*
X024D01*
X023398Y031803D01*
Y032D01*
X024148D01*
Y031252D01*
D02*
G37*
G36*
X01412Y031265D02*
X014126Y031258D01*
X014133Y031252D01*
X014141Y031246D01*
X014151Y031242D01*
X014163Y031238D01*
X014176Y031236D01*
X01419Y031233D01*
X014206Y031232D01*
X014223Y031232D01*
Y031132D01*
X014206Y031131D01*
X01419Y03113D01*
X014176Y031128D01*
X014163Y031125D01*
X014151Y031122D01*
X014141Y031117D01*
X014133Y031112D01*
X014126Y031106D01*
X01412Y031099D01*
X014116Y031092D01*
Y031272D01*
X01412Y031265D01*
D02*
G37*
G36*
X016352Y03078D02*
X016324Y030748D01*
X0163Y030717D01*
X016279Y030685D01*
X016261Y030653D01*
X016246Y030621D01*
X016235Y030589D01*
X016227Y030557D01*
X016222Y030525D01*
X01622Y030494D01*
X01602D01*
X016018Y030525D01*
X016013Y030557D01*
X016005Y030589D01*
X015994Y030621D01*
X015979Y030653D01*
X015962Y030685D01*
X01594Y030717D01*
X015916Y030748D01*
X015888Y03078D01*
X015857Y030812D01*
X016382D01*
X016352Y03078D01*
D02*
G37*
G36*
X031798Y028425D02*
X029898D01*
X029898Y029503D01*
X031798D01*
X031798Y028425D01*
D02*
G37*
G36*
X024375Y027506D02*
X024381Y027489D01*
X024391Y027474D01*
X024405Y027461D01*
X024423Y02745D01*
X024445Y027441D01*
X024471Y027434D01*
X024501Y027429D01*
X024536Y027426D01*
X024574Y027425D01*
Y027225D01*
X024536Y027224D01*
X024472Y027219D01*
X024446Y027214D01*
X024424Y027207D01*
X024406Y0272D01*
X024392Y02719D01*
X024382Y02718D01*
X024376Y027168D01*
X024374Y027154D01*
X024373Y027525D01*
X024375Y027506D01*
D02*
G37*
G36*
X023826Y027154D02*
X023824Y027173D01*
X023818Y027189D01*
X023808Y027203D01*
X023794Y027216D01*
X023776Y027226D01*
X023754Y027235D01*
X023728Y027241D01*
X023698Y027246D01*
X023664Y027249D01*
X023626Y02725D01*
Y02745D01*
X023664Y027451D01*
X023698Y027454D01*
X023728Y027459D01*
X023754Y027465D01*
X023776Y027474D01*
X023794Y027484D01*
X023808Y027497D01*
X023818Y027511D01*
X023824Y027527D01*
X023826Y027546D01*
Y027154D01*
D02*
G37*
G36*
X022626Y027527D02*
X022632Y027511D01*
X022642Y027497D01*
X022656Y027484D01*
X022674Y027474D01*
X022696Y027465D01*
X022722Y027459D01*
X022752Y027454D01*
X022786Y027451D01*
X022824Y02745D01*
Y02725D01*
X022786Y027249D01*
X022752Y027246D01*
X022722Y027241D01*
X022696Y027235D01*
X022674Y027226D01*
X022656Y027216D01*
X022642Y027203D01*
X022632Y027189D01*
X022626Y027173D01*
X022624Y027154D01*
Y027546D01*
X022626Y027527D01*
D02*
G37*
G36*
X019081Y027154D02*
X019064Y027148D01*
X019049Y027137D01*
X019036Y027123D01*
X019025Y027105D01*
X019016Y027083D01*
X019009Y027057D01*
X019004Y027027D01*
X019001Y026993D01*
X019Y026954D01*
X0188D01*
X018799Y026993D01*
X018796Y027027D01*
X018791Y027057D01*
X018784Y027083D01*
X018775Y027105D01*
X018764Y027123D01*
X018751Y027137D01*
X018736Y027148D01*
X018719Y027154D01*
X0187Y027156D01*
X0191D01*
X019081Y027154D01*
D02*
G37*
G36*
X029998Y027403D02*
X031148D01*
X031148Y025703D01*
X030909Y025464D01*
X030917Y025457D01*
X030908Y025463D01*
X030098Y024653D01*
X029598D01*
X0293Y024952D01*
X0293Y028102D01*
X029998Y027403D01*
D02*
G37*
G36*
X029757Y028366D02*
X02979Y028317D01*
X02984Y028284D01*
X029898Y028272D01*
X031339D01*
X033097Y026514D01*
Y021372D01*
X032628Y020903D01*
X031168D01*
X031107Y020965D01*
X031123Y021012D01*
X03117Y021018D01*
X031285Y021066D01*
X031384Y021142D01*
X031461Y021241D01*
X031508Y021357D01*
X031525Y021481D01*
Y021731D01*
X031508Y021855D01*
X031461Y021971D01*
X031384Y02207D01*
X031285Y022146D01*
X03117Y022194D01*
X031046Y02221D01*
X030941Y022196D01*
X028852Y024285D01*
X028769Y024341D01*
X028672Y02436D01*
X022277D01*
X022271Y02436D01*
Y024502D01*
X029592D01*
X029598Y0245D01*
X030098D01*
X030157Y024512D01*
X030207Y024545D01*
X030972Y02531D01*
X030999Y025314D01*
X031096Y025354D01*
X031179Y025417D01*
X031242Y0255D01*
X031282Y025596D01*
X031288Y025642D01*
X03129Y025645D01*
X031301Y025703D01*
X031301Y027403D01*
X03129Y027462D01*
X031257Y027511D01*
X031207Y027545D01*
X031148Y027556D01*
X030502D01*
X030498Y027557D01*
X030498Y027557D01*
X030061D01*
X029703Y027914D01*
Y02838D01*
X029753Y028385D01*
X029757Y028366D01*
D02*
G37*
G36*
X02212Y024286D02*
X022126Y024269D01*
X022136Y024254D01*
X02215Y024241D01*
X022168Y02423D01*
X022191Y024221D01*
X022217Y024214D01*
X022247Y024209D01*
X022281Y024206D01*
X022319Y024205D01*
Y024005D01*
X022281Y024004D01*
X022247Y024001D01*
X022217Y023996D01*
X022191Y023989D01*
X022168Y02398D01*
X02215Y023969D01*
X022136Y023956D01*
X022126Y023941D01*
X02212Y023924D01*
X022118Y023905D01*
Y024305D01*
X02212Y024286D01*
D02*
G37*
G36*
X016658D02*
X016664Y024269D01*
X016674Y024254D01*
X016688Y024241D01*
X016707Y02423D01*
X016729Y024221D01*
X016755Y024214D01*
X016785Y024209D01*
X016819Y024206D01*
X016858Y024205D01*
Y024005D01*
X016819Y024004D01*
X016785Y024001D01*
X016755Y023996D01*
X016729Y023989D01*
X016707Y02398D01*
X016688Y023969D01*
X016674Y023956D01*
X016664Y023941D01*
X016658Y023924D01*
X016656Y023905D01*
Y024305D01*
X016658Y024286D01*
D02*
G37*
G36*
X02212Y023506D02*
X022126Y023489D01*
X022136Y023474D01*
X02215Y023461D01*
X022168Y02345D01*
X022191Y023441D01*
X022217Y023434D01*
X022247Y023429D01*
X022281Y023426D01*
X022319Y023425D01*
Y023225D01*
X022281Y023224D01*
X022247Y023221D01*
X022217Y023216D01*
X022191Y023209D01*
X022168Y0232D01*
X02215Y023189D01*
X022136Y023176D01*
X022126Y023161D01*
X02212Y023144D01*
X022118Y023125D01*
Y023525D01*
X02212Y023506D01*
D02*
G37*
G36*
X016658D02*
X016664Y023489D01*
X016674Y023474D01*
X016688Y023461D01*
X016707Y02345D01*
X016729Y023441D01*
X016755Y023434D01*
X016785Y023429D01*
X016819Y023426D01*
X016858Y023425D01*
Y023225D01*
X016819Y023224D01*
X016785Y023221D01*
X016755Y023216D01*
X016729Y023209D01*
X016707Y0232D01*
X016688Y023189D01*
X016674Y023176D01*
X016664Y023161D01*
X016658Y023144D01*
X016656Y023125D01*
Y023525D01*
X016658Y023506D01*
D02*
G37*
G36*
X016161Y022391D02*
X016159Y02241D01*
X016153Y022427D01*
X016143Y022442D01*
X016129Y022455D01*
X016111Y022466D01*
X016089Y022475D01*
X016062Y022482D01*
X016032Y022487D01*
X015998Y02249D01*
X01596Y022491D01*
Y022691D01*
X015998Y022692D01*
X016032Y022695D01*
X016062Y0227D01*
X016088Y022706D01*
X01611Y022714D01*
X016128Y022725D01*
X016142Y022737D01*
X016152Y02275D01*
X016158Y022766D01*
X01616Y022784D01*
X016161Y022391D01*
D02*
G37*
G36*
X02212Y022706D02*
X022126Y022689D01*
X022136Y022674D01*
X02215Y022661D01*
X022168Y02265D01*
X022191Y022641D01*
X022217Y022634D01*
X022247Y022629D01*
X022281Y022626D01*
X022319Y022625D01*
Y022425D01*
X022281Y022424D01*
X022247Y022421D01*
X022217Y022416D01*
X022191Y022409D01*
X022168Y0224D01*
X02215Y022389D01*
X022136Y022376D01*
X022126Y022361D01*
X02212Y022344D01*
X022118Y022325D01*
Y022725D01*
X02212Y022706D01*
D02*
G37*
G36*
X021174Y022046D02*
X020626D01*
X020631Y022051D01*
X020635Y022066D01*
X020638Y022091D01*
X020641Y022126D01*
X020649Y022366D01*
X02065Y022546D01*
X02115D01*
X021174Y022046D01*
D02*
G37*
G36*
X028792Y022127D02*
X028855Y022076D01*
X028883Y022057D01*
X02891Y022044D01*
X028933Y022035D01*
X028955Y022032D01*
X028975Y022033D01*
X028992Y02204D01*
X029007Y022051D01*
X028725Y02177D01*
X028737Y021785D01*
X028743Y021802D01*
X028745Y021822D01*
X028741Y021843D01*
X028733Y021867D01*
X02872Y021893D01*
X028701Y021922D01*
X028678Y021952D01*
X028649Y021985D01*
X028616Y02202D01*
X028757Y022161D01*
X028792Y022127D01*
D02*
G37*
G36*
X02212Y021936D02*
X022126Y021919D01*
X022136Y021904D01*
X02215Y021891D01*
X022168Y02188D01*
X022191Y021871D01*
X022217Y021864D01*
X022247Y021859D01*
X022281Y021856D01*
X022319Y021855D01*
Y021655D01*
X022281Y021654D01*
X022247Y021651D01*
X022217Y021646D01*
X022191Y021639D01*
X022168Y02163D01*
X02215Y021619D01*
X022136Y021606D01*
X022126Y021591D01*
X02212Y021574D01*
X022118Y021555D01*
Y021955D01*
X02212Y021936D01*
D02*
G37*
G36*
X016161Y021545D02*
X016159Y021564D01*
X016153Y021581D01*
X016143Y021596D01*
X016129Y021609D01*
X016111Y02162D01*
X016089Y021629D01*
X016063Y021636D01*
X016032Y021641D01*
X015998Y021644D01*
X01596Y021645D01*
Y021845D01*
X015998Y021846D01*
X016032Y021849D01*
X016063Y021854D01*
X016089Y021861D01*
X016111Y02187D01*
X016129Y021881D01*
X016143Y021894D01*
X016153Y021909D01*
X016159Y021926D01*
X016161Y021945D01*
Y021545D01*
D02*
G37*
G36*
Y020755D02*
X016159Y020774D01*
X016153Y020791D01*
X016143Y020806D01*
X016129Y020819D01*
X016111Y02083D01*
X016089Y020839D01*
X016063Y020846D01*
X016032Y020851D01*
X015998Y020854D01*
X01596Y020855D01*
Y021055D01*
X015998Y021056D01*
X016032Y021059D01*
X016063Y021064D01*
X016089Y021071D01*
X016111Y02108D01*
X016129Y021091D01*
X016143Y021104D01*
X016153Y021119D01*
X016159Y021136D01*
X016161Y021155D01*
Y020755D01*
D02*
G37*
G36*
X021176Y021128D02*
X021182Y021112D01*
X021192Y021098D01*
X021206Y021086D01*
X021224Y021076D01*
X021246Y021067D01*
X021272Y021061D01*
X021302Y021056D01*
X021336Y021053D01*
X021374Y021053D01*
Y020853D01*
X021336Y020852D01*
X021302Y020849D01*
X021272Y020844D01*
X021246Y020837D01*
X021224Y020828D01*
X021206Y020817D01*
X021192Y020804D01*
X021182Y02079D01*
X021176Y020773D01*
X021174Y020754D01*
Y021146D01*
X021176Y021128D01*
D02*
G37*
G36*
X021623Y020753D02*
X021621Y020772D01*
X021615Y020789D01*
X021605Y020804D01*
X021591Y020817D01*
X021573Y020828D01*
X02155Y020837D01*
X021524Y020844D01*
X021494Y020849D01*
X02146Y020852D01*
X021422Y020853D01*
Y021053D01*
X02146Y021054D01*
X021494Y021057D01*
X021524Y021062D01*
X02155Y021069D01*
X021573Y021078D01*
X021591Y021089D01*
X021605Y021102D01*
X021615Y021117D01*
X021621Y021134D01*
X021623Y021153D01*
Y020753D01*
D02*
G37*
G36*
X02212Y020386D02*
X022126Y020369D01*
X022136Y020354D01*
X02215Y020341D01*
X022168Y02033D01*
X022191Y020321D01*
X022217Y020314D01*
X022247Y020309D01*
X022281Y020306D01*
X022319Y020305D01*
Y020105D01*
X022281Y020104D01*
X022247Y020101D01*
X022217Y020096D01*
X022191Y020089D01*
X022168Y02008D01*
X02215Y020069D01*
X022136Y020056D01*
X022126Y020041D01*
X02212Y020024D01*
X022118Y020005D01*
Y020405D01*
X02212Y020386D01*
D02*
G37*
G36*
X016161Y019975D02*
X016159Y019994D01*
X016153Y020011D01*
X016143Y020026D01*
X016129Y020039D01*
X016111Y02005D01*
X016089Y020059D01*
X016063Y020066D01*
X016032Y020071D01*
X015998Y020074D01*
X01596Y020075D01*
Y020275D01*
X015998Y020276D01*
X016032Y020279D01*
X016063Y020284D01*
X016089Y020291D01*
X016111Y0203D01*
X016129Y020311D01*
X016143Y020324D01*
X016153Y020339D01*
X016159Y020356D01*
X016161Y020375D01*
Y019975D01*
D02*
G37*
G36*
X021623Y019185D02*
X021621Y019204D01*
X021615Y019221D01*
X021605Y019236D01*
X021591Y019249D01*
X021573Y01926D01*
X02155Y019269D01*
X021524Y019276D01*
X021494Y019281D01*
X02146Y019284D01*
X021422Y019285D01*
Y019485D01*
X02146Y019486D01*
X021494Y019489D01*
X021524Y019494D01*
X02155Y019501D01*
X021573Y01951D01*
X021591Y019521D01*
X021605Y019534D01*
X021615Y019549D01*
X021621Y019566D01*
X021623Y019585D01*
Y019185D01*
D02*
G37*
G36*
X016161D02*
X016159Y019204D01*
X016153Y019221D01*
X016143Y019236D01*
X016129Y019249D01*
X016111Y01926D01*
X016089Y019269D01*
X016063Y019276D01*
X016032Y019281D01*
X015998Y019284D01*
X01596Y019285D01*
Y019485D01*
X015998Y019486D01*
X016032Y019489D01*
X016063Y019494D01*
X016089Y019501D01*
X016111Y01951D01*
X016129Y019521D01*
X016143Y019534D01*
X016153Y019549D01*
X016159Y019566D01*
X016161Y019585D01*
Y019185D01*
D02*
G37*
%LPC*%
G36*
X032471Y022156D02*
X032096D01*
Y021656D01*
X032471D01*
Y022156D01*
D02*
G37*
G36*
X031996D02*
X031621D01*
Y021656D01*
X031996D01*
Y022156D01*
D02*
G37*
G36*
X032471Y021556D02*
X032096D01*
Y021056D01*
X032471D01*
Y021556D01*
D02*
G37*
G36*
X031996D02*
X031621D01*
Y021056D01*
X031996D01*
Y021556D01*
D02*
G37*
%LPD*%
D10*
X014067Y031182D02*
Y031535D01*
X014049Y031553D02*
X014403D01*
X013694D02*
X014049D01*
X014067Y031535D01*
X014403Y031553D02*
X0146Y03175D01*
X013522Y031381D02*
X013694Y031553D01*
X013233Y030967D02*
Y031182D01*
Y030967D02*
X0134Y0308D01*
X013522Y031182D02*
Y031381D01*
X01432Y031182D02*
X014448Y031053D01*
Y030207D02*
Y031053D01*
X014341Y0301D02*
X014448Y030207D01*
X014067Y031182D02*
X01432D01*
X01295Y032D02*
X013Y03205D01*
X01295Y031506D02*
Y032D01*
Y031506D02*
X013266Y03119D01*
Y031182D02*
Y03119D01*
X01375Y0308D02*
X013778Y030828D01*
Y031182D01*
X01375Y0308D02*
X0139D01*
X0134D02*
X01375D01*
X0139D02*
X014034Y030666D01*
Y030418D02*
Y030666D01*
X01395Y0301D02*
X014341D01*
X013817Y030233D02*
X01395Y0301D01*
X013817Y030233D02*
Y03038D01*
X013778Y030418D02*
X013817Y03038D01*
X013522Y030078D02*
X0137Y0299D01*
X013522Y030078D02*
Y030418D01*
X01275Y03025D02*
X012918Y030418D01*
X013233D01*
D19*
X02805Y0337D02*
D03*
X0308Y0337D02*
D03*
X0279Y0263D02*
D03*
X03065Y0263D02*
D03*
D20*
X028398Y028783D02*
D03*
X0293D02*
D03*
X030202D02*
D03*
D21*
X0293Y031417D02*
D03*
D22*
X0209Y02095D02*
D03*
Y02185D02*
D03*
X0241Y02735D02*
D03*
Y02825D02*
D03*
X02235Y02735D02*
D03*
Y02825D02*
D03*
X0172Y02735D02*
D03*
Y02825D02*
D03*
X0206Y02735D02*
D03*
Y02825D02*
D03*
X01365Y02825D02*
D03*
Y02735D02*
D03*
X01545Y02825D02*
D03*
Y02735D02*
D03*
X0189Y02735D02*
D03*
Y02825D02*
D03*
D23*
X0259Y0283D02*
D03*
Y0273D02*
D03*
D24*
X0198Y0352D02*
D03*
X0207D02*
D03*
D25*
X013266Y031182D02*
D03*
X014034D02*
D03*
X013778D02*
D03*
X013522D02*
D03*
X013266Y030418D02*
D03*
X014034D02*
D03*
X013778D02*
D03*
X013522D02*
D03*
D43*
X03055Y025796D02*
Y027102D01*
X014804Y031954D02*
X021504D01*
X0146Y03175D02*
X014804Y031954D01*
X021504D02*
X02155Y032D01*
X026502D02*
X0293Y029202D01*
Y028783D02*
Y029202D01*
X024598Y032D02*
X026502D01*
X0293Y027456D02*
Y028783D01*
Y027456D02*
X029603Y027153D01*
X030498D01*
X02155Y032D02*
X024598D01*
X02155D02*
Y03435D01*
X0241Y031502D02*
X024598Y032D01*
X0241Y02825D02*
Y031502D01*
X030498Y027153D02*
X03055Y027102D01*
X0335Y021205D02*
Y026681D01*
X032795Y0205D02*
X0335Y021205D01*
X031001Y0205D02*
X032795D01*
X030046Y021456D02*
X031001Y0205D01*
X030046Y021456D02*
Y021606D01*
X027153Y028597D02*
X027332Y028775D01*
X026856Y0283D02*
X027153Y028597D01*
X027854Y027896D01*
Y026346D02*
Y027896D01*
Y026346D02*
X0279Y0263D01*
X028391Y028775D02*
X028398Y028783D01*
X027332Y028775D02*
X028391D01*
X0259Y0283D02*
X026856D01*
X02905Y0353D02*
X0327D01*
X028292Y034296D02*
Y034542D01*
X02905Y0353D01*
X021871Y024905D02*
X029659D01*
X03055Y025796D01*
X0332Y02885D02*
X03425Y0299D01*
X0327Y0353D02*
X03425Y03375D01*
Y0299D02*
Y03375D01*
X032Y0337D02*
X0332Y0325D01*
Y03085D02*
Y0325D01*
X0308Y0337D02*
X032D01*
X02805Y034054D02*
X028292Y034296D01*
X02805Y0337D02*
Y034054D01*
X016885Y033735D02*
X019597D01*
X01615Y033D02*
X016885Y033735D01*
X019597D02*
X020332Y033D01*
X0204D01*
X018Y027488D02*
X018709Y028197D01*
X018Y02555D02*
Y027488D01*
X017345Y024895D02*
X018Y02555D01*
X016409Y024895D02*
X017345D01*
X0189Y028222D02*
Y02825D01*
X018875Y028197D02*
X0189Y028222D01*
X018709Y028197D02*
X018875D01*
X02155Y029228D02*
Y032D01*
X0172Y0319D02*
X01725Y03195D01*
X0172Y02825D02*
Y0319D01*
X0207Y0352D02*
X02155Y03435D01*
X0206Y028278D02*
X02155Y029228D01*
X0206Y02825D02*
Y028278D01*
X013Y03205D02*
X01395Y033D01*
X01615D01*
X0308Y029381D02*
X0335Y026681D01*
X0308Y029381D02*
Y0337D01*
X030202Y028783D02*
X0308Y029381D01*
X021605Y024905D02*
X021871D01*
X0209Y0242D02*
X021605Y024905D01*
X0209Y02185D02*
Y0242D01*
D44*
X020767Y019385D02*
X021871D01*
X0202Y019952D02*
X020767Y019385D01*
X0202Y019952D02*
Y0252D01*
X021871Y024105D02*
X028672D01*
X031046Y021731D01*
Y021606D02*
Y021731D01*
X021871Y023325D02*
X027452D01*
X029046Y021731D01*
Y021606D02*
Y021731D01*
X027127Y022525D02*
X028046Y021606D01*
X021871Y022525D02*
X027127D01*
X01835Y0352D02*
X0198D01*
X0183Y03515D02*
X01835Y0352D01*
X022945Y021755D02*
X025Y0197D01*
X021871Y021755D02*
X022945D01*
X0202Y0252D02*
X022175Y027175D01*
Y027253D01*
X022272Y02735D01*
X02235D01*
X021868Y020953D02*
X021871Y020955D01*
X020902Y020953D02*
X021868D01*
X0209Y02095D02*
X020902Y020953D01*
X01955Y02455D02*
Y0264D01*
X018325Y023325D02*
X01955Y02455D01*
X016409Y023325D02*
X018325D01*
X0205Y02735D02*
X0206D01*
X01955Y0264D02*
X0205Y02735D01*
X023495Y020205D02*
X024Y0197D01*
X021871Y020205D02*
X023495D01*
X0241Y02735D02*
X024125Y027325D01*
X025875D01*
X0259Y0273D01*
X02235Y02735D02*
X0241D01*
X022525Y028425D02*
X02285Y02875D01*
X022525Y028347D02*
Y028425D01*
X022428Y02825D02*
X022525Y028347D01*
X02235Y02825D02*
X022428D01*
X02285Y02875D02*
Y03105D01*
X0189Y0246D02*
Y02735D01*
X018405Y024105D02*
X0189Y0246D01*
X016409Y024105D02*
X018405D01*
X0137Y0299D02*
X01535Y02825D01*
X01545D01*
X0127Y0302D02*
X01275Y03025D01*
X0127Y029122D02*
Y0302D01*
Y029122D02*
X013572Y02825D01*
X01365D01*
X01545Y023D02*
Y025678D01*
X017122Y02735D01*
X0172D01*
X01612Y02833D02*
Y03108D01*
Y02833D02*
X0171Y02735D01*
X01545Y023D02*
X015859Y022591D01*
X016352D01*
X016409Y022535D01*
X01475Y026778D02*
X015322Y02735D01*
X01475Y022675D02*
Y026778D01*
Y022675D02*
X01568Y021745D01*
X015322Y02735D02*
X01545D01*
X01568Y021745D02*
X016409D01*
X015645Y020955D02*
X016409D01*
X0141Y0225D02*
X015645Y020955D01*
X0141Y0225D02*
Y026978D01*
X013728Y02735D02*
X0141Y026978D01*
X01365Y02735D02*
X013728D01*
X013522Y02215D02*
X015497Y020175D01*
X016409D01*
X013522Y02115D02*
X015287Y019385D01*
X016409D01*
X0183Y03515D02*
X018389Y035061D01*
D45*
X029046Y021606D02*
D03*
X030046D02*
D03*
X031046D02*
D03*
X028046D02*
D03*
D46*
X032046D02*
D03*
D47*
X0332Y02885D02*
D03*
Y03085D02*
D03*
D48*
X0183Y03515D02*
D03*
D49*
X0173D02*
D03*
D50*
X02291Y03296D02*
D03*
X02037Y03108D02*
D03*
X0204Y033D02*
D03*
X02285Y03105D02*
D03*
X01866Y03296D02*
D03*
X01612Y03108D02*
D03*
X01615Y033D02*
D03*
X0186Y03105D02*
D03*
D51*
X021871Y020205D02*
D03*
Y020955D02*
D03*
Y021755D02*
D03*
Y022525D02*
D03*
Y023325D02*
D03*
Y024105D02*
D03*
Y024905D02*
D03*
Y019385D02*
D03*
X016409D02*
D03*
Y020175D02*
D03*
Y020955D02*
D03*
Y021745D02*
D03*
Y023325D02*
D03*
Y024105D02*
D03*
Y024895D02*
D03*
Y022535D02*
D03*
D52*
X013522Y02415D02*
D03*
D53*
Y02315D02*
D03*
Y02215D02*
D03*
Y02115D02*
D03*
X025Y0197D02*
D03*
D54*
X024D02*
D03*
D55*
X01625Y0355D02*
D03*
X016Y035D02*
D03*
X01625Y0345D02*
D03*
X016Y034D02*
D03*
X01575Y0355D02*
D03*
X0155Y035D02*
D03*
X01575Y0345D02*
D03*
X0155Y034D02*
D03*
X01525Y0355D02*
D03*
X015Y035D02*
D03*
X01525Y0345D02*
D03*
X015Y034D02*
D03*
X01475Y0355D02*
D03*
X0145Y035D02*
D03*
X01475Y0345D02*
D03*
X0145Y034D02*
D03*
X0295Y0205D02*
D03*
X02975Y02D02*
D03*
X0295Y0195D02*
D03*
X029Y0205D02*
D03*
X02925Y02D02*
D03*
X029Y0195D02*
D03*
X0285Y0205D02*
D03*
X02875Y02D02*
D03*
X0285Y0195D02*
D03*
X028Y0205D02*
D03*
X02825Y02D02*
D03*
X028Y0195D02*
D03*
X0275Y0205D02*
D03*
X02775Y02D02*
D03*
X0275Y0195D02*
D03*
X027Y0205D02*
D03*
X02725Y02D02*
D03*
X027Y0195D02*
D03*
X0265Y0205D02*
D03*
X02675Y02D02*
D03*
X0265Y0195D02*
D03*
X026Y0205D02*
D03*
X02625Y02D02*
D03*
X026Y0195D02*
D03*
X02675Y03D02*
D03*
X0265Y0295D02*
D03*
X02675Y029D02*
D03*
X0265Y0285D02*
D03*
X02625Y03D02*
D03*
X026Y0295D02*
D03*
X02625Y029D02*
D03*
X02575Y03D02*
D03*
X0255Y0295D02*
D03*
X02575Y029D02*
D03*
X0255Y0285D02*
D03*
X02975Y0355D02*
D03*
X0295Y035D02*
D03*
X02975Y0345D02*
D03*
X0295Y034D02*
D03*
X02975Y0335D02*
D03*
X0295Y033D02*
D03*
X02925Y0355D02*
D03*
X029Y035D02*
D03*
X02925Y0345D02*
D03*
X029Y034D02*
D03*
X02925Y0335D02*
D03*
X029Y033D02*
D03*
X02875Y0355D02*
D03*
X0285Y035D02*
D03*
X02875Y0345D02*
D03*
Y0335D02*
D03*
X02825Y0355D02*
D03*
X028Y035D02*
D03*
X02775Y0355D02*
D03*
X0275Y035D02*
D03*
X02725Y0355D02*
D03*
X027Y035D02*
D03*
X02725Y0345D02*
D03*
X027Y034D02*
D03*
X02725Y0335D02*
D03*
X027Y033D02*
D03*
X02675Y0355D02*
D03*
X0265Y035D02*
D03*
X02675Y0345D02*
D03*
X0265Y034D02*
D03*
X02675Y0335D02*
D03*
X0265Y033D02*
D03*
D56*
X014648Y0319D02*
D03*
X014898Y031853D02*
D03*
X014804Y032103D02*
D03*
D57*
X0279Y02625D02*
D03*
D58*
X024798Y034516D02*
D03*
X03425Y03555D02*
D03*
Y0194D02*
D03*
X0129D02*
D03*
X01295Y03555D02*
D03*
M02*
