G04*
G04 #@! TF.GenerationSoftware,Altium Limited,Altium Designer,19.0.15 (446)*
G04*
G04 Layer_Color=2752767*
%FSTAX24Y24*%
%MOIN*%
G70*
G01*
G75*
%ADD10C,0.0100*%
%ADD17C,0.0050*%
%ADD18C,0.0040*%
%ADD61C,0.0067*%
D10*
X01219Y0363D02*
X035D01*
X01219Y01865D02*
Y0363D01*
X035Y01865D02*
Y0363D01*
X01219Y01865D02*
X035D01*
D17*
X028846Y021406D02*
Y021806D01*
X029246D01*
Y021406D01*
X028846D01*
X029846D02*
Y021806D01*
X030246D01*
Y021406D01*
X029846D01*
X030846D02*
Y021806D01*
X031246D01*
Y021406D01*
X030846D01*
X031846D02*
Y021806D01*
X032246D01*
Y021406D01*
X031846D01*
X027846D02*
Y021806D01*
X028246D01*
Y021406D01*
X027846D01*
X0183Y03495D02*
X0181Y03535D01*
X0185D01*
X0183Y03495D01*
X0173D02*
X0171Y03535D01*
X0175D01*
X0173Y03495D01*
X02291Y03276D02*
X02301Y03286D01*
X02311D01*
X02301Y03296D01*
X02311Y03306D01*
X02301D01*
X02291Y03316D01*
X02281Y03306D01*
X02271D01*
X02281Y03296D01*
X02271Y03286D01*
X02281D01*
X02291Y03276D01*
X02037Y03088D02*
X02047Y03098D01*
X02057D01*
X02047Y03108D01*
X02057Y03118D01*
X02047D01*
X02037Y03128D01*
X02027Y03118D01*
X02017D01*
X02027Y03108D01*
X02017Y03098D01*
X02027D01*
X02037Y03088D01*
X0204Y0328D02*
X0205Y0329D01*
X0206D01*
X0205Y033D01*
X0206Y0331D01*
X0205D01*
X0204Y0332D01*
X0203Y0331D01*
X0202D01*
X0203Y033D01*
X0202Y0329D01*
X0203D01*
X0204Y0328D01*
X02285Y03085D02*
X02295Y03095D01*
X02305D01*
X02295Y03105D01*
X02305Y03115D01*
X02295D01*
X02285Y03125D01*
X02275Y03115D01*
X02265D01*
X02275Y03105D01*
X02265Y03095D01*
X02275D01*
X02285Y03085D01*
X01866Y03276D02*
X01876Y03286D01*
X01886D01*
X01876Y03296D01*
X01886Y03306D01*
X01876D01*
X01866Y03316D01*
X01856Y03306D01*
X01846D01*
X01856Y03296D01*
X01846Y03286D01*
X01856D01*
X01866Y03276D01*
X01612Y03088D02*
X01622Y03098D01*
X01632D01*
X01622Y03108D01*
X01632Y03118D01*
X01622D01*
X01612Y03128D01*
X01602Y03118D01*
X01592D01*
X01602Y03108D01*
X01592Y03098D01*
X01602D01*
X01612Y03088D01*
X01615Y0328D02*
X01625Y0329D01*
X01635D01*
X01625Y033D01*
X01635Y0331D01*
X01625D01*
X01615Y0332D01*
X01605Y0331D01*
X01595D01*
X01605Y033D01*
X01595Y0329D01*
X01605D01*
X01615Y0328D01*
X0186Y03085D02*
X0187Y03095D01*
X0188D01*
X0187Y03105D01*
X0188Y03115D01*
X0187D01*
X0186Y03125D01*
X0185Y03115D01*
X0184D01*
X0185Y03105D01*
X0184Y03095D01*
X0185D01*
X0186Y03085D01*
X021671Y020005D02*
X021771Y020205D01*
X021671Y020405D01*
X021871Y020305D01*
X022071Y020405D01*
X021971Y020205D01*
X022071Y020005D01*
X021871Y020105D01*
X021671Y020005D01*
Y020755D02*
X021771Y020955D01*
X021671Y021155D01*
X021871Y021055D01*
X022071Y021155D01*
X021971Y020955D01*
X022071Y020755D01*
X021871Y020855D01*
X021671Y020755D01*
Y021555D02*
X021771Y021755D01*
X021671Y021955D01*
X021871Y021855D01*
X022071Y021955D01*
X021971Y021755D01*
X022071Y021555D01*
X021871Y021655D01*
X021671Y021555D01*
Y022325D02*
X021771Y022525D01*
X021671Y022725D01*
X021871Y022625D01*
X022071Y022725D01*
X021971Y022525D01*
X022071Y022325D01*
X021871Y022425D01*
X021671Y022325D01*
Y023125D02*
X021771Y023325D01*
X021671Y023525D01*
X021871Y023425D01*
X022071Y023525D01*
X021971Y023325D01*
X022071Y023125D01*
X021871Y023225D01*
X021671Y023125D01*
Y023905D02*
X021771Y024105D01*
X021671Y024305D01*
X021871Y024205D01*
X022071Y024305D01*
X021971Y024105D01*
X022071Y023905D01*
X021871Y024005D01*
X021671Y023905D01*
Y024705D02*
X021771Y024905D01*
X021671Y025105D01*
X021871Y025005D01*
X022071Y025105D01*
X021971Y024905D01*
X022071Y024705D01*
X021871Y024805D01*
X021671Y024705D01*
Y019185D02*
X021771Y019385D01*
X021671Y019585D01*
X021871Y019485D01*
X022071Y019585D01*
X021971Y019385D01*
X022071Y019185D01*
X021871Y019285D01*
X021671Y019185D01*
X016209D02*
X016309Y019385D01*
X016209Y019585D01*
X016409Y019485D01*
X016609Y019585D01*
X016509Y019385D01*
X016609Y019185D01*
X016409Y019285D01*
X016209Y019185D01*
Y019975D02*
X016309Y020175D01*
X016209Y020375D01*
X016409Y020275D01*
X016609Y020375D01*
X016509Y020175D01*
X016609Y019975D01*
X016409Y020075D01*
X016209Y019975D01*
Y020755D02*
X016309Y020955D01*
X016209Y021155D01*
X016409Y021055D01*
X016609Y021155D01*
X016509Y020955D01*
X016609Y020755D01*
X016409Y020855D01*
X016209Y020755D01*
Y021545D02*
X016309Y021745D01*
X016209Y021945D01*
X016409Y021845D01*
X016609Y021945D01*
X016509Y021745D01*
X016609Y021545D01*
X016409Y021645D01*
X016209Y021545D01*
Y023125D02*
X016309Y023325D01*
X016209Y023525D01*
X016409Y023425D01*
X016609Y023525D01*
X016509Y023325D01*
X016609Y023125D01*
X016409Y023225D01*
X016209Y023125D01*
Y023905D02*
X016309Y024105D01*
X016209Y024305D01*
X016409Y024205D01*
X016609Y024305D01*
X016509Y024105D01*
X016609Y023905D01*
X016409Y024005D01*
X016209Y023905D01*
Y024695D02*
X016309Y024895D01*
X016209Y025095D01*
X016409Y024995D01*
X016609Y025095D01*
X016509Y024895D01*
X016609Y024695D01*
X016409Y024795D01*
X016209Y024695D01*
Y022335D02*
X016309Y022535D01*
X016209Y022735D01*
X016409Y022635D01*
X016609Y022735D01*
X016509Y022535D01*
X016609Y022335D01*
X016409Y022435D01*
X016209Y022335D01*
X013422Y02405D02*
Y02395D01*
X013622D01*
Y02405D01*
X013722D01*
Y02425D01*
X013622D01*
Y02435D01*
X013422D01*
Y02425D01*
X013322D01*
Y02405D01*
X013422D01*
Y02305D02*
Y02295D01*
X013622D01*
Y02305D01*
X013722D01*
Y02325D01*
X013622D01*
Y02335D01*
X013422D01*
Y02325D01*
X013322D01*
Y02305D01*
X013422D01*
Y02205D02*
Y02195D01*
X013622D01*
Y02205D01*
X013722D01*
Y02225D01*
X013622D01*
Y02235D01*
X013422D01*
Y02225D01*
X013322D01*
Y02205D01*
X013422D01*
Y02105D02*
Y02095D01*
X013622D01*
Y02105D01*
X013722D01*
Y02125D01*
X013622D01*
Y02135D01*
X013422D01*
Y02125D01*
X013322D01*
Y02105D01*
X013422D01*
X0249Y0196D02*
Y0195D01*
X0251D01*
Y0196D01*
X0252D01*
Y0198D01*
X0251D01*
Y0199D01*
X0249D01*
Y0198D01*
X0248D01*
Y0196D01*
X0249D01*
X0239D02*
Y0195D01*
X0241D01*
Y0196D01*
X0242D01*
Y0198D01*
X0241D01*
Y0199D01*
X0239D01*
Y0198D01*
X0238D01*
Y0196D01*
X0239D01*
X01605Y0353D02*
X01615D01*
X01625Y0354D01*
X01635Y0353D01*
X01645D01*
Y0354D01*
X01635Y0355D01*
X01645Y0356D01*
Y0357D01*
X01635D01*
X01625Y0356D01*
X01615Y0357D01*
X01605D01*
Y0356D01*
X01615Y0355D01*
X01605Y0354D01*
Y0353D01*
X0158Y0348D02*
X0159D01*
X016Y0349D01*
X0161Y0348D01*
X0162D01*
Y0349D01*
X0161Y035D01*
X0162Y0351D01*
Y0352D01*
X0161D01*
X016Y0351D01*
X0159Y0352D01*
X0158D01*
Y0351D01*
X0159Y035D01*
X0158Y0349D01*
Y0348D01*
X01605Y0343D02*
X01615D01*
X01625Y0344D01*
X01635Y0343D01*
X01645D01*
Y0344D01*
X01635Y0345D01*
X01645Y0346D01*
Y0347D01*
X01635D01*
X01625Y0346D01*
X01615Y0347D01*
X01605D01*
Y0346D01*
X01615Y0345D01*
X01605Y0344D01*
Y0343D01*
X0158Y0338D02*
X0159D01*
X016Y0339D01*
X0161Y0338D01*
X0162D01*
Y0339D01*
X0161Y034D01*
X0162Y0341D01*
Y0342D01*
X0161D01*
X016Y0341D01*
X0159Y0342D01*
X0158D01*
Y0341D01*
X0159Y034D01*
X0158Y0339D01*
Y0338D01*
X01555Y0353D02*
X01565D01*
X01575Y0354D01*
X01585Y0353D01*
X01595D01*
Y0354D01*
X01585Y0355D01*
X01595Y0356D01*
Y0357D01*
X01585D01*
X01575Y0356D01*
X01565Y0357D01*
X01555D01*
Y0356D01*
X01565Y0355D01*
X01555Y0354D01*
Y0353D01*
X0153Y0348D02*
X0154D01*
X0155Y0349D01*
X0156Y0348D01*
X0157D01*
Y0349D01*
X0156Y035D01*
X0157Y0351D01*
Y0352D01*
X0156D01*
X0155Y0351D01*
X0154Y0352D01*
X0153D01*
Y0351D01*
X0154Y035D01*
X0153Y0349D01*
Y0348D01*
X01555Y0343D02*
X01565D01*
X01575Y0344D01*
X01585Y0343D01*
X01595D01*
Y0344D01*
X01585Y0345D01*
X01595Y0346D01*
Y0347D01*
X01585D01*
X01575Y0346D01*
X01565Y0347D01*
X01555D01*
Y0346D01*
X01565Y0345D01*
X01555Y0344D01*
Y0343D01*
X0153Y0338D02*
X0154D01*
X0155Y0339D01*
X0156Y0338D01*
X0157D01*
Y0339D01*
X0156Y034D01*
X0157Y0341D01*
Y0342D01*
X0156D01*
X0155Y0341D01*
X0154Y0342D01*
X0153D01*
Y0341D01*
X0154Y034D01*
X0153Y0339D01*
Y0338D01*
X01505Y0353D02*
X01515D01*
X01525Y0354D01*
X01535Y0353D01*
X01545D01*
Y0354D01*
X01535Y0355D01*
X01545Y0356D01*
Y0357D01*
X01535D01*
X01525Y0356D01*
X01515Y0357D01*
X01505D01*
Y0356D01*
X01515Y0355D01*
X01505Y0354D01*
Y0353D01*
X0148Y0348D02*
X0149D01*
X015Y0349D01*
X0151Y0348D01*
X0152D01*
Y0349D01*
X0151Y035D01*
X0152Y0351D01*
Y0352D01*
X0151D01*
X015Y0351D01*
X0149Y0352D01*
X0148D01*
Y0351D01*
X0149Y035D01*
X0148Y0349D01*
Y0348D01*
X01505Y0343D02*
X01515D01*
X01525Y0344D01*
X01535Y0343D01*
X01545D01*
Y0344D01*
X01535Y0345D01*
X01545Y0346D01*
Y0347D01*
X01535D01*
X01525Y0346D01*
X01515Y0347D01*
X01505D01*
Y0346D01*
X01515Y0345D01*
X01505Y0344D01*
Y0343D01*
X0148Y0338D02*
X0149D01*
X015Y0339D01*
X0151Y0338D01*
X0152D01*
Y0339D01*
X0151Y034D01*
X0152Y0341D01*
Y0342D01*
X0151D01*
X015Y0341D01*
X0149Y0342D01*
X0148D01*
Y0341D01*
X0149Y034D01*
X0148Y0339D01*
Y0338D01*
X01455Y0353D02*
X01465D01*
X01475Y0354D01*
X01485Y0353D01*
X01495D01*
Y0354D01*
X01485Y0355D01*
X01495Y0356D01*
Y0357D01*
X01485D01*
X01475Y0356D01*
X01465Y0357D01*
X01455D01*
Y0356D01*
X01465Y0355D01*
X01455Y0354D01*
Y0353D01*
X0143Y0348D02*
X0144D01*
X0145Y0349D01*
X0146Y0348D01*
X0147D01*
Y0349D01*
X0146Y035D01*
X0147Y0351D01*
Y0352D01*
X0146D01*
X0145Y0351D01*
X0144Y0352D01*
X0143D01*
Y0351D01*
X0144Y035D01*
X0143Y0349D01*
Y0348D01*
X01455Y0343D02*
X01465D01*
X01475Y0344D01*
X01485Y0343D01*
X01495D01*
Y0344D01*
X01485Y0345D01*
X01495Y0346D01*
Y0347D01*
X01485D01*
X01475Y0346D01*
X01465Y0347D01*
X01455D01*
Y0346D01*
X01465Y0345D01*
X01455Y0344D01*
Y0343D01*
X0143Y0338D02*
X0144D01*
X0145Y0339D01*
X0146Y0338D01*
X0147D01*
Y0339D01*
X0146Y034D01*
X0147Y0341D01*
Y0342D01*
X0146D01*
X0145Y0341D01*
X0144Y0342D01*
X0143D01*
Y0341D01*
X0144Y034D01*
X0143Y0339D01*
Y0338D01*
X0293Y0203D02*
X0294D01*
X0295Y0204D01*
X0296Y0203D01*
X0297D01*
Y0204D01*
X0296Y0205D01*
X0297Y0206D01*
Y0207D01*
X0296D01*
X0295Y0206D01*
X0294Y0207D01*
X0293D01*
Y0206D01*
X0294Y0205D01*
X0293Y0204D01*
Y0203D01*
X02955Y0198D02*
X02965D01*
X02975Y0199D01*
X02985Y0198D01*
X02995D01*
Y0199D01*
X02985Y02D01*
X02995Y0201D01*
Y0202D01*
X02985D01*
X02975Y0201D01*
X02965Y0202D01*
X02955D01*
Y0201D01*
X02965Y02D01*
X02955Y0199D01*
Y0198D01*
X0293Y0193D02*
X0294D01*
X0295Y0194D01*
X0296Y0193D01*
X0297D01*
Y0194D01*
X0296Y0195D01*
X0297Y0196D01*
Y0197D01*
X0296D01*
X0295Y0196D01*
X0294Y0197D01*
X0293D01*
Y0196D01*
X0294Y0195D01*
X0293Y0194D01*
Y0193D01*
X0288Y0203D02*
X0289D01*
X029Y0204D01*
X0291Y0203D01*
X0292D01*
Y0204D01*
X0291Y0205D01*
X0292Y0206D01*
Y0207D01*
X0291D01*
X029Y0206D01*
X0289Y0207D01*
X0288D01*
Y0206D01*
X0289Y0205D01*
X0288Y0204D01*
Y0203D01*
X02905Y0198D02*
X02915D01*
X02925Y0199D01*
X02935Y0198D01*
X02945D01*
Y0199D01*
X02935Y02D01*
X02945Y0201D01*
Y0202D01*
X02935D01*
X02925Y0201D01*
X02915Y0202D01*
X02905D01*
Y0201D01*
X02915Y02D01*
X02905Y0199D01*
Y0198D01*
X0288Y0193D02*
X0289D01*
X029Y0194D01*
X0291Y0193D01*
X0292D01*
Y0194D01*
X0291Y0195D01*
X0292Y0196D01*
Y0197D01*
X0291D01*
X029Y0196D01*
X0289Y0197D01*
X0288D01*
Y0196D01*
X0289Y0195D01*
X0288Y0194D01*
Y0193D01*
X0283Y0203D02*
X0284D01*
X0285Y0204D01*
X0286Y0203D01*
X0287D01*
Y0204D01*
X0286Y0205D01*
X0287Y0206D01*
Y0207D01*
X0286D01*
X0285Y0206D01*
X0284Y0207D01*
X0283D01*
Y0206D01*
X0284Y0205D01*
X0283Y0204D01*
Y0203D01*
X02855Y0198D02*
X02865D01*
X02875Y0199D01*
X02885Y0198D01*
X02895D01*
Y0199D01*
X02885Y02D01*
X02895Y0201D01*
Y0202D01*
X02885D01*
X02875Y0201D01*
X02865Y0202D01*
X02855D01*
Y0201D01*
X02865Y02D01*
X02855Y0199D01*
Y0198D01*
X0283Y0193D02*
X0284D01*
X0285Y0194D01*
X0286Y0193D01*
X0287D01*
Y0194D01*
X0286Y0195D01*
X0287Y0196D01*
Y0197D01*
X0286D01*
X0285Y0196D01*
X0284Y0197D01*
X0283D01*
Y0196D01*
X0284Y0195D01*
X0283Y0194D01*
Y0193D01*
X0278Y0203D02*
X0279D01*
X028Y0204D01*
X0281Y0203D01*
X0282D01*
Y0204D01*
X0281Y0205D01*
X0282Y0206D01*
Y0207D01*
X0281D01*
X028Y0206D01*
X0279Y0207D01*
X0278D01*
Y0206D01*
X0279Y0205D01*
X0278Y0204D01*
Y0203D01*
X02805Y0198D02*
X02815D01*
X02825Y0199D01*
X02835Y0198D01*
X02845D01*
Y0199D01*
X02835Y02D01*
X02845Y0201D01*
Y0202D01*
X02835D01*
X02825Y0201D01*
X02815Y0202D01*
X02805D01*
Y0201D01*
X02815Y02D01*
X02805Y0199D01*
Y0198D01*
X0278Y0193D02*
X0279D01*
X028Y0194D01*
X0281Y0193D01*
X0282D01*
Y0194D01*
X0281Y0195D01*
X0282Y0196D01*
Y0197D01*
X0281D01*
X028Y0196D01*
X0279Y0197D01*
X0278D01*
Y0196D01*
X0279Y0195D01*
X0278Y0194D01*
Y0193D01*
X0273Y0203D02*
X0274D01*
X0275Y0204D01*
X0276Y0203D01*
X0277D01*
Y0204D01*
X0276Y0205D01*
X0277Y0206D01*
Y0207D01*
X0276D01*
X0275Y0206D01*
X0274Y0207D01*
X0273D01*
Y0206D01*
X0274Y0205D01*
X0273Y0204D01*
Y0203D01*
X02755Y0198D02*
X02765D01*
X02775Y0199D01*
X02785Y0198D01*
X02795D01*
Y0199D01*
X02785Y02D01*
X02795Y0201D01*
Y0202D01*
X02785D01*
X02775Y0201D01*
X02765Y0202D01*
X02755D01*
Y0201D01*
X02765Y02D01*
X02755Y0199D01*
Y0198D01*
X0273Y0193D02*
X0274D01*
X0275Y0194D01*
X0276Y0193D01*
X0277D01*
Y0194D01*
X0276Y0195D01*
X0277Y0196D01*
Y0197D01*
X0276D01*
X0275Y0196D01*
X0274Y0197D01*
X0273D01*
Y0196D01*
X0274Y0195D01*
X0273Y0194D01*
Y0193D01*
X0268Y0203D02*
X0269D01*
X027Y0204D01*
X0271Y0203D01*
X0272D01*
Y0204D01*
X0271Y0205D01*
X0272Y0206D01*
Y0207D01*
X0271D01*
X027Y0206D01*
X0269Y0207D01*
X0268D01*
Y0206D01*
X0269Y0205D01*
X0268Y0204D01*
Y0203D01*
X02705Y0198D02*
X02715D01*
X02725Y0199D01*
X02735Y0198D01*
X02745D01*
Y0199D01*
X02735Y02D01*
X02745Y0201D01*
Y0202D01*
X02735D01*
X02725Y0201D01*
X02715Y0202D01*
X02705D01*
Y0201D01*
X02715Y02D01*
X02705Y0199D01*
Y0198D01*
X0268Y0193D02*
X0269D01*
X027Y0194D01*
X0271Y0193D01*
X0272D01*
Y0194D01*
X0271Y0195D01*
X0272Y0196D01*
Y0197D01*
X0271D01*
X027Y0196D01*
X0269Y0197D01*
X0268D01*
Y0196D01*
X0269Y0195D01*
X0268Y0194D01*
Y0193D01*
X0263Y0203D02*
X0264D01*
X0265Y0204D01*
X0266Y0203D01*
X0267D01*
Y0204D01*
X0266Y0205D01*
X0267Y0206D01*
Y0207D01*
X0266D01*
X0265Y0206D01*
X0264Y0207D01*
X0263D01*
Y0206D01*
X0264Y0205D01*
X0263Y0204D01*
Y0203D01*
X02655Y0198D02*
X02665D01*
X02675Y0199D01*
X02685Y0198D01*
X02695D01*
Y0199D01*
X02685Y02D01*
X02695Y0201D01*
Y0202D01*
X02685D01*
X02675Y0201D01*
X02665Y0202D01*
X02655D01*
Y0201D01*
X02665Y02D01*
X02655Y0199D01*
Y0198D01*
X0263Y0193D02*
X0264D01*
X0265Y0194D01*
X0266Y0193D01*
X0267D01*
Y0194D01*
X0266Y0195D01*
X0267Y0196D01*
Y0197D01*
X0266D01*
X0265Y0196D01*
X0264Y0197D01*
X0263D01*
Y0196D01*
X0264Y0195D01*
X0263Y0194D01*
Y0193D01*
X0258Y0203D02*
X0259D01*
X026Y0204D01*
X0261Y0203D01*
X0262D01*
Y0204D01*
X0261Y0205D01*
X0262Y0206D01*
Y0207D01*
X0261D01*
X026Y0206D01*
X0259Y0207D01*
X0258D01*
Y0206D01*
X0259Y0205D01*
X0258Y0204D01*
Y0203D01*
X02605Y0198D02*
X02615D01*
X02625Y0199D01*
X02635Y0198D01*
X02645D01*
Y0199D01*
X02635Y02D01*
X02645Y0201D01*
Y0202D01*
X02635D01*
X02625Y0201D01*
X02615Y0202D01*
X02605D01*
Y0201D01*
X02615Y02D01*
X02605Y0199D01*
Y0198D01*
X0258Y0193D02*
X0259D01*
X026Y0194D01*
X0261Y0193D01*
X0262D01*
Y0194D01*
X0261Y0195D01*
X0262Y0196D01*
Y0197D01*
X0261D01*
X026Y0196D01*
X0259Y0197D01*
X0258D01*
Y0196D01*
X0259Y0195D01*
X0258Y0194D01*
Y0193D01*
X02655Y0298D02*
X02665D01*
X02675Y0299D01*
X02685Y0298D01*
X02695D01*
Y0299D01*
X02685Y03D01*
X02695Y0301D01*
Y0302D01*
X02685D01*
X02675Y0301D01*
X02665Y0302D01*
X02655D01*
Y0301D01*
X02665Y03D01*
X02655Y0299D01*
Y0298D01*
X0263Y0293D02*
X0264D01*
X0265Y0294D01*
X0266Y0293D01*
X0267D01*
Y0294D01*
X0266Y0295D01*
X0267Y0296D01*
Y0297D01*
X0266D01*
X0265Y0296D01*
X0264Y0297D01*
X0263D01*
Y0296D01*
X0264Y0295D01*
X0263Y0294D01*
Y0293D01*
X02655Y0288D02*
X02665D01*
X02675Y0289D01*
X02685Y0288D01*
X02695D01*
Y0289D01*
X02685Y029D01*
X02695Y0291D01*
Y0292D01*
X02685D01*
X02675Y0291D01*
X02665Y0292D01*
X02655D01*
Y0291D01*
X02665Y029D01*
X02655Y0289D01*
Y0288D01*
X0263Y0283D02*
X0264D01*
X0265Y0284D01*
X0266Y0283D01*
X0267D01*
Y0284D01*
X0266Y0285D01*
X0267Y0286D01*
Y0287D01*
X0266D01*
X0265Y0286D01*
X0264Y0287D01*
X0263D01*
Y0286D01*
X0264Y0285D01*
X0263Y0284D01*
Y0283D01*
X02605Y0298D02*
X02615D01*
X02625Y0299D01*
X02635Y0298D01*
X02645D01*
Y0299D01*
X02635Y03D01*
X02645Y0301D01*
Y0302D01*
X02635D01*
X02625Y0301D01*
X02615Y0302D01*
X02605D01*
Y0301D01*
X02615Y03D01*
X02605Y0299D01*
Y0298D01*
X0258Y0293D02*
X0259D01*
X026Y0294D01*
X0261Y0293D01*
X0262D01*
Y0294D01*
X0261Y0295D01*
X0262Y0296D01*
Y0297D01*
X0261D01*
X026Y0296D01*
X0259Y0297D01*
X0258D01*
Y0296D01*
X0259Y0295D01*
X0258Y0294D01*
Y0293D01*
X02605Y0288D02*
X02615D01*
X02625Y0289D01*
X02635Y0288D01*
X02645D01*
Y0289D01*
X02635Y029D01*
X02645Y0291D01*
Y0292D01*
X02635D01*
X02625Y0291D01*
X02615Y0292D01*
X02605D01*
Y0291D01*
X02615Y029D01*
X02605Y0289D01*
Y0288D01*
X02555Y0298D02*
X02565D01*
X02575Y0299D01*
X02585Y0298D01*
X02595D01*
Y0299D01*
X02585Y03D01*
X02595Y0301D01*
Y0302D01*
X02585D01*
X02575Y0301D01*
X02565Y0302D01*
X02555D01*
Y0301D01*
X02565Y03D01*
X02555Y0299D01*
Y0298D01*
X0253Y0293D02*
X0254D01*
X0255Y0294D01*
X0256Y0293D01*
X0257D01*
Y0294D01*
X0256Y0295D01*
X0257Y0296D01*
Y0297D01*
X0256D01*
X0255Y0296D01*
X0254Y0297D01*
X0253D01*
Y0296D01*
X0254Y0295D01*
X0253Y0294D01*
Y0293D01*
X02555Y0288D02*
X02565D01*
X02575Y0289D01*
X02585Y0288D01*
X02595D01*
Y0289D01*
X02585Y029D01*
X02595Y0291D01*
Y0292D01*
X02585D01*
X02575Y0291D01*
X02565Y0292D01*
X02555D01*
Y0291D01*
X02565Y029D01*
X02555Y0289D01*
Y0288D01*
X0253Y0283D02*
X0254D01*
X0255Y0284D01*
X0256Y0283D01*
X0257D01*
Y0284D01*
X0256Y0285D01*
X0257Y0286D01*
Y0287D01*
X0256D01*
X0255Y0286D01*
X0254Y0287D01*
X0253D01*
Y0286D01*
X0254Y0285D01*
X0253Y0284D01*
Y0283D01*
X02955Y0353D02*
X02965D01*
X02975Y0354D01*
X02985Y0353D01*
X02995D01*
Y0354D01*
X02985Y0355D01*
X02995Y0356D01*
Y0357D01*
X02985D01*
X02975Y0356D01*
X02965Y0357D01*
X02955D01*
Y0356D01*
X02965Y0355D01*
X02955Y0354D01*
Y0353D01*
X0293Y0348D02*
X0294D01*
X0295Y0349D01*
X0296Y0348D01*
X0297D01*
Y0349D01*
X0296Y035D01*
X0297Y0351D01*
Y0352D01*
X0296D01*
X0295Y0351D01*
X0294Y0352D01*
X0293D01*
Y0351D01*
X0294Y035D01*
X0293Y0349D01*
Y0348D01*
X02955Y0343D02*
X02965D01*
X02975Y0344D01*
X02985Y0343D01*
X02995D01*
Y0344D01*
X02985Y0345D01*
X02995Y0346D01*
Y0347D01*
X02985D01*
X02975Y0346D01*
X02965Y0347D01*
X02955D01*
Y0346D01*
X02965Y0345D01*
X02955Y0344D01*
Y0343D01*
X0293Y0338D02*
X0294D01*
X0295Y0339D01*
X0296Y0338D01*
X0297D01*
Y0339D01*
X0296Y034D01*
X0297Y0341D01*
Y0342D01*
X0296D01*
X0295Y0341D01*
X0294Y0342D01*
X0293D01*
Y0341D01*
X0294Y034D01*
X0293Y0339D01*
Y0338D01*
X02955Y0333D02*
X02965D01*
X02975Y0334D01*
X02985Y0333D01*
X02995D01*
Y0334D01*
X02985Y0335D01*
X02995Y0336D01*
Y0337D01*
X02985D01*
X02975Y0336D01*
X02965Y0337D01*
X02955D01*
Y0336D01*
X02965Y0335D01*
X02955Y0334D01*
Y0333D01*
X0293Y0328D02*
X0294D01*
X0295Y0329D01*
X0296Y0328D01*
X0297D01*
Y0329D01*
X0296Y033D01*
X0297Y0331D01*
Y0332D01*
X0296D01*
X0295Y0331D01*
X0294Y0332D01*
X0293D01*
Y0331D01*
X0294Y033D01*
X0293Y0329D01*
Y0328D01*
X02905Y0353D02*
X02915D01*
X02925Y0354D01*
X02935Y0353D01*
X02945D01*
Y0354D01*
X02935Y0355D01*
X02945Y0356D01*
Y0357D01*
X02935D01*
X02925Y0356D01*
X02915Y0357D01*
X02905D01*
Y0356D01*
X02915Y0355D01*
X02905Y0354D01*
Y0353D01*
X0288Y0348D02*
X0289D01*
X029Y0349D01*
X0291Y0348D01*
X0292D01*
Y0349D01*
X0291Y035D01*
X0292Y0351D01*
Y0352D01*
X0291D01*
X029Y0351D01*
X0289Y0352D01*
X0288D01*
Y0351D01*
X0289Y035D01*
X0288Y0349D01*
Y0348D01*
X02905Y0343D02*
X02915D01*
X02925Y0344D01*
X02935Y0343D01*
X02945D01*
Y0344D01*
X02935Y0345D01*
X02945Y0346D01*
Y0347D01*
X02935D01*
X02925Y0346D01*
X02915Y0347D01*
X02905D01*
Y0346D01*
X02915Y0345D01*
X02905Y0344D01*
Y0343D01*
X0288Y0338D02*
X0289D01*
X029Y0339D01*
X0291Y0338D01*
X0292D01*
Y0339D01*
X0291Y034D01*
X0292Y0341D01*
Y0342D01*
X0291D01*
X029Y0341D01*
X0289Y0342D01*
X0288D01*
Y0341D01*
X0289Y034D01*
X0288Y0339D01*
Y0338D01*
X02905Y0333D02*
X02915D01*
X02925Y0334D01*
X02935Y0333D01*
X02945D01*
Y0334D01*
X02935Y0335D01*
X02945Y0336D01*
Y0337D01*
X02935D01*
X02925Y0336D01*
X02915Y0337D01*
X02905D01*
Y0336D01*
X02915Y0335D01*
X02905Y0334D01*
Y0333D01*
X0288Y0328D02*
X0289D01*
X029Y0329D01*
X0291Y0328D01*
X0292D01*
Y0329D01*
X0291Y033D01*
X0292Y0331D01*
Y0332D01*
X0291D01*
X029Y0331D01*
X0289Y0332D01*
X0288D01*
Y0331D01*
X0289Y033D01*
X0288Y0329D01*
Y0328D01*
X02855Y0353D02*
X02865D01*
X02875Y0354D01*
X02885Y0353D01*
X02895D01*
Y0354D01*
X02885Y0355D01*
X02895Y0356D01*
Y0357D01*
X02885D01*
X02875Y0356D01*
X02865Y0357D01*
X02855D01*
Y0356D01*
X02865Y0355D01*
X02855Y0354D01*
Y0353D01*
X0283Y0348D02*
X0284D01*
X0285Y0349D01*
X0286Y0348D01*
X0287D01*
Y0349D01*
X0286Y035D01*
X0287Y0351D01*
Y0352D01*
X0286D01*
X0285Y0351D01*
X0284Y0352D01*
X0283D01*
Y0351D01*
X0284Y035D01*
X0283Y0349D01*
Y0348D01*
X02855Y0343D02*
X02865D01*
X02875Y0344D01*
X02885Y0343D01*
X02895D01*
Y0344D01*
X02885Y0345D01*
X02895Y0346D01*
Y0347D01*
X02885D01*
X02875Y0346D01*
X02865Y0347D01*
X02855D01*
Y0346D01*
X02865Y0345D01*
X02855Y0344D01*
Y0343D01*
Y0333D02*
X02865D01*
X02875Y0334D01*
X02885Y0333D01*
X02895D01*
Y0334D01*
X02885Y0335D01*
X02895Y0336D01*
Y0337D01*
X02885D01*
X02875Y0336D01*
X02865Y0337D01*
X02855D01*
Y0336D01*
X02865Y0335D01*
X02855Y0334D01*
Y0333D01*
X02805Y0353D02*
X02815D01*
X02825Y0354D01*
X02835Y0353D01*
X02845D01*
Y0354D01*
X02835Y0355D01*
X02845Y0356D01*
Y0357D01*
X02835D01*
X02825Y0356D01*
X02815Y0357D01*
X02805D01*
Y0356D01*
X02815Y0355D01*
X02805Y0354D01*
Y0353D01*
X0278Y0348D02*
X0279D01*
X028Y0349D01*
X0281Y0348D01*
X0282D01*
Y0349D01*
X0281Y035D01*
X0282Y0351D01*
Y0352D01*
X0281D01*
X028Y0351D01*
X0279Y0352D01*
X0278D01*
Y0351D01*
X0279Y035D01*
X0278Y0349D01*
Y0348D01*
X02755Y0353D02*
X02765D01*
X02775Y0354D01*
X02785Y0353D01*
X02795D01*
Y0354D01*
X02785Y0355D01*
X02795Y0356D01*
Y0357D01*
X02785D01*
X02775Y0356D01*
X02765Y0357D01*
X02755D01*
Y0356D01*
X02765Y0355D01*
X02755Y0354D01*
Y0353D01*
X0273Y0348D02*
X0274D01*
X0275Y0349D01*
X0276Y0348D01*
X0277D01*
Y0349D01*
X0276Y035D01*
X0277Y0351D01*
Y0352D01*
X0276D01*
X0275Y0351D01*
X0274Y0352D01*
X0273D01*
Y0351D01*
X0274Y035D01*
X0273Y0349D01*
Y0348D01*
X02705Y0353D02*
X02715D01*
X02725Y0354D01*
X02735Y0353D01*
X02745D01*
Y0354D01*
X02735Y0355D01*
X02745Y0356D01*
Y0357D01*
X02735D01*
X02725Y0356D01*
X02715Y0357D01*
X02705D01*
Y0356D01*
X02715Y0355D01*
X02705Y0354D01*
Y0353D01*
X0268Y0348D02*
X0269D01*
X027Y0349D01*
X0271Y0348D01*
X0272D01*
Y0349D01*
X0271Y035D01*
X0272Y0351D01*
Y0352D01*
X0271D01*
X027Y0351D01*
X0269Y0352D01*
X0268D01*
Y0351D01*
X0269Y035D01*
X0268Y0349D01*
Y0348D01*
X02705Y0343D02*
X02715D01*
X02725Y0344D01*
X02735Y0343D01*
X02745D01*
Y0344D01*
X02735Y0345D01*
X02745Y0346D01*
Y0347D01*
X02735D01*
X02725Y0346D01*
X02715Y0347D01*
X02705D01*
Y0346D01*
X02715Y0345D01*
X02705Y0344D01*
Y0343D01*
X0268Y0338D02*
X0269D01*
X027Y0339D01*
X0271Y0338D01*
X0272D01*
Y0339D01*
X0271Y034D01*
X0272Y0341D01*
Y0342D01*
X0271D01*
X027Y0341D01*
X0269Y0342D01*
X0268D01*
Y0341D01*
X0269Y034D01*
X0268Y0339D01*
Y0338D01*
X02705Y0333D02*
X02715D01*
X02725Y0334D01*
X02735Y0333D01*
X02745D01*
Y0334D01*
X02735Y0335D01*
X02745Y0336D01*
Y0337D01*
X02735D01*
X02725Y0336D01*
X02715Y0337D01*
X02705D01*
Y0336D01*
X02715Y0335D01*
X02705Y0334D01*
Y0333D01*
X0268Y0328D02*
X0269D01*
X027Y0329D01*
X0271Y0328D01*
X0272D01*
Y0329D01*
X0271Y033D01*
X0272Y0331D01*
Y0332D01*
X0271D01*
X027Y0331D01*
X0269Y0332D01*
X0268D01*
Y0331D01*
X0269Y033D01*
X0268Y0329D01*
Y0328D01*
X02655Y0353D02*
X02665D01*
X02675Y0354D01*
X02685Y0353D01*
X02695D01*
Y0354D01*
X02685Y0355D01*
X02695Y0356D01*
Y0357D01*
X02685D01*
X02675Y0356D01*
X02665Y0357D01*
X02655D01*
Y0356D01*
X02665Y0355D01*
X02655Y0354D01*
Y0353D01*
X0263Y0348D02*
X0264D01*
X0265Y0349D01*
X0266Y0348D01*
X0267D01*
Y0349D01*
X0266Y035D01*
X0267Y0351D01*
Y0352D01*
X0266D01*
X0265Y0351D01*
X0264Y0352D01*
X0263D01*
Y0351D01*
X0264Y035D01*
X0263Y0349D01*
Y0348D01*
X02655Y0343D02*
X02665D01*
X02675Y0344D01*
X02685Y0343D01*
X02695D01*
Y0344D01*
X02685Y0345D01*
X02695Y0346D01*
Y0347D01*
X02685D01*
X02675Y0346D01*
X02665Y0347D01*
X02655D01*
Y0346D01*
X02665Y0345D01*
X02655Y0344D01*
Y0343D01*
X0263Y0338D02*
X0264D01*
X0265Y0339D01*
X0266Y0338D01*
X0267D01*
Y0339D01*
X0266Y034D01*
X0267Y0341D01*
Y0342D01*
X0266D01*
X0265Y0341D01*
X0264Y0342D01*
X0263D01*
Y0341D01*
X0264Y034D01*
X0263Y0339D01*
Y0338D01*
X02655Y0333D02*
X02665D01*
X02675Y0334D01*
X02685Y0333D01*
X02695D01*
Y0334D01*
X02685Y0335D01*
X02695Y0336D01*
Y0337D01*
X02685D01*
X02675Y0336D01*
X02665Y0337D01*
X02655D01*
Y0336D01*
X02665Y0335D01*
X02655Y0334D01*
Y0333D01*
X0263Y0328D02*
X0264D01*
X0265Y0329D01*
X0266Y0328D01*
X0267D01*
Y0329D01*
X0266Y033D01*
X0267Y0331D01*
Y0332D01*
X0266D01*
X0265Y0331D01*
X0264Y0332D01*
X0263D01*
Y0331D01*
X0264Y033D01*
X0263Y0329D01*
Y0328D01*
X014448Y0319D02*
X014648Y0321D01*
X014848Y0319D01*
X014648Y0317D01*
X014448Y0319D01*
X014698Y031853D02*
X014898Y032053D01*
X015098Y031853D01*
X014898Y031653D01*
X014698Y031853D01*
X014604Y032103D02*
X014804Y032303D01*
X015004Y032103D01*
X014804Y031903D01*
X014604Y032103D01*
X0277Y02605D02*
Y02645D01*
X0281D01*
Y02605D01*
X0277D01*
X02778Y02613D02*
Y02637D01*
X02802D01*
Y02613D01*
X02778D01*
D18*
X024918Y034516D02*
G03*
X024918Y034516I-00012J0D01*
G01*
X03437Y03555D02*
G03*
X03437Y03555I-00012J0D01*
G01*
Y0194D02*
G03*
X03437Y0194I-00012J0D01*
G01*
X01302D02*
G03*
X01302Y0194I-00012J0D01*
G01*
X01307Y03555D02*
G03*
X01307Y03555I-00012J0D01*
G01*
D61*
X0334Y02885D02*
G03*
X0334Y02885I-0002J0D01*
G01*
Y03085D02*
G03*
X0334Y03085I-0002J0D01*
G01*
X024998Y034516D02*
G03*
X024998Y034516I-0002J0D01*
G01*
X03445Y03555D02*
G03*
X03445Y03555I-0002J0D01*
G01*
Y0194D02*
G03*
X03445Y0194I-0002J0D01*
G01*
X0131D02*
G03*
X0131Y0194I-0002J0D01*
G01*
X01315Y03555D02*
G03*
X01315Y03555I-0002J0D01*
G01*
M02*
