G04*
G04 #@! TF.GenerationSoftware,Altium Limited,Altium Designer,19.0.15 (446)*
G04*
G04 Layer_Color=128*
%FSTAX24Y24*%
%MOIN*%
G70*
G01*
G75*
%ADD17C,0.0050*%
D17*
X028866Y021606D02*
X029226D01*
X029046Y021426D02*
Y021786D01*
X029866Y021606D02*
X030226D01*
X030046Y021426D02*
Y021786D01*
X030866Y021606D02*
X031226D01*
X031046Y021426D02*
Y021786D01*
X031866Y021606D02*
X032226D01*
X032046Y021426D02*
Y021786D01*
X027866Y021606D02*
X028226D01*
X028046Y021426D02*
Y021786D01*
X03295Y02885D02*
X03345D01*
X0332Y0286D02*
Y0291D01*
X03295Y03085D02*
X03345D01*
X0332Y0306D02*
Y0311D01*
X01814Y03515D02*
X01846D01*
X0183Y03499D02*
Y03531D01*
X01714Y03515D02*
X01746D01*
X0173Y03499D02*
Y03531D01*
X022755Y03296D02*
X023065D01*
X02291Y032805D02*
Y033115D01*
X020215Y03108D02*
X020525D01*
X02037Y030925D02*
Y031235D01*
X020245Y033D02*
X020555D01*
X0204Y032845D02*
Y033155D01*
X022695Y03105D02*
X023005D01*
X02285Y030895D02*
Y031205D01*
X018505Y03296D02*
X018815D01*
X01866Y032805D02*
Y033115D01*
X015965Y03108D02*
X016275D01*
X01612Y030925D02*
Y031235D01*
X015995Y033D02*
X016305D01*
X01615Y032845D02*
Y033155D01*
X018445Y03105D02*
X018755D01*
X0186Y030895D02*
Y031205D01*
X021731Y020205D02*
X02201D01*
X021871Y020065D02*
Y020345D01*
X021731Y020955D02*
X02201D01*
X021871Y020815D02*
Y021095D01*
X021731Y021755D02*
X02201D01*
X021871Y021615D02*
Y021895D01*
X021731Y022525D02*
X02201D01*
X021871Y022385D02*
Y022665D01*
X021731Y023325D02*
X02201D01*
X021871Y023185D02*
Y023465D01*
X021731Y024105D02*
X02201D01*
X021871Y023965D02*
Y024245D01*
X021731Y024905D02*
X02201D01*
X021871Y024765D02*
Y025045D01*
X021731Y019385D02*
X02201D01*
X021871Y019245D02*
Y019525D01*
X016269Y019385D02*
X016548D01*
X016409Y019245D02*
Y019525D01*
X016269Y020175D02*
X016548D01*
X016409Y020035D02*
Y020315D01*
X016269Y020955D02*
X016548D01*
X016409Y020815D02*
Y021095D01*
X016269Y021745D02*
X016548D01*
X016409Y021605D02*
Y021885D01*
X016269Y023325D02*
X016548D01*
X016409Y023185D02*
Y023465D01*
X016269Y024105D02*
X016548D01*
X016409Y023965D02*
Y024245D01*
X016269Y024895D02*
X016548D01*
X016409Y024755D02*
Y025035D01*
X016269Y022535D02*
X016548D01*
X016409Y022395D02*
Y022675D01*
X013306Y02415D02*
X013739D01*
X013522Y023933D02*
Y024367D01*
X013306Y02315D02*
X013739D01*
X013522Y022933D02*
Y023367D01*
X013306Y02215D02*
X013739D01*
X013522Y021933D02*
Y022367D01*
X013306Y02115D02*
X013739D01*
X013522Y020933D02*
Y021367D01*
X024783Y0197D02*
X025217D01*
X025Y019483D02*
Y019917D01*
X023783Y0197D02*
X024217D01*
X024Y019483D02*
Y019917D01*
X01619Y0355D02*
X01631D01*
X01625Y03544D02*
Y03556D01*
X01594Y035D02*
X01606D01*
X016Y03494D02*
Y03506D01*
X01619Y0345D02*
X01631D01*
X01625Y03444D02*
Y03456D01*
X01594Y034D02*
X01606D01*
X016Y03394D02*
Y03406D01*
X01569Y0355D02*
X01581D01*
X01575Y03544D02*
Y03556D01*
X01544Y035D02*
X01556D01*
X0155Y03494D02*
Y03506D01*
X01569Y0345D02*
X01581D01*
X01575Y03444D02*
Y03456D01*
X01544Y034D02*
X01556D01*
X0155Y03394D02*
Y03406D01*
X01519Y0355D02*
X01531D01*
X01525Y03544D02*
Y03556D01*
X01494Y035D02*
X01506D01*
X015Y03494D02*
Y03506D01*
X01519Y0345D02*
X01531D01*
X01525Y03444D02*
Y03456D01*
X01494Y034D02*
X01506D01*
X015Y03394D02*
Y03406D01*
X01469Y0355D02*
X01481D01*
X01475Y03544D02*
Y03556D01*
X01444Y035D02*
X01456D01*
X0145Y03494D02*
Y03506D01*
X01469Y0345D02*
X01481D01*
X01475Y03444D02*
Y03456D01*
X01444Y034D02*
X01456D01*
X0145Y03394D02*
Y03406D01*
X02944Y0205D02*
X02956D01*
X0295Y02044D02*
Y02056D01*
X02969Y02D02*
X02981D01*
X02975Y01994D02*
Y02006D01*
X02944Y0195D02*
X02956D01*
X0295Y01944D02*
Y01956D01*
X02894Y0205D02*
X02906D01*
X029Y02044D02*
Y02056D01*
X02919Y02D02*
X02931D01*
X02925Y01994D02*
Y02006D01*
X02894Y0195D02*
X02906D01*
X029Y01944D02*
Y01956D01*
X02844Y0205D02*
X02856D01*
X0285Y02044D02*
Y02056D01*
X02869Y02D02*
X02881D01*
X02875Y01994D02*
Y02006D01*
X02844Y0195D02*
X02856D01*
X0285Y01944D02*
Y01956D01*
X02794Y0205D02*
X02806D01*
X028Y02044D02*
Y02056D01*
X02819Y02D02*
X02831D01*
X02825Y01994D02*
Y02006D01*
X02794Y0195D02*
X02806D01*
X028Y01944D02*
Y01956D01*
X02744Y0205D02*
X02756D01*
X0275Y02044D02*
Y02056D01*
X02769Y02D02*
X02781D01*
X02775Y01994D02*
Y02006D01*
X02744Y0195D02*
X02756D01*
X0275Y01944D02*
Y01956D01*
X02694Y0205D02*
X02706D01*
X027Y02044D02*
Y02056D01*
X02719Y02D02*
X02731D01*
X02725Y01994D02*
Y02006D01*
X02694Y0195D02*
X02706D01*
X027Y01944D02*
Y01956D01*
X02644Y0205D02*
X02656D01*
X0265Y02044D02*
Y02056D01*
X02669Y02D02*
X02681D01*
X02675Y01994D02*
Y02006D01*
X02644Y0195D02*
X02656D01*
X0265Y01944D02*
Y01956D01*
X02594Y0205D02*
X02606D01*
X026Y02044D02*
Y02056D01*
X02619Y02D02*
X02631D01*
X02625Y01994D02*
Y02006D01*
X02594Y0195D02*
X02606D01*
X026Y01944D02*
Y01956D01*
X02669Y03D02*
X02681D01*
X02675Y02994D02*
Y03006D01*
X02644Y0295D02*
X02656D01*
X0265Y02944D02*
Y02956D01*
X02669Y029D02*
X02681D01*
X02675Y02894D02*
Y02906D01*
X02644Y0285D02*
X02656D01*
X0265Y02844D02*
Y02856D01*
X02619Y03D02*
X02631D01*
X02625Y02994D02*
Y03006D01*
X02594Y0295D02*
X02606D01*
X026Y02944D02*
Y02956D01*
X02619Y029D02*
X02631D01*
X02625Y02894D02*
Y02906D01*
X02569Y03D02*
X02581D01*
X02575Y02994D02*
Y03006D01*
X02544Y0295D02*
X02556D01*
X0255Y02944D02*
Y02956D01*
X02569Y029D02*
X02581D01*
X02575Y02894D02*
Y02906D01*
X02544Y0285D02*
X02556D01*
X0255Y02844D02*
Y02856D01*
X02969Y0355D02*
X02981D01*
X02975Y03544D02*
Y03556D01*
X02944Y035D02*
X02956D01*
X0295Y03494D02*
Y03506D01*
X02969Y0345D02*
X02981D01*
X02975Y03444D02*
Y03456D01*
X02944Y034D02*
X02956D01*
X0295Y03394D02*
Y03406D01*
X02969Y0335D02*
X02981D01*
X02975Y03344D02*
Y03356D01*
X02944Y033D02*
X02956D01*
X0295Y03294D02*
Y03306D01*
X02919Y0355D02*
X02931D01*
X02925Y03544D02*
Y03556D01*
X02894Y035D02*
X02906D01*
X029Y03494D02*
Y03506D01*
X02919Y0345D02*
X02931D01*
X02925Y03444D02*
Y03456D01*
X02894Y034D02*
X02906D01*
X029Y03394D02*
Y03406D01*
X02919Y0335D02*
X02931D01*
X02925Y03344D02*
Y03356D01*
X02894Y033D02*
X02906D01*
X029Y03294D02*
Y03306D01*
X02869Y0355D02*
X02881D01*
X02875Y03544D02*
Y03556D01*
X02844Y035D02*
X02856D01*
X0285Y03494D02*
Y03506D01*
X02869Y0345D02*
X02881D01*
X02875Y03444D02*
Y03456D01*
X02869Y0335D02*
X02881D01*
X02875Y03344D02*
Y03356D01*
X02819Y0355D02*
X02831D01*
X02825Y03544D02*
Y03556D01*
X02794Y035D02*
X02806D01*
X028Y03494D02*
Y03506D01*
X02769Y0355D02*
X02781D01*
X02775Y03544D02*
Y03556D01*
X02744Y035D02*
X02756D01*
X0275Y03494D02*
Y03506D01*
X02719Y0355D02*
X02731D01*
X02725Y03544D02*
Y03556D01*
X02694Y035D02*
X02706D01*
X027Y03494D02*
Y03506D01*
X02719Y0345D02*
X02731D01*
X02725Y03444D02*
Y03456D01*
X02694Y034D02*
X02706D01*
X027Y03394D02*
Y03406D01*
X02719Y0335D02*
X02731D01*
X02725Y03344D02*
Y03356D01*
X02694Y033D02*
X02706D01*
X027Y03294D02*
Y03306D01*
X02669Y0355D02*
X02681D01*
X02675Y03544D02*
Y03556D01*
X02644Y035D02*
X02656D01*
X0265Y03494D02*
Y03506D01*
X02669Y0345D02*
X02681D01*
X02675Y03444D02*
Y03456D01*
X02644Y034D02*
X02656D01*
X0265Y03394D02*
Y03406D01*
X02669Y0335D02*
X02681D01*
X02675Y03344D02*
Y03356D01*
X02644Y033D02*
X02656D01*
X0265Y03294D02*
Y03306D01*
X014573Y0319D02*
X014723D01*
X014648Y031825D02*
Y031975D01*
X014823Y031853D02*
X014973D01*
X014898Y031778D02*
Y031928D01*
X014729Y032103D02*
X014879D01*
X014804Y032028D02*
Y032178D01*
X02776Y02625D02*
X02804D01*
X0279Y02611D02*
Y02639D01*
X024208Y034516D02*
X025389D01*
X024798Y033926D02*
Y035107D01*
X033659Y03555D02*
X034841D01*
X03425Y034959D02*
Y036141D01*
X033659Y0194D02*
X034841D01*
X03425Y018809D02*
Y019991D01*
X012309Y0194D02*
X013491D01*
X0129Y018809D02*
Y019991D01*
X012359Y03555D02*
X013541D01*
X01295Y034959D02*
Y036141D01*
M02*
