G04*
G04 #@! TF.GenerationSoftware,Altium Limited,Altium Designer,19.0.15 (446)*
G04*
G04 Layer_Color=255*
%FSTAX24Y24*%
%MOIN*%
G70*
G01*
G75*
%ADD45O,0.0650X0.0900*%
%ADD46R,0.0650X0.0900*%
%ADD47C,0.1100*%
%ADD48R,0.0650X0.1000*%
%ADD49O,0.0650X0.1000*%
%ADD50C,0.0750*%
%ADD51R,0.0500X0.0500*%
%ADD52R,0.0630X0.0630*%
%ADD53C,0.0630*%
%ADD54R,0.0630X0.0630*%
D45*
X029046Y021606D02*
D03*
X030046D02*
D03*
X031046D02*
D03*
X028046D02*
D03*
D46*
X032046D02*
D03*
D47*
X0332Y02885D02*
D03*
Y03085D02*
D03*
D48*
X0183Y03515D02*
D03*
D49*
X0173D02*
D03*
D50*
X02291Y03296D02*
D03*
X02037Y03108D02*
D03*
X0204Y033D02*
D03*
X02285Y03105D02*
D03*
X01866Y03296D02*
D03*
X01612Y03108D02*
D03*
X01615Y033D02*
D03*
X0186Y03105D02*
D03*
D51*
X021871Y020205D02*
D03*
Y020955D02*
D03*
Y021755D02*
D03*
Y022525D02*
D03*
Y023325D02*
D03*
Y024105D02*
D03*
Y024905D02*
D03*
Y019385D02*
D03*
X016409D02*
D03*
Y020175D02*
D03*
Y020955D02*
D03*
Y021745D02*
D03*
Y023325D02*
D03*
Y024105D02*
D03*
Y024895D02*
D03*
Y022535D02*
D03*
D52*
X013522Y02415D02*
D03*
D53*
Y02315D02*
D03*
Y02215D02*
D03*
Y02115D02*
D03*
X025Y0197D02*
D03*
D54*
X024D02*
D03*
M02*
