M48
;Layer_Color=9474304
;FILE_FORMAT=2:4
INCH,LZ
;TYPE=PLATED
T1F00S00C0.0120
T2F00S00C0.0150
T3F00S00C0.0280
T4F00S00C0.0310
T5F00S00C0.0320
T6F00S00C0.0360
T7F00S00C0.0433
T8F00S00C0.0500
T9F00S00C0.1181
%
T01
X026Y0195
X0265
X027
X0275
X028
X0285
X029
X0295
X02975Y02
X02925
X02875
X02825
X02775
X02725
X02675
X02625
X0265Y0205
X027
X0275
X028
X0285
X029
X0295
X026
X0265Y0285
X02675Y029
X02625
X02575
X026Y0295
X0265
X02675Y03
X02625
X02575
X0255Y0295
Y0285
X0155Y034
X015
X0145
X01475Y0345
X01525
X0155Y035
X015
X0145
X01475Y0355
X01525
X01575
X01625
X016Y035
X01625Y0345
X01575
X016Y034
X0265
X027
X02725Y0345
X02675
X027Y035
X0275
X028
X0285
X029
X0295
X02975Y0355
X02925
X02875
X02825
X02775
X02725
X02675
X0265Y035
X02675Y0335
X02725
X027Y033
X0265
X029
X0295
X02975Y0335
X02925
X02875
X029Y034
X0295
X02975Y0345
X02925
X02875
T02
X014648Y0319
X014898Y031853
X014804Y032103
T03
X016409Y019385
Y020175
Y020955
Y021745
Y022535
Y023325
Y024105
Y024895
X021871Y024905
Y024105
Y023325
Y022525
Y021755
Y020955
Y020205
Y019385
X0279Y02625
T04
X01612Y03108
X0186Y03105
X02037Y03108
X02285Y03105
X02291Y03296
X0204Y033
X01866Y03296
X01615Y033
T05
X0173Y03515
X0183
T06
X032046Y021606
X031046
X030046
X029046
X028046
T07
X024Y0197
X025
X013522Y02115
Y02215
Y02315
Y02415
T08
X0332Y02885
Y03085
T09
X03425Y0194
X0129
X01295Y03555
X024798Y034516
X03425Y03555
M30
