G04*
G04 #@! TF.GenerationSoftware,Altium Limited,Altium Designer,19.0.15 (446)*
G04*
G04 Layer_Color=32896*
%FSTAX24Y24*%
%MOIN*%
G70*
G01*
G75*
G36*
X015899Y024747D02*
X015873D01*
X015809Y024895D01*
X015837D01*
X015885Y024778D01*
X015934Y024895D01*
X015961D01*
X015899Y024747D01*
D02*
G37*
G36*
X015999Y024696D02*
X015836Y024638D01*
X015836D01*
X015835Y024637D01*
X015834Y024637D01*
X015833Y024636D01*
X015831Y024636D01*
X015829Y024635D01*
X015824Y024634D01*
X015819Y024632D01*
X015813Y02463D01*
X0158Y024626D01*
X0158D01*
X015801Y024626D01*
X015802Y024625D01*
X015803Y024625D01*
X015806Y024624D01*
X015811Y024623D01*
X015817Y024621D01*
X015823Y024619D01*
X015829Y024617D01*
X015836Y024614D01*
X015999Y024553D01*
Y024523D01*
X015775Y024611D01*
Y024642D01*
X015999Y024728D01*
Y024696D01*
D02*
G37*
G36*
Y024435D02*
Y024403D01*
X015775Y024311D01*
Y024345D01*
X015843Y024371D01*
Y024465D01*
X015775Y024489D01*
Y024521D01*
X015999Y024435D01*
D02*
G37*
G36*
Y024259D02*
X015802D01*
Y024148D01*
X015775D01*
Y024288D01*
X015999D01*
Y024259D01*
D02*
G37*
G36*
Y024083D02*
X015952D01*
X015903Y023966D01*
X015999D01*
Y023936D01*
D01*
Y023906D01*
X015944Y023886D01*
X015999D01*
Y023724D01*
X015973D01*
Y023743D01*
X015904Y02377D01*
Y023732D01*
X015878D01*
Y02378D01*
X015802Y02381D01*
Y023721D01*
X015999Y023645D01*
Y023613D01*
X015775Y023521D01*
Y023555D01*
X015843Y023581D01*
Y023675D01*
X015775Y023699D01*
Y023731D01*
D01*
Y023821D01*
D01*
Y023852D01*
D01*
Y023886D01*
X015865D01*
X015994Y023936D01*
X01587D01*
X015869D01*
X015868D01*
X015866D01*
X015864D01*
X015861Y023937D01*
X015858D01*
X015854Y023937D01*
X01585Y023937D01*
X015841Y023938D01*
X015832Y02394D01*
X015824Y023941D01*
X015819Y023943D01*
X015816Y023944D01*
X015815D01*
X015815Y023944D01*
X015814Y023945D01*
X015812Y023946D01*
X015809Y023948D01*
X015804Y023951D01*
X015799Y023954D01*
X015794Y023959D01*
X015788Y023965D01*
X015783Y023972D01*
Y023972D01*
X015783Y023973D01*
X015782Y023974D01*
X015781Y023975D01*
X015781Y023977D01*
X01578Y02398D01*
X015779Y023983D01*
X015777Y023986D01*
X015776Y023989D01*
X015775Y023993D01*
X015774Y023998D01*
X015773Y024002D01*
X015772Y024007D01*
X015772Y024012D01*
X015771Y024024D01*
Y024027D01*
X015771Y024029D01*
Y024032D01*
X015772Y024035D01*
X015772Y024039D01*
X015772Y024042D01*
X015774Y02405D01*
X015776Y024059D01*
X015778Y024067D01*
X015782Y024076D01*
Y024076D01*
X015782Y024077D01*
X015783Y024078D01*
X015784Y024079D01*
X015786Y024082D01*
X01579Y024087D01*
X015794Y024091D01*
X0158Y024096D01*
X015806Y024101D01*
X01581Y024103D01*
X015809Y024105D01*
X015816D01*
X015817Y024105D01*
X015819Y024106D01*
X015822Y024107D01*
X015825Y024108D01*
X015828Y024108D01*
X015832Y024109D01*
X015836Y02411D01*
X015841Y024111D01*
X015846Y024111D01*
X015851Y024112D01*
X015857Y024112D01*
X015863Y024113D01*
X01587D01*
X015999D01*
Y024083D01*
D02*
G37*
G36*
Y023469D02*
X015802D01*
Y023358D01*
X015775D01*
Y023498D01*
X015999D01*
Y023469D01*
D02*
G37*
G36*
X01596Y023323D02*
X015999D01*
Y023293D01*
X015948D01*
X015899Y023177D01*
X015873D01*
X015826Y023287D01*
X015824Y023287D01*
X015822Y023285D01*
X015819Y023283D01*
X015816Y023281D01*
X015812Y023277D01*
X015808Y023274D01*
X015805Y023269D01*
X015805Y023268D01*
X015804Y023267D01*
X015803Y023264D01*
X015802Y02326D01*
X0158Y023255D01*
X015799Y02325D01*
X015798Y023243D01*
X015798Y023237D01*
Y023233D01*
X015798Y023231D01*
Y023229D01*
X015799Y023226D01*
X0158Y023219D01*
X015802Y023211D01*
X015804Y023203D01*
X015808Y023196D01*
X01581Y023193D01*
X015813Y02319D01*
X015813Y02319D01*
X015813Y023189D01*
X015814Y023189D01*
X015816Y023188D01*
X015817Y023187D01*
X015819Y023185D01*
X015822Y023184D01*
X015825Y023183D01*
X015829Y023182D01*
X015833Y023181D01*
X015838Y023179D01*
X015843Y023178D01*
X015849Y023177D01*
X015855Y023177D01*
X015862Y023176D01*
X01587D01*
X015999D01*
Y023146D01*
D01*
Y023126D01*
X015916Y023096D01*
X015999D01*
Y022934D01*
X015973D01*
Y022963D01*
X015904Y02299D01*
Y022942D01*
X015878D01*
Y023D01*
X015802Y02303D01*
Y022941D01*
X015999Y022865D01*
Y022833D01*
X015775Y022741D01*
Y022775D01*
X015843Y022801D01*
Y022895D01*
X015775Y022919D01*
Y022951D01*
D01*
Y023041D01*
D01*
Y023072D01*
D01*
Y023096D01*
X015839D01*
X015968Y023146D01*
X01587D01*
X015869D01*
X015868D01*
X015866D01*
X015864D01*
X015861Y023147D01*
X015858D01*
X015854Y023147D01*
X01585Y023147D01*
X015841Y023148D01*
X015832Y02315D01*
X015824Y023151D01*
X015819Y023153D01*
X015816Y023154D01*
X015815D01*
X015815Y023154D01*
X015814Y023155D01*
X015812Y023156D01*
X015809Y023158D01*
X015804Y023161D01*
X015799Y023164D01*
X015794Y023169D01*
X015788Y023175D01*
X015783Y023182D01*
Y023182D01*
X015783Y023183D01*
X015782Y023184D01*
X015781Y023185D01*
X015781Y023187D01*
X01578Y02319D01*
X015779Y023193D01*
X015777Y023196D01*
X015776Y023199D01*
X015775Y023203D01*
X015774Y023208D01*
X015773Y023212D01*
X015772Y023217D01*
X015772Y023222D01*
X015771Y023234D01*
Y023237D01*
X015771Y023239D01*
Y023242D01*
X015772Y023245D01*
X015772Y023249D01*
X015772Y023252D01*
X015774Y02326D01*
X015776Y023269D01*
X015778Y023277D01*
X015782Y023286D01*
Y023286D01*
X015782Y023287D01*
X015783Y023288D01*
X015784Y023289D01*
X015786Y023292D01*
X01579Y023297D01*
X015794Y023301D01*
X0158Y023306D01*
X015806Y023311D01*
X015813Y023314D01*
X015814D01*
X015814Y023314D01*
X015809Y023325D01*
X015837D01*
X015839Y02332D01*
X015841Y023321D01*
X015846Y023321D01*
X015851Y023322D01*
X015857Y023322D01*
X015863Y023323D01*
X01587D01*
X015933D01*
X015934Y023325D01*
X015961D01*
X01596Y023323D01*
D02*
G37*
G36*
X015999Y022689D02*
X015802D01*
Y022578D01*
X015775D01*
Y022718D01*
X015999D01*
Y022689D01*
D02*
G37*
G36*
Y022513D02*
X015952D01*
X015903Y022396D01*
X015999D01*
Y022366D01*
D01*
Y022336D01*
X015944Y022316D01*
X015999D01*
Y022154D01*
X015973D01*
Y022173D01*
X015904Y0222D01*
Y022162D01*
X015878D01*
Y02221D01*
X015802Y02224D01*
Y022151D01*
X015999Y022075D01*
Y022043D01*
X015775Y021951D01*
Y021985D01*
X015843Y022011D01*
Y022105D01*
X015775Y022129D01*
Y022161D01*
D01*
Y022251D01*
D01*
Y022282D01*
D01*
Y022316D01*
X015865D01*
X015994Y022366D01*
X01587D01*
X015869D01*
X015868D01*
X015866D01*
X015864D01*
X015861Y022367D01*
X015858D01*
X015854Y022367D01*
X01585Y022367D01*
X015841Y022368D01*
X015832Y02237D01*
X015824Y022371D01*
X015819Y022373D01*
X015816Y022374D01*
X015815D01*
X015815Y022374D01*
X015814Y022375D01*
X015812Y022376D01*
X015809Y022378D01*
X015804Y022381D01*
X015799Y022384D01*
X015794Y022389D01*
X015788Y022395D01*
X015783Y022402D01*
Y022402D01*
X015783Y022403D01*
X015782Y022404D01*
X015781Y022405D01*
X015781Y022407D01*
X01578Y02241D01*
X015779Y022413D01*
X015777Y022416D01*
X015776Y022419D01*
X015775Y022423D01*
X015774Y022428D01*
X015773Y022432D01*
X015772Y022437D01*
X015772Y022442D01*
X015771Y022454D01*
Y022457D01*
X015771Y022459D01*
Y022462D01*
X015772Y022465D01*
X015772Y022469D01*
X015772Y022472D01*
X015774Y02248D01*
X015776Y022489D01*
X015778Y022497D01*
X015782Y022506D01*
Y022506D01*
X015782Y022507D01*
X015783Y022508D01*
X015784Y022509D01*
X015786Y022512D01*
X01579Y022517D01*
X015794Y022521D01*
X0158Y022526D01*
X015806Y022531D01*
X01581Y022533D01*
X015809Y022535D01*
X015816D01*
X015817Y022535D01*
X015819Y022536D01*
X015822Y022537D01*
X015825Y022538D01*
X015828Y022538D01*
X015832Y022539D01*
X015836Y02254D01*
X015841Y022541D01*
X015846Y022541D01*
X015851Y022542D01*
X015857Y022542D01*
X015863Y022543D01*
X01587D01*
X015999D01*
Y022513D01*
D02*
G37*
G36*
Y021899D02*
X015802D01*
Y021788D01*
X015775D01*
Y021928D01*
X015999D01*
Y021899D01*
D02*
G37*
G36*
Y021723D02*
X015952D01*
X015903Y021606D01*
X015999D01*
Y021576D01*
D01*
Y021546D01*
X015944Y021526D01*
X015999D01*
Y021364D01*
X015973D01*
Y021383D01*
X015904Y02141D01*
Y021372D01*
X015878D01*
Y02142D01*
X015802Y02145D01*
Y021361D01*
X015999Y021285D01*
Y021253D01*
X015775Y021161D01*
Y021195D01*
X015843Y021221D01*
Y021315D01*
X015775Y021339D01*
Y021371D01*
D01*
Y021461D01*
D01*
Y021492D01*
D01*
Y021526D01*
X015865D01*
X015994Y021576D01*
X01587D01*
X015869D01*
X015868D01*
X015866D01*
X015864D01*
X015861Y021577D01*
X015858D01*
X015854Y021577D01*
X01585Y021577D01*
X015841Y021578D01*
X015832Y02158D01*
X015824Y021581D01*
X015819Y021583D01*
X015816Y021584D01*
X015815D01*
X015815Y021584D01*
X015814Y021585D01*
X015812Y021586D01*
X015809Y021588D01*
X015804Y021591D01*
X015799Y021594D01*
X015794Y021599D01*
X015788Y021605D01*
X015783Y021612D01*
Y021612D01*
X015783Y021613D01*
X015782Y021614D01*
X015781Y021615D01*
X015781Y021617D01*
X01578Y02162D01*
X015779Y021623D01*
X015777Y021626D01*
X015776Y021629D01*
X015775Y021633D01*
X015774Y021638D01*
X015773Y021642D01*
X015772Y021647D01*
X015772Y021652D01*
X015771Y021664D01*
Y021667D01*
X015771Y021669D01*
Y021672D01*
X015772Y021675D01*
X015772Y021679D01*
X015772Y021682D01*
X015774Y02169D01*
X015776Y021699D01*
X015778Y021707D01*
X015782Y021716D01*
Y021716D01*
X015782Y021717D01*
X015783Y021718D01*
X015784Y021719D01*
X015786Y021722D01*
X01579Y021727D01*
X015794Y021731D01*
X0158Y021736D01*
X015806Y021741D01*
X01581Y021743D01*
X015809Y021745D01*
X015816D01*
X015817Y021745D01*
X015819Y021746D01*
X015822Y021747D01*
X015825Y021748D01*
X015828Y021748D01*
X015832Y021749D01*
X015836Y02175D01*
X015841Y021751D01*
X015846Y021751D01*
X015851Y021752D01*
X015857Y021752D01*
X015863Y021753D01*
X01587D01*
X015999D01*
Y021723D01*
D02*
G37*
G36*
Y021109D02*
X015802D01*
Y020998D01*
X015775D01*
Y021138D01*
X015999D01*
Y021109D01*
D02*
G37*
G36*
Y020933D02*
X015952D01*
X015903Y020816D01*
X015999D01*
Y020786D01*
D01*
Y020756D01*
X015944Y020736D01*
X015999D01*
Y020574D01*
X015973D01*
Y020593D01*
X015904Y02062D01*
Y020582D01*
X015878D01*
Y02063D01*
X015802Y02066D01*
Y020571D01*
X015999Y020495D01*
Y020463D01*
X015775Y020371D01*
Y020405D01*
X015843Y020431D01*
Y020525D01*
X015775Y020549D01*
Y020581D01*
D01*
Y020671D01*
D01*
Y020702D01*
D01*
Y020736D01*
X015865D01*
X015994Y020786D01*
X01587D01*
X015869D01*
X015868D01*
X015866D01*
X015864D01*
X015861Y020787D01*
X015858D01*
X015854Y020787D01*
X01585Y020787D01*
X015841Y020788D01*
X015832Y02079D01*
X015824Y020791D01*
X015819Y020793D01*
X015816Y020794D01*
X015815D01*
X015815Y020794D01*
X015814Y020795D01*
X015812Y020796D01*
X015809Y020798D01*
X015804Y020801D01*
X015799Y020804D01*
X015794Y020809D01*
X015788Y020815D01*
X015783Y020822D01*
Y020822D01*
X015783Y020823D01*
X015782Y020824D01*
X015781Y020825D01*
X015781Y020827D01*
X01578Y02083D01*
X015779Y020833D01*
X015777Y020836D01*
X015776Y020839D01*
X015775Y020843D01*
X015774Y020848D01*
X015773Y020852D01*
X015772Y020857D01*
X015772Y020862D01*
X015771Y020874D01*
Y020877D01*
X015771Y020879D01*
Y020882D01*
X015772Y020885D01*
X015772Y020889D01*
X015772Y020892D01*
X015774Y0209D01*
X015776Y020909D01*
X015778Y020917D01*
X015782Y020926D01*
Y020926D01*
X015782Y020927D01*
X015783Y020928D01*
X015784Y020929D01*
X015786Y020932D01*
X01579Y020937D01*
X015794Y020941D01*
X0158Y020946D01*
X015806Y020951D01*
X01581Y020953D01*
X015809Y020955D01*
X015816D01*
X015817Y020955D01*
X015819Y020956D01*
X015822Y020957D01*
X015825Y020958D01*
X015828Y020958D01*
X015832Y020959D01*
X015836Y02096D01*
X015841Y020961D01*
X015846Y020961D01*
X015851Y020962D01*
X015857Y020962D01*
X015863Y020963D01*
X01587D01*
X015999D01*
Y020933D01*
D02*
G37*
G36*
Y020319D02*
X015802D01*
Y020208D01*
X015775D01*
Y020348D01*
X015999D01*
Y020319D01*
D02*
G37*
G36*
X01596Y020173D02*
X015999D01*
Y020143D01*
X015948D01*
X015899Y020027D01*
X015873D01*
X015826Y020137D01*
X015824Y020137D01*
X015822Y020135D01*
X015819Y020133D01*
X015816Y020131D01*
X015812Y020127D01*
X015808Y020124D01*
X015805Y020119D01*
X015805Y020118D01*
X015804Y020117D01*
X015803Y020114D01*
X015802Y02011D01*
X0158Y020105D01*
X015799Y0201D01*
X015798Y020093D01*
X015798Y020087D01*
Y020083D01*
X015798Y020082D01*
Y020079D01*
X015799Y020076D01*
X0158Y020069D01*
X015802Y020061D01*
X015804Y020053D01*
X015808Y020046D01*
X01581Y020043D01*
X015813Y02004D01*
X015813Y02004D01*
X015813Y020039D01*
X015814Y020039D01*
X015816Y020038D01*
X015817Y020037D01*
X015819Y020035D01*
X015822Y020034D01*
X015825Y020033D01*
X015829Y020032D01*
X015833Y020031D01*
X015838Y020029D01*
X015843Y020028D01*
X015849Y020027D01*
X015855Y020027D01*
X015862Y020026D01*
X01587D01*
X015999D01*
Y019996D01*
D01*
Y019976D01*
X015916Y019946D01*
X015999D01*
Y019784D01*
X015973D01*
Y019813D01*
X015904Y01984D01*
Y019792D01*
X015878D01*
Y01985D01*
X015802Y01988D01*
Y019791D01*
X015999Y019715D01*
Y019683D01*
X015775Y019591D01*
Y019625D01*
X015843Y019651D01*
Y019745D01*
X015775Y019769D01*
Y019801D01*
D01*
Y019891D01*
D01*
Y019922D01*
D01*
Y019946D01*
X015839D01*
X015968Y019996D01*
X01587D01*
X015869D01*
X015868D01*
X015866D01*
X015864D01*
X015861Y019997D01*
X015858D01*
X015854Y019997D01*
X01585Y019997D01*
X015841Y019998D01*
X015832Y02D01*
X015824Y020001D01*
X015819Y020003D01*
X015816Y020004D01*
X015815D01*
X015815Y020004D01*
X015814Y020005D01*
X015812Y020006D01*
X015809Y020008D01*
X015804Y020011D01*
X015799Y020014D01*
X015794Y020019D01*
X015788Y020025D01*
X015783Y020032D01*
Y020032D01*
X015783Y020033D01*
X015782Y020034D01*
X015781Y020035D01*
X015781Y020037D01*
X01578Y02004D01*
X015779Y020043D01*
X015777Y020046D01*
X015776Y020049D01*
X015775Y020053D01*
X015774Y020058D01*
X015773Y020062D01*
X015772Y020067D01*
X015772Y020072D01*
X015771Y020084D01*
Y020087D01*
X015771Y020089D01*
Y020092D01*
X015772Y020095D01*
X015772Y020099D01*
X015772Y020102D01*
X015774Y02011D01*
X015776Y020119D01*
X015778Y020127D01*
X015782Y020136D01*
Y020136D01*
X015782Y020137D01*
X015783Y020138D01*
X015784Y020139D01*
X015786Y020142D01*
X01579Y020147D01*
X015794Y020151D01*
X0158Y020156D01*
X015806Y020161D01*
X015813Y020164D01*
X015814D01*
X015814Y020164D01*
X015809Y020175D01*
X015837D01*
X015839Y02017D01*
X015841Y020171D01*
X015846Y020171D01*
X015851Y020172D01*
X015857Y020172D01*
X015863Y020173D01*
X01587D01*
X015933D01*
X015934Y020175D01*
X015961D01*
X01596Y020173D01*
D02*
G37*
G36*
X015999Y019539D02*
X015802D01*
Y019428D01*
X015775D01*
Y019568D01*
X015999D01*
Y019539D01*
D02*
G37*
G36*
Y019363D02*
X015952D01*
X015903Y019246D01*
X015999D01*
Y019216D01*
D01*
Y019186D01*
X015944Y019166D01*
X015999D01*
Y019004D01*
X015973D01*
Y019023D01*
X015904Y01905D01*
Y019012D01*
X015878D01*
Y01906D01*
X015802Y01909D01*
Y019001D01*
X015999Y018925D01*
Y018893D01*
X015775Y018801D01*
Y018835D01*
X015843Y018861D01*
Y018955D01*
X015775Y018979D01*
Y019011D01*
D01*
Y019101D01*
D01*
Y019132D01*
D01*
Y019166D01*
X015865D01*
X015994Y019216D01*
X01587D01*
X015869D01*
X015868D01*
X015866D01*
X015864D01*
X015861Y019217D01*
X015858D01*
X015854Y019217D01*
X01585Y019217D01*
X015841Y019218D01*
X015832Y01922D01*
X015824Y019221D01*
X015819Y019223D01*
X015816Y019224D01*
X015815D01*
X015815Y019224D01*
X015814Y019225D01*
X015812Y019226D01*
X015809Y019228D01*
X015804Y019231D01*
X015799Y019234D01*
X015794Y019239D01*
X015788Y019245D01*
X015783Y019252D01*
Y019252D01*
X015783Y019253D01*
X015782Y019254D01*
X015781Y019255D01*
X015781Y019257D01*
X01578Y01926D01*
X015779Y019263D01*
X015777Y019266D01*
X015776Y019269D01*
X015775Y019273D01*
X015774Y019278D01*
X015773Y019282D01*
X015772Y019287D01*
X015772Y019292D01*
X015771Y019304D01*
Y019307D01*
X015771Y019309D01*
Y019312D01*
X015772Y019315D01*
X015772Y019319D01*
X015772Y019322D01*
X015774Y01933D01*
X015776Y019339D01*
X015778Y019347D01*
X015782Y019356D01*
Y019356D01*
X015782Y019357D01*
X015783Y019358D01*
X015784Y019359D01*
X015786Y019362D01*
X01579Y019367D01*
X015794Y019371D01*
X0158Y019376D01*
X015806Y019381D01*
X01581Y019383D01*
X015809Y019385D01*
X015816D01*
X015817Y019385D01*
X015819Y019386D01*
X015822Y019387D01*
X015825Y019388D01*
X015828Y019388D01*
X015832Y019389D01*
X015836Y01939D01*
X015841Y019391D01*
X015846Y019391D01*
X015851Y019392D01*
X015857Y019392D01*
X015863Y019393D01*
X01587D01*
X015999D01*
Y019363D01*
D02*
G37*
G36*
Y018749D02*
X015802D01*
Y018638D01*
X015775D01*
Y018778D01*
X015999D01*
Y018749D01*
D02*
G37*
G36*
Y018573D02*
X01587D01*
X015869D01*
X015868D01*
X015867D01*
X015865D01*
X015862Y018572D01*
X01586D01*
X015853Y018572D01*
X015846Y018571D01*
X015839Y01857D01*
X015832Y018569D01*
X015829Y018569D01*
X015827Y018568D01*
X015826Y018567D01*
X015824Y018567D01*
X015822Y018565D01*
X015819Y018563D01*
X015816Y018561D01*
X015812Y018557D01*
X015808Y018554D01*
X015805Y018549D01*
X015805Y018548D01*
X015804Y018547D01*
X015803Y018544D01*
X015802Y01854D01*
X0158Y018535D01*
X015799Y01853D01*
X015798Y018523D01*
X015798Y018517D01*
Y018513D01*
X015798Y018512D01*
Y018509D01*
X015799Y018506D01*
X0158Y018499D01*
X015802Y018491D01*
X015804Y018483D01*
X015808Y018476D01*
X01581Y018473D01*
X015813Y01847D01*
X015813Y01847D01*
X015813Y018469D01*
X015814Y018469D01*
X015816Y018468D01*
X015817Y018467D01*
X015819Y018465D01*
X015822Y018464D01*
X015825Y018463D01*
X015829Y018462D01*
X015833Y018461D01*
X015838Y018459D01*
X015843Y018458D01*
X015849Y018457D01*
X015855Y018457D01*
X015862Y018456D01*
X01587D01*
X015999D01*
Y018426D01*
X01587D01*
X015869D01*
X015868D01*
X015866D01*
X015864D01*
X015861Y018427D01*
X015858D01*
X015854Y018427D01*
X01585Y018427D01*
X015841Y018428D01*
X015832Y01843D01*
X015824Y018431D01*
X015819Y018433D01*
X015816Y018434D01*
X015815D01*
X015815Y018434D01*
X015814Y018435D01*
X015812Y018436D01*
X015809Y018438D01*
X015804Y018441D01*
X015799Y018444D01*
X015794Y018449D01*
X015788Y018455D01*
X015783Y018462D01*
Y018462D01*
X015783Y018463D01*
X015782Y018464D01*
X015781Y018465D01*
X015781Y018467D01*
X01578Y01847D01*
X015779Y018473D01*
X015777Y018476D01*
X015776Y018479D01*
X015775Y018483D01*
X015774Y018488D01*
X015773Y018492D01*
X015772Y018497D01*
X015772Y018502D01*
X015771Y018514D01*
Y018517D01*
X015771Y018519D01*
Y018522D01*
X015772Y018525D01*
X015772Y018529D01*
X015772Y018532D01*
X015774Y01854D01*
X015776Y018549D01*
X015778Y018557D01*
X015782Y018566D01*
Y018566D01*
X015782Y018567D01*
X015783Y018568D01*
X015784Y018569D01*
X015786Y018572D01*
X01579Y018577D01*
X015794Y018581D01*
X0158Y018586D01*
X015806Y018591D01*
X015813Y018594D01*
X015814D01*
X015814Y018594D01*
X015816Y018595D01*
X015817Y018595D01*
X015819Y018596D01*
X015822Y018597D01*
X015825Y018598D01*
X015828Y018598D01*
X015832Y018599D01*
X015836Y0186D01*
X015841Y018601D01*
X015846Y018601D01*
X015851Y018602D01*
X015857Y018602D01*
X015863Y018603D01*
X01587D01*
X015999D01*
Y018573D01*
D02*
G37*
G36*
Y018214D02*
X015973D01*
Y018347D01*
X015904D01*
Y018222D01*
X015878D01*
Y018347D01*
X015802D01*
Y018209D01*
X015775D01*
Y018376D01*
X015999D01*
Y018214D01*
D02*
G37*
G36*
X022589Y023957D02*
X022563D01*
D01*
X022553D01*
X022489Y024105D01*
X022517D01*
D01*
X022527D01*
X02257Y024D01*
X022614Y024105D01*
X022641D01*
D01*
X022651D01*
X022589Y023957D01*
D02*
G37*
G36*
X022689Y023906D02*
X022526Y023848D01*
X022526D01*
X022525Y023847D01*
X022524Y023847D01*
X022523Y023846D01*
X022521Y023846D01*
X022519Y023845D01*
X022514Y023844D01*
X022509Y023842D01*
X022503Y02384D01*
X02249Y023836D01*
X02249D01*
X022491Y023836D01*
X022492Y023835D01*
X022493Y023835D01*
X022496Y023834D01*
X022501Y023833D01*
X022507Y023831D01*
X022513Y023829D01*
X022519Y023827D01*
X022526Y023824D01*
X022689Y023763D01*
Y023733D01*
X022679Y023737D01*
Y023733D01*
X022455Y023821D01*
Y023852D01*
X022679Y023938D01*
Y023935D01*
X022689Y023938D01*
Y023906D01*
D02*
G37*
G36*
Y023645D02*
Y023613D01*
X022465Y023521D01*
Y023525D01*
X022455Y023521D01*
Y023555D01*
X022523Y023581D01*
Y023675D01*
X022455Y023699D01*
Y023731D01*
X022465Y023727D01*
Y023731D01*
X022689Y023645D01*
D02*
G37*
G36*
Y023469D02*
X022492D01*
Y023358D01*
X022465D01*
D01*
X022455D01*
Y023498D01*
X022679D01*
D01*
X022689D01*
Y023469D01*
D02*
G37*
G36*
X02265Y023323D02*
X022679D01*
D01*
X022689D01*
Y023293D01*
X022638D01*
X022589Y023177D01*
X022563D01*
X022516Y023287D01*
X022514Y023287D01*
X022512Y023285D01*
X022509Y023283D01*
X022506Y023281D01*
X022502Y023277D01*
X022498Y023274D01*
X022495Y023269D01*
X022495Y023268D01*
X022494Y023267D01*
X022493Y023264D01*
X022492Y02326D01*
X02249Y023255D01*
X022489Y02325D01*
X022488Y023243D01*
X022488Y023237D01*
Y023233D01*
X022488Y023231D01*
Y023229D01*
X022489Y023226D01*
X02249Y023219D01*
X022492Y023211D01*
X022494Y023203D01*
X022498Y023196D01*
X0225Y023193D01*
X022503Y02319D01*
X022503Y02319D01*
X022503Y023189D01*
X022504Y023189D01*
X022506Y023188D01*
X022507Y023187D01*
X022509Y023185D01*
X022512Y023184D01*
X022515Y023183D01*
X022519Y023182D01*
X022523Y023181D01*
X022528Y023179D01*
X022533Y023178D01*
X022539Y023177D01*
X022545Y023177D01*
X022552Y023176D01*
X022679D01*
D01*
X022689D01*
Y023146D01*
D01*
Y023126D01*
X022606Y023096D01*
X022679D01*
D01*
X022689D01*
Y022934D01*
X022663D01*
D01*
X022653D01*
Y022967D01*
X022594Y02299D01*
Y022942D01*
X022568D01*
D01*
X022558D01*
Y023004D01*
X022492Y02303D01*
Y022941D01*
X022689Y022865D01*
Y022833D01*
X022465Y022741D01*
Y022775D01*
X022533Y022801D01*
Y022895D01*
X022465Y022919D01*
Y022929D01*
X022455D01*
Y023096D01*
X022529D01*
X022658Y023146D01*
X02256D01*
X022559D01*
X022558D01*
X022556D01*
X022554D01*
D01*
X02255D01*
X022549D01*
X022548D01*
X022546D01*
X022544D01*
X022541Y023147D01*
X022538D01*
X022534Y023147D01*
X02253Y023147D01*
X022521Y023148D01*
X022512Y02315D01*
X022504Y023151D01*
X022499Y023153D01*
X022496Y023154D01*
X022495D01*
X022495Y023154D01*
X022494Y023155D01*
X022492Y023156D01*
X022489Y023158D01*
X022484Y023161D01*
X022479Y023164D01*
X022474Y023169D01*
X022468Y023175D01*
X022463Y023182D01*
Y023182D01*
X022463Y023183D01*
X022462Y023184D01*
X022461Y023185D01*
X022461Y023187D01*
X02246Y02319D01*
X022459Y023193D01*
X022457Y023196D01*
X022456Y023199D01*
X022455Y023203D01*
X022454Y023208D01*
X022453Y023212D01*
X022452Y023217D01*
X022452Y023222D01*
X022451Y023234D01*
Y023237D01*
X022451Y023239D01*
Y023242D01*
X022452Y023245D01*
X022452Y023249D01*
X022452Y023252D01*
X022454Y02326D01*
X022456Y023269D01*
X022458Y023277D01*
X022462Y023286D01*
Y023286D01*
X022462Y023287D01*
X022463Y023288D01*
X022464Y023289D01*
X022466Y023292D01*
X02247Y023297D01*
X022474Y023301D01*
X02248Y023306D01*
X022486Y023311D01*
X022493Y023314D01*
X022494D01*
X022494Y023314D01*
X022496Y023315D01*
X022497Y023315D01*
X022499Y023316D01*
X022502Y023317D01*
X022503Y023317D01*
X022499Y023325D01*
X022527D01*
X022528Y023322D01*
X022531Y023322D01*
X022537Y023322D01*
X022543Y023323D01*
X02255D01*
X022623D01*
X022624Y023325D01*
X022651D01*
X02265Y023323D01*
D02*
G37*
G36*
X022689Y022689D02*
X022492D01*
Y022578D01*
X022465D01*
Y022718D01*
X022689D01*
Y022689D01*
D02*
G37*
G36*
Y022513D02*
X022642D01*
X022593Y022396D01*
X022689D01*
Y022366D01*
D01*
Y022336D01*
X022634Y022316D01*
X022689D01*
Y022154D01*
X022663D01*
Y022173D01*
X022594Y0222D01*
Y022162D01*
X022568D01*
Y02221D01*
X022492Y02224D01*
Y022151D01*
X022689Y022075D01*
Y022043D01*
X022465Y021951D01*
Y021985D01*
X022533Y022011D01*
Y022105D01*
X022465Y022129D01*
Y022161D01*
D01*
Y022251D01*
D01*
Y022282D01*
D01*
Y022316D01*
X022555D01*
X022684Y022366D01*
X02256D01*
X022559D01*
X022558D01*
X022556D01*
X022554D01*
X022551Y022367D01*
X022548D01*
X022544Y022367D01*
X02254Y022367D01*
X022531Y022368D01*
X022522Y02237D01*
X022514Y022371D01*
X022509Y022373D01*
X022506Y022374D01*
X022505D01*
X022505Y022374D01*
X022504Y022375D01*
X022502Y022376D01*
X022499Y022378D01*
X022494Y022381D01*
X022489Y022384D01*
X022484Y022389D01*
X022478Y022395D01*
X022473Y022402D01*
Y022402D01*
X022473Y022403D01*
X022472Y022404D01*
X022471Y022405D01*
X022471Y022407D01*
X02247Y02241D01*
X022469Y022413D01*
X022467Y022416D01*
X022466Y022419D01*
X022465Y022423D01*
X022464Y022428D01*
X022463Y022432D01*
X022462Y022437D01*
X022462Y022442D01*
X022461Y022454D01*
Y022457D01*
X022461Y022459D01*
Y022462D01*
X022462Y022465D01*
X022462Y022469D01*
X022462Y022472D01*
X022464Y02248D01*
X022466Y022489D01*
X022468Y022497D01*
X022472Y022506D01*
Y022506D01*
X022472Y022507D01*
X022473Y022508D01*
X022474Y022509D01*
X022476Y022512D01*
X02248Y022517D01*
X022484Y022521D01*
X02249Y022526D01*
X022496Y022531D01*
X0225Y022533D01*
X022499Y022535D01*
X022506D01*
X022507Y022535D01*
X022509Y022536D01*
X022512Y022537D01*
X022515Y022538D01*
X022518Y022538D01*
X022522Y022539D01*
X022526Y02254D01*
X022531Y022541D01*
X022536Y022541D01*
X022541Y022542D01*
X022547Y022542D01*
X022553Y022543D01*
X02256D01*
X022689D01*
Y022513D01*
D02*
G37*
G36*
Y021899D02*
X022492D01*
Y021788D01*
X022465D01*
Y021928D01*
X022689D01*
Y021899D01*
D02*
G37*
G36*
Y021723D02*
X022642D01*
X022593Y021606D01*
X022689D01*
Y021576D01*
D01*
Y021546D01*
X022634Y021526D01*
X022689D01*
Y021364D01*
X022663D01*
Y021383D01*
X022594Y02141D01*
Y021372D01*
X022568D01*
Y02142D01*
X022492Y02145D01*
Y021361D01*
X022689Y021285D01*
Y021253D01*
X022465Y021161D01*
Y021195D01*
X022533Y021221D01*
Y021315D01*
X022465Y021339D01*
Y021371D01*
D01*
Y021461D01*
D01*
Y021492D01*
D01*
Y021526D01*
X022555D01*
X022684Y021576D01*
X02256D01*
X022559D01*
X022558D01*
X022556D01*
X022554D01*
X022551Y021577D01*
X022548D01*
X022544Y021577D01*
X02254Y021577D01*
X022531Y021578D01*
X022522Y02158D01*
X022514Y021581D01*
X022509Y021583D01*
X022506Y021584D01*
X022505D01*
X022505Y021584D01*
X022504Y021585D01*
X022502Y021586D01*
X022499Y021588D01*
X022494Y021591D01*
X022489Y021594D01*
X022484Y021599D01*
X022478Y021605D01*
X022473Y021612D01*
Y021612D01*
X022473Y021613D01*
X022472Y021614D01*
X022471Y021615D01*
X022471Y021617D01*
X02247Y02162D01*
X022469Y021623D01*
X022467Y021626D01*
X022466Y021629D01*
X022465Y021633D01*
X022464Y021638D01*
X022463Y021642D01*
X022462Y021647D01*
X022462Y021652D01*
X022461Y021664D01*
Y021667D01*
X022461Y021669D01*
Y021672D01*
X022462Y021675D01*
X022462Y021679D01*
X022462Y021682D01*
X022464Y02169D01*
X022466Y021699D01*
X022468Y021707D01*
X022472Y021716D01*
Y021716D01*
X022472Y021717D01*
X022473Y021718D01*
X022474Y021719D01*
X022476Y021722D01*
X02248Y021727D01*
X022484Y021731D01*
X02249Y021736D01*
X022496Y021741D01*
X0225Y021743D01*
X022499Y021745D01*
X022506D01*
X022507Y021745D01*
X022509Y021746D01*
X022512Y021747D01*
X022515Y021748D01*
X022518Y021748D01*
X022522Y021749D01*
X022526Y02175D01*
X022531Y021751D01*
X022536Y021751D01*
X022541Y021752D01*
X022547Y021752D01*
X022553Y021753D01*
X02256D01*
X022689D01*
Y021723D01*
D02*
G37*
G36*
Y021109D02*
X022492D01*
Y020998D01*
X022465D01*
Y021138D01*
X022689D01*
Y021109D01*
D02*
G37*
G36*
Y020933D02*
X022642D01*
X022593Y020816D01*
X022689D01*
Y020786D01*
D01*
Y020756D01*
X022634Y020736D01*
X022689D01*
Y020574D01*
X022663D01*
Y020593D01*
X022594Y02062D01*
Y020582D01*
X022568D01*
Y02063D01*
X022492Y02066D01*
Y020571D01*
X022689Y020495D01*
Y020463D01*
X022465Y020371D01*
Y020405D01*
X022533Y020431D01*
Y020525D01*
X022465Y020549D01*
Y020581D01*
D01*
Y020671D01*
D01*
Y020702D01*
D01*
Y020736D01*
X022555D01*
X022684Y020786D01*
X02256D01*
X022559D01*
X022558D01*
X022556D01*
X022554D01*
X022551Y020787D01*
X022548D01*
X022544Y020787D01*
X02254Y020787D01*
X022531Y020788D01*
X022522Y02079D01*
X022514Y020791D01*
X022509Y020793D01*
X022506Y020794D01*
X022505D01*
X022505Y020794D01*
X022504Y020795D01*
X022502Y020796D01*
X022499Y020798D01*
X022494Y020801D01*
X022489Y020804D01*
X022484Y020809D01*
X022478Y020815D01*
X022473Y020822D01*
Y020822D01*
X022473Y020823D01*
X022472Y020824D01*
X022471Y020825D01*
X022471Y020827D01*
X02247Y02083D01*
X022469Y020833D01*
X022467Y020836D01*
X022466Y020839D01*
X022465Y020843D01*
X022464Y020848D01*
X022463Y020852D01*
X022462Y020857D01*
X022462Y020862D01*
X022461Y020874D01*
Y020877D01*
X022461Y020879D01*
Y020882D01*
X022462Y020885D01*
X022462Y020889D01*
X022462Y020892D01*
X022464Y0209D01*
X022466Y020909D01*
X022468Y020917D01*
X022472Y020926D01*
Y020926D01*
X022472Y020927D01*
X022473Y020928D01*
X022474Y020929D01*
X022476Y020932D01*
X02248Y020937D01*
X022484Y020941D01*
X02249Y020946D01*
X022496Y020951D01*
X0225Y020953D01*
X022499Y020955D01*
X022506D01*
X022507Y020955D01*
X022509Y020956D01*
X022512Y020957D01*
X022515Y020958D01*
X022518Y020958D01*
X022522Y020959D01*
X022526Y02096D01*
X022531Y020961D01*
X022536Y020961D01*
X022541Y020962D01*
X022547Y020962D01*
X022553Y020963D01*
X02256D01*
X022689D01*
Y020933D01*
D02*
G37*
G36*
Y020319D02*
X022492D01*
Y020208D01*
X022465D01*
Y020348D01*
X022689D01*
Y020319D01*
D02*
G37*
G36*
X022622Y020173D02*
X022623D01*
X022624Y020175D01*
X022651D01*
X02265Y020173D01*
X022689D01*
Y020143D01*
X022638D01*
X022589Y020027D01*
X022563D01*
X022554Y020047D01*
X022543D01*
X022507Y020131D01*
X022506Y020131D01*
X022502Y020127D01*
X022498Y020124D01*
X022495Y020119D01*
X022495Y020118D01*
X022494Y020117D01*
X022493Y020114D01*
X022492Y02011D01*
X02249Y020105D01*
X022489Y0201D01*
X022488Y020093D01*
X022488Y020087D01*
Y020083D01*
X022488Y020082D01*
Y020079D01*
X022489Y020076D01*
X02249Y020069D01*
X022492Y020061D01*
X022494Y020053D01*
X022498Y020046D01*
X0225Y020043D01*
X022503Y02004D01*
X022503Y02004D01*
X022503Y020039D01*
X022504Y020039D01*
X022506Y020038D01*
X022507Y020037D01*
X022509Y020035D01*
X022512Y020034D01*
X022515Y020033D01*
X022519Y020032D01*
X022523Y020031D01*
X022528Y020029D01*
X022533Y020028D01*
X022539Y020027D01*
X022545Y020027D01*
X022552Y020026D01*
X02256D01*
X022663D01*
X022669Y020028D01*
Y020026D01*
X022689D01*
Y019996D01*
D01*
Y019976D01*
X022606Y019946D01*
X022689D01*
Y019784D01*
X022663D01*
Y019813D01*
X022594Y01984D01*
Y019792D01*
X022568D01*
Y01985D01*
X022492Y01988D01*
Y019803D01*
X022669Y019735D01*
Y019723D01*
X022689Y019715D01*
Y019683D01*
X022465Y019591D01*
Y019619D01*
X022445Y019611D01*
Y019645D01*
X022513Y019671D01*
Y019752D01*
X022465Y019769D01*
Y019782D01*
X022445Y019789D01*
Y019821D01*
X022465Y019813D01*
Y019891D01*
D01*
Y019903D01*
X022445Y019911D01*
Y019942D01*
X022586Y019996D01*
X02256D01*
X022559D01*
X022558D01*
X022556D01*
X022554D01*
X022551Y019997D01*
X022548D01*
X022544Y019997D01*
X02254Y019997D01*
X022531Y019998D01*
X022522Y02D01*
X022514Y020001D01*
X022509Y020003D01*
X022506Y020004D01*
X022505D01*
X022505Y020004D01*
X022504Y020005D01*
X022502Y020006D01*
X022499Y020008D01*
X022494Y020011D01*
X022489Y020014D01*
X022484Y020019D01*
X022478Y020025D01*
X022473Y020032D01*
Y020032D01*
X022473Y020033D01*
X022472Y020034D01*
X022471Y020035D01*
X022471Y020037D01*
X02247Y02004D01*
X022469Y020043D01*
X022467Y020046D01*
X022466Y020049D01*
X022465Y020053D01*
X022464Y020058D01*
X022463Y020062D01*
X022462Y020067D01*
X022462Y020072D01*
X022461Y020084D01*
Y020087D01*
X022461Y020089D01*
Y020092D01*
X022462Y020095D01*
X022462Y020099D01*
X022462Y020102D01*
X022464Y02011D01*
X022466Y020119D01*
X022468Y020127D01*
X022472Y020136D01*
Y020136D01*
X022472Y020137D01*
X022473Y020138D01*
X022474Y020139D01*
X022476Y020142D01*
X02248Y020147D01*
X022484Y020151D01*
X02249Y020156D01*
X022495Y020159D01*
X022479Y020195D01*
X022507D01*
X022515Y020175D01*
X022527D01*
X022529Y02017D01*
X022531Y020171D01*
X022536Y020171D01*
X022541Y020172D01*
X022547Y020172D01*
X022553Y020173D01*
X02256D01*
X022595D01*
X022604Y020195D01*
X022631D01*
X022622Y020173D01*
D02*
G37*
G36*
X022669Y019568D02*
X022689D01*
Y019539D01*
X022492D01*
Y019428D01*
X022465D01*
Y019448D01*
X022445D01*
Y019588D01*
X022669D01*
Y019568D01*
D02*
G37*
G36*
Y019393D02*
X022689D01*
Y019363D01*
X022642D01*
X022601Y019266D01*
X022669D01*
Y019246D01*
X022689D01*
Y019216D01*
D01*
Y019186D01*
X022669Y019179D01*
Y019166D01*
X022689D01*
Y019004D01*
X022663D01*
Y019023D01*
X022661Y019024D01*
X022643D01*
Y019031D01*
X022594Y01905D01*
Y019012D01*
X022568D01*
Y019032D01*
X022548D01*
Y019068D01*
X022492Y01909D01*
Y019003D01*
X022669Y018935D01*
Y018933D01*
X022689Y018925D01*
Y018893D01*
X022465Y018801D01*
Y018819D01*
X022445Y018811D01*
Y018845D01*
X022513Y018871D01*
Y018962D01*
X022465Y018979D01*
Y018982D01*
X022445Y018989D01*
Y019021D01*
D01*
Y019111D01*
D01*
Y019142D01*
D01*
Y019186D01*
X022561D01*
X022638Y019216D01*
X02256D01*
X022559D01*
X022558D01*
X022556D01*
X022554D01*
X022551Y019217D01*
X022548D01*
X022544Y019217D01*
X02254Y019217D01*
X022531Y019218D01*
X022522Y01922D01*
X022514Y019221D01*
X022509Y019223D01*
X022506Y019224D01*
X022505D01*
X022505Y019224D01*
X022504Y019225D01*
X022502Y019226D01*
X022499Y019228D01*
X022494Y019231D01*
X022489Y019234D01*
X022484Y019239D01*
X022478Y019245D01*
X022475Y01925D01*
X022474Y019251D01*
X022469Y019254D01*
X022464Y019259D01*
X022458Y019265D01*
X022453Y019272D01*
Y019272D01*
X022453Y019273D01*
X022452Y019274D01*
X022451Y019275D01*
X022451Y019277D01*
X02245Y01928D01*
X022449Y019283D01*
X022447Y019286D01*
X022446Y019289D01*
X022445Y019293D01*
X022444Y019298D01*
X022443Y019302D01*
X022442Y019307D01*
X022442Y019312D01*
X022441Y019324D01*
Y019327D01*
X022441Y019329D01*
Y019332D01*
X022442Y019335D01*
X022442Y019339D01*
X022442Y019342D01*
X022444Y01935D01*
X022446Y019359D01*
X022448Y019368D01*
X022452Y019376D01*
Y019376D01*
X022452Y019377D01*
X022453Y019378D01*
X022454Y019379D01*
X022456Y019382D01*
X02246Y019387D01*
X022464Y019391D01*
X02247Y019396D01*
X022476Y019401D01*
X022483Y019404D01*
X022484D01*
X022484Y019404D01*
X022485Y019405D01*
X022487Y019405D01*
X022489Y019406D01*
X022492Y019407D01*
X022495Y019408D01*
X022498Y019408D01*
X022502Y019409D01*
X022506Y01941D01*
X022511Y019411D01*
X022516Y019411D01*
X022521Y019412D01*
X022527Y019412D01*
X022533Y019413D01*
X02254D01*
X022669D01*
Y019393D01*
D02*
G37*
G36*
Y018778D02*
X022689D01*
Y018749D01*
X022492D01*
Y018638D01*
X022465D01*
Y018648D01*
X022445D01*
Y018788D01*
X022669D01*
Y018778D01*
D02*
G37*
G36*
Y018603D02*
X022689D01*
Y018573D01*
X02256D01*
X022559D01*
X022558D01*
X022557D01*
X022555D01*
X022552Y018572D01*
X02255D01*
X022543Y018572D01*
X022536Y018571D01*
X022529Y01857D01*
X022522Y018569D01*
X022519Y018569D01*
X022517Y018568D01*
X022516Y018567D01*
X022514Y018567D01*
X022512Y018565D01*
X022509Y018563D01*
X022506Y018561D01*
X022502Y018557D01*
X022498Y018554D01*
X022495Y018549D01*
X022495Y018548D01*
X022494Y018547D01*
X022493Y018544D01*
X022492Y01854D01*
X02249Y018535D01*
X022489Y01853D01*
X022488Y018523D01*
X022488Y018517D01*
Y018513D01*
X022488Y018512D01*
Y018509D01*
X022489Y018506D01*
X02249Y018499D01*
X022492Y018491D01*
X022494Y018483D01*
X022498Y018476D01*
X0225Y018473D01*
X022502Y018471D01*
X022503Y018471D01*
X022508Y018469D01*
X022513Y018468D01*
X022519Y018467D01*
X022525Y018467D01*
X022532Y018466D01*
X02254D01*
X022669D01*
Y018456D01*
X022689D01*
Y018426D01*
X02256D01*
X022559D01*
X022558D01*
X022556D01*
X022554D01*
X022551Y018427D01*
X022548D01*
X022544Y018427D01*
X02254Y018427D01*
X022531Y018428D01*
X022522Y01843D01*
X022514Y018431D01*
X022509Y018433D01*
X022506Y018434D01*
X022505D01*
X022505Y018434D01*
X022504Y018435D01*
X022502Y018436D01*
X022499Y018438D01*
X022494Y018441D01*
X022492Y018442D01*
X022489Y018443D01*
X022485Y018444D01*
X022485D01*
X022485Y018444D01*
X022484Y018445D01*
X022482Y018446D01*
X022479Y018448D01*
X022474Y018451D01*
X022469Y018454D01*
X022464Y018459D01*
X022458Y018465D01*
X022453Y018472D01*
Y018472D01*
X022453Y018473D01*
X022452Y018474D01*
X022451Y018475D01*
X022451Y018477D01*
X02245Y01848D01*
X022449Y018483D01*
X022447Y018486D01*
X022446Y018489D01*
X022445Y018493D01*
X022444Y018498D01*
X022443Y018502D01*
X022442Y018507D01*
X022442Y018512D01*
X022441Y018524D01*
Y018527D01*
X022441Y018529D01*
Y018532D01*
X022442Y018535D01*
X022442Y018539D01*
X022442Y018542D01*
X022444Y01855D01*
X022446Y018559D01*
X022448Y018568D01*
X022452Y018576D01*
Y018576D01*
X022452Y018577D01*
X022453Y018578D01*
X022454Y018579D01*
X022456Y018582D01*
X02246Y018587D01*
X022464Y018591D01*
X02247Y018596D01*
X022476Y018601D01*
X022483Y018604D01*
X022484D01*
X022484Y018604D01*
X022485Y018605D01*
X022487Y018605D01*
X022489Y018606D01*
X022492Y018607D01*
X022495Y018608D01*
X022498Y018608D01*
X022502Y018609D01*
X022506Y01861D01*
X022511Y018611D01*
X022516Y018611D01*
X022521Y018612D01*
X022527Y018612D01*
X022533Y018613D01*
X02254D01*
X022669D01*
Y018603D01*
D02*
G37*
G36*
Y018376D02*
X022689D01*
Y018214D01*
X022663D01*
Y018224D01*
X022643D01*
Y018347D01*
X022594D01*
Y018222D01*
X022568D01*
Y018232D01*
X022548D01*
Y018347D01*
X022492D01*
Y018209D01*
X022465D01*
Y018219D01*
X022445D01*
Y018386D01*
X022669D01*
Y018376D01*
D02*
G37*
%LPC*%
G36*
X015867Y024456D02*
Y02438D01*
X015929Y024404D01*
X015929D01*
X01593Y024404D01*
X015932Y024405D01*
X015934Y024405D01*
X015936Y024406D01*
X015939Y024407D01*
X015942Y024408D01*
X015945Y02441D01*
X015953Y024412D01*
X015961Y024415D01*
X015968Y024417D01*
X015976Y02442D01*
X015976D01*
X015975Y02442D01*
X015974D01*
X015972Y024421D01*
X01597Y024421D01*
X015968Y024422D01*
X015962Y024423D01*
X015956Y024425D01*
X015949Y024427D01*
X015941Y024429D01*
X015933Y024432D01*
X015867Y024456D01*
D02*
G37*
G36*
X015925Y024083D02*
X01587D01*
X015869D01*
X015868D01*
X015867D01*
X015865D01*
X015862Y024082D01*
X01586D01*
X015853Y024082D01*
X015847Y024081D01*
X015885Y023988D01*
X015925Y024083D01*
D02*
G37*
G36*
X015822Y024075D02*
X015822Y024075D01*
X015819Y024073D01*
X015816Y024071D01*
X015812Y024067D01*
X015808Y024064D01*
X015805Y024059D01*
X015805Y024058D01*
X015804Y024057D01*
X015803Y024054D01*
X015802Y02405D01*
X0158Y024045D01*
X015799Y02404D01*
X015798Y024033D01*
X015798Y024027D01*
Y024023D01*
X015798Y024021D01*
Y024019D01*
X015799Y024016D01*
X0158Y024009D01*
X015802Y024001D01*
X015804Y023993D01*
X015808Y023986D01*
X01581Y023983D01*
X015813Y02398D01*
X015813Y02398D01*
X015813Y023979D01*
X015814Y023979D01*
X015816Y023978D01*
X015817Y023977D01*
X015819Y023975D01*
X015822Y023974D01*
X015825Y023973D01*
X015829Y023972D01*
X015833Y023971D01*
X015838Y023969D01*
X015843Y023968D01*
X015849Y023967D01*
X015855Y023967D01*
X015862Y023966D01*
X015869D01*
X015822Y024075D01*
D02*
G37*
G36*
X015878Y023857D02*
X015861D01*
X015836Y023848D01*
X015836D01*
X015835Y023847D01*
X015834Y023847D01*
X015833Y023846D01*
X015831Y023846D01*
X015829Y023845D01*
X015824Y023844D01*
X015819Y023842D01*
X015813Y02384D01*
X015802Y023837D01*
Y023835D01*
X015803Y023835D01*
X015806Y023834D01*
X015811Y023833D01*
X015817Y023831D01*
X015823Y023829D01*
X015829Y023827D01*
X015836Y023824D01*
X015878Y023809D01*
Y023857D01*
D02*
G37*
G36*
X015973D02*
X015904D01*
Y023799D01*
X015973Y023773D01*
Y023857D01*
D02*
G37*
G36*
X015867Y023666D02*
Y02359D01*
X015929Y023614D01*
X015929D01*
X01593Y023614D01*
X015932Y023615D01*
X015934Y023615D01*
X015936Y023616D01*
X015939Y023617D01*
X015942Y023618D01*
X015945Y02362D01*
X015953Y023622D01*
X015961Y023625D01*
X015968Y023627D01*
X015976Y02363D01*
X015976D01*
X015975Y02363D01*
X015974D01*
X015972Y023631D01*
X01597Y023631D01*
X015968Y023632D01*
X015962Y023633D01*
X015956Y023635D01*
X015949Y023637D01*
X015941Y023639D01*
X015933Y023642D01*
X015867Y023666D01*
D02*
G37*
G36*
X01592Y023293D02*
X01587D01*
X015869D01*
X015868D01*
X015867D01*
X015865D01*
X015862Y023292D01*
X01586D01*
X015853Y023292D01*
X015851Y023292D01*
X015885Y023208D01*
X01592Y023293D01*
D02*
G37*
G36*
X015878Y023067D02*
X015833D01*
X015833Y023066D01*
X015831Y023066D01*
X015829Y023065D01*
X015824Y023064D01*
X015819Y023062D01*
X015813Y02306D01*
X015802Y023057D01*
Y023055D01*
X015803Y023055D01*
X015806Y023054D01*
X015811Y023053D01*
X015817Y023051D01*
X015823Y023049D01*
X015829Y023047D01*
X015836Y023044D01*
X015878Y023029D01*
Y023067D01*
D02*
G37*
G36*
X015973D02*
X015904D01*
Y023019D01*
X015973Y022993D01*
Y023067D01*
D02*
G37*
G36*
X015867Y022886D02*
Y02281D01*
X015929Y022834D01*
X015929D01*
X01593Y022834D01*
X015932Y022835D01*
X015934Y022835D01*
X015936Y022836D01*
X015939Y022837D01*
X015942Y022838D01*
X015945Y02284D01*
X015953Y022842D01*
X015961Y022845D01*
X015968Y022847D01*
X015976Y02285D01*
X015976D01*
X015975Y02285D01*
X015974D01*
X015972Y022851D01*
X01597Y022851D01*
X015968Y022852D01*
X015962Y022853D01*
X015956Y022855D01*
X015949Y022857D01*
X015941Y022859D01*
X015933Y022862D01*
X015867Y022886D01*
D02*
G37*
G36*
X015925Y022513D02*
X01587D01*
X015869D01*
X015868D01*
X015867D01*
X015865D01*
X015862Y022512D01*
X01586D01*
X015853Y022512D01*
X015847Y022511D01*
X015885Y022418D01*
X015925Y022513D01*
D02*
G37*
G36*
X015822Y022505D02*
X015822Y022505D01*
X015819Y022503D01*
X015816Y022501D01*
X015812Y022497D01*
X015808Y022494D01*
X015805Y022489D01*
X015805Y022488D01*
X015804Y022487D01*
X015803Y022484D01*
X015802Y02248D01*
X0158Y022475D01*
X015799Y02247D01*
X015798Y022463D01*
X015798Y022457D01*
Y022453D01*
X015798Y022452D01*
Y022449D01*
X015799Y022446D01*
X0158Y022439D01*
X015802Y022431D01*
X015804Y022423D01*
X015808Y022416D01*
X01581Y022413D01*
X015813Y02241D01*
X015813Y02241D01*
X015813Y022409D01*
X015814Y022409D01*
X015816Y022408D01*
X015817Y022407D01*
X015819Y022405D01*
X015822Y022404D01*
X015825Y022403D01*
X015829Y022402D01*
X015833Y022401D01*
X015838Y022399D01*
X015843Y022398D01*
X015849Y022397D01*
X015855Y022397D01*
X015862Y022396D01*
X015869D01*
X015822Y022505D01*
D02*
G37*
G36*
X015878Y022287D02*
X015861D01*
X015836Y022278D01*
X015836D01*
X015835Y022277D01*
X015834Y022277D01*
X015833Y022276D01*
X015831Y022276D01*
X015829Y022275D01*
X015824Y022274D01*
X015819Y022272D01*
X015813Y02227D01*
X015802Y022267D01*
Y022265D01*
X015803Y022265D01*
X015806Y022264D01*
X015811Y022263D01*
X015817Y022261D01*
X015823Y022259D01*
X015829Y022257D01*
X015836Y022254D01*
X015878Y022239D01*
Y022287D01*
D02*
G37*
G36*
X015973D02*
X015904D01*
Y022229D01*
X015973Y022203D01*
Y022287D01*
D02*
G37*
G36*
X015867Y022096D02*
Y02202D01*
X015929Y022044D01*
X015929D01*
X01593Y022044D01*
X015932Y022045D01*
X015934Y022045D01*
X015936Y022046D01*
X015939Y022047D01*
X015942Y022048D01*
X015945Y02205D01*
X015953Y022052D01*
X015961Y022055D01*
X015968Y022057D01*
X015976Y02206D01*
X015976D01*
X015975Y02206D01*
X015974D01*
X015972Y022061D01*
X01597Y022061D01*
X015968Y022062D01*
X015962Y022063D01*
X015956Y022065D01*
X015949Y022067D01*
X015941Y022069D01*
X015933Y022072D01*
X015867Y022096D01*
D02*
G37*
G36*
X015925Y021723D02*
X01587D01*
X015869D01*
X015868D01*
X015867D01*
X015865D01*
X015862Y021722D01*
X01586D01*
X015853Y021722D01*
X015847Y021721D01*
X015885Y021628D01*
X015925Y021723D01*
D02*
G37*
G36*
X015822Y021715D02*
X015822Y021715D01*
X015819Y021713D01*
X015816Y021711D01*
X015812Y021707D01*
X015808Y021704D01*
X015805Y021699D01*
X015805Y021698D01*
X015804Y021697D01*
X015803Y021694D01*
X015802Y02169D01*
X0158Y021685D01*
X015799Y02168D01*
X015798Y021673D01*
X015798Y021667D01*
Y021663D01*
X015798Y021662D01*
Y021659D01*
X015799Y021656D01*
X0158Y021649D01*
X015802Y021641D01*
X015804Y021633D01*
X015808Y021626D01*
X01581Y021623D01*
X015813Y02162D01*
X015813Y02162D01*
X015813Y021619D01*
X015814Y021619D01*
X015816Y021618D01*
X015817Y021617D01*
X015819Y021615D01*
X015822Y021614D01*
X015825Y021613D01*
X015829Y021612D01*
X015833Y021611D01*
X015838Y021609D01*
X015843Y021608D01*
X015849Y021607D01*
X015855Y021607D01*
X015862Y021606D01*
X015869D01*
X015822Y021715D01*
D02*
G37*
G36*
X015878Y021497D02*
X015861D01*
X015836Y021488D01*
X015836D01*
X015835Y021487D01*
X015834Y021487D01*
X015833Y021486D01*
X015831Y021486D01*
X015829Y021485D01*
X015824Y021484D01*
X015819Y021482D01*
X015813Y02148D01*
X015802Y021477D01*
Y021475D01*
X015803Y021475D01*
X015806Y021474D01*
X015811Y021473D01*
X015817Y021471D01*
X015823Y021469D01*
X015829Y021467D01*
X015836Y021464D01*
X015878Y021449D01*
Y021497D01*
D02*
G37*
G36*
X015973D02*
X015904D01*
Y021439D01*
X015973Y021413D01*
Y021497D01*
D02*
G37*
G36*
X015867Y021306D02*
Y02123D01*
X015929Y021254D01*
X015929D01*
X01593Y021254D01*
X015932Y021255D01*
X015934Y021255D01*
X015936Y021256D01*
X015939Y021257D01*
X015942Y021258D01*
X015945Y02126D01*
X015953Y021262D01*
X015961Y021265D01*
X015968Y021267D01*
X015976Y02127D01*
X015976D01*
X015975Y02127D01*
X015974D01*
X015972Y021271D01*
X01597Y021271D01*
X015968Y021272D01*
X015962Y021273D01*
X015956Y021275D01*
X015949Y021277D01*
X015941Y021279D01*
X015933Y021282D01*
X015867Y021306D01*
D02*
G37*
G36*
X015925Y020933D02*
X01587D01*
X015869D01*
X015868D01*
X015867D01*
X015865D01*
X015862Y020932D01*
X01586D01*
X015853Y020932D01*
X015847Y020931D01*
X015885Y020838D01*
X015925Y020933D01*
D02*
G37*
G36*
X015822Y020925D02*
X015822Y020925D01*
X015819Y020923D01*
X015816Y020921D01*
X015812Y020917D01*
X015808Y020914D01*
X015805Y020909D01*
X015805Y020908D01*
X015804Y020907D01*
X015803Y020904D01*
X015802Y0209D01*
X0158Y020895D01*
X015799Y02089D01*
X015798Y020883D01*
X015798Y020877D01*
Y020873D01*
X015798Y020872D01*
Y020869D01*
X015799Y020866D01*
X0158Y020859D01*
X015802Y020851D01*
X015804Y020843D01*
X015808Y020836D01*
X01581Y020833D01*
X015813Y02083D01*
X015813Y02083D01*
X015813Y020829D01*
X015814Y020829D01*
X015816Y020828D01*
X015817Y020827D01*
X015819Y020825D01*
X015822Y020824D01*
X015825Y020823D01*
X015829Y020822D01*
X015833Y020821D01*
X015838Y020819D01*
X015843Y020818D01*
X015849Y020817D01*
X015855Y020817D01*
X015862Y020816D01*
X015869D01*
X015822Y020925D01*
D02*
G37*
G36*
X015878Y020707D02*
X015861D01*
X015836Y020698D01*
X015836D01*
X015835Y020697D01*
X015834Y020697D01*
X015833Y020696D01*
X015831Y020696D01*
X015829Y020695D01*
X015824Y020694D01*
X015819Y020692D01*
X015813Y02069D01*
X015802Y020687D01*
Y020685D01*
X015803Y020685D01*
X015806Y020684D01*
X015811Y020683D01*
X015817Y020681D01*
X015823Y020679D01*
X015829Y020677D01*
X015836Y020674D01*
X015878Y020659D01*
Y020707D01*
D02*
G37*
G36*
X015973D02*
X015904D01*
Y020649D01*
X015973Y020623D01*
Y020707D01*
D02*
G37*
G36*
X015867Y020516D02*
Y02044D01*
X015929Y020464D01*
X015929D01*
X01593Y020464D01*
X015932Y020465D01*
X015934Y020465D01*
X015936Y020466D01*
X015939Y020467D01*
X015942Y020468D01*
X015945Y02047D01*
X015953Y020472D01*
X015961Y020475D01*
X015968Y020477D01*
X015976Y02048D01*
X015976D01*
X015975Y02048D01*
X015974D01*
X015972Y020481D01*
X01597Y020481D01*
X015968Y020482D01*
X015962Y020483D01*
X015956Y020485D01*
X015949Y020487D01*
X015941Y020489D01*
X015933Y020492D01*
X015867Y020516D01*
D02*
G37*
G36*
X01592Y020143D02*
X01587D01*
X015869D01*
X015868D01*
X015867D01*
X015865D01*
X015862Y020142D01*
X01586D01*
X015853Y020142D01*
X015851Y020142D01*
X015885Y020058D01*
X01592Y020143D01*
D02*
G37*
G36*
X015878Y019917D02*
X015833D01*
X015833Y019916D01*
X015831Y019916D01*
X015829Y019915D01*
X015824Y019914D01*
X015819Y019912D01*
X015813Y01991D01*
X015802Y019907D01*
Y019905D01*
X015803Y019905D01*
X015806Y019904D01*
X015811Y019903D01*
X015817Y019901D01*
X015823Y019899D01*
X015829Y019897D01*
X015836Y019894D01*
X015878Y019879D01*
Y019917D01*
D02*
G37*
G36*
X015973D02*
X015904D01*
Y019869D01*
X015973Y019843D01*
Y019917D01*
D02*
G37*
G36*
X015867Y019736D02*
Y01966D01*
X015929Y019684D01*
X015929D01*
X01593Y019684D01*
X015932Y019685D01*
X015934Y019685D01*
X015936Y019686D01*
X015939Y019687D01*
X015942Y019688D01*
X015945Y01969D01*
X015953Y019692D01*
X015961Y019695D01*
X015968Y019697D01*
X015976Y0197D01*
X015976D01*
X015975Y0197D01*
X015974D01*
X015972Y019701D01*
X01597Y019701D01*
X015968Y019702D01*
X015962Y019703D01*
X015956Y019705D01*
X015949Y019707D01*
X015941Y019709D01*
X015933Y019712D01*
X015867Y019736D01*
D02*
G37*
G36*
X015925Y019363D02*
X01587D01*
X015869D01*
X015868D01*
X015867D01*
X015865D01*
X015862Y019362D01*
X01586D01*
X015853Y019362D01*
X015847Y019361D01*
X015885Y019268D01*
X015925Y019363D01*
D02*
G37*
G36*
X015822Y019355D02*
X015822Y019355D01*
X015819Y019353D01*
X015816Y019351D01*
X015812Y019347D01*
X015808Y019344D01*
X015805Y019339D01*
X015805Y019338D01*
X015804Y019337D01*
X015803Y019334D01*
X015802Y01933D01*
X0158Y019325D01*
X015799Y01932D01*
X015798Y019313D01*
X015798Y019307D01*
Y019303D01*
X015798Y019302D01*
Y019299D01*
X015799Y019296D01*
X0158Y019289D01*
X015802Y019281D01*
X015804Y019273D01*
X015808Y019266D01*
X01581Y019263D01*
X015813Y01926D01*
X015813Y01926D01*
X015813Y019259D01*
X015814Y019259D01*
X015816Y019258D01*
X015817Y019257D01*
X015819Y019255D01*
X015822Y019254D01*
X015825Y019253D01*
X015829Y019252D01*
X015833Y019251D01*
X015838Y019249D01*
X015843Y019248D01*
X015849Y019247D01*
X015855Y019247D01*
X015862Y019246D01*
X015869D01*
X015822Y019355D01*
D02*
G37*
G36*
X015878Y019137D02*
X015861D01*
X015836Y019128D01*
X015836D01*
X015835Y019127D01*
X015834Y019127D01*
X015833Y019126D01*
X015831Y019126D01*
X015829Y019125D01*
X015824Y019124D01*
X015819Y019122D01*
X015813Y01912D01*
X015802Y019117D01*
Y019115D01*
X015803Y019115D01*
X015806Y019114D01*
X015811Y019113D01*
X015817Y019111D01*
X015823Y019109D01*
X015829Y019107D01*
X015836Y019104D01*
X015878Y019089D01*
Y019137D01*
D02*
G37*
G36*
X015973D02*
X015904D01*
Y019079D01*
X015973Y019053D01*
Y019137D01*
D02*
G37*
G36*
X015867Y018946D02*
Y01887D01*
X015929Y018894D01*
X015929D01*
X01593Y018894D01*
X015932Y018895D01*
X015934Y018895D01*
X015936Y018896D01*
X015939Y018897D01*
X015942Y018898D01*
X015945Y0189D01*
X015953Y018902D01*
X015961Y018905D01*
X015968Y018907D01*
X015976Y01891D01*
X015976D01*
X015975Y01891D01*
X015974D01*
X015972Y018911D01*
X01597Y018911D01*
X015968Y018912D01*
X015962Y018913D01*
X015956Y018915D01*
X015949Y018917D01*
X015941Y018919D01*
X015933Y018922D01*
X015867Y018946D01*
D02*
G37*
G36*
X022557Y023663D02*
Y023594D01*
X022609Y023614D01*
X022609D01*
X02261Y023614D01*
X022612Y023615D01*
X022614Y023615D01*
X022616Y023616D01*
X022619Y023617D01*
X022622Y023618D01*
X022625Y02362D01*
X022633Y023622D01*
X022641Y023625D01*
X022648Y023627D01*
X022656Y02363D01*
X022656D01*
X022655Y02363D01*
X022654D01*
X022652Y023631D01*
X02265Y023631D01*
X022648Y023632D01*
X022642Y023633D01*
X022636Y023635D01*
X022629Y023637D01*
X022621Y023639D01*
X022613Y023642D01*
X022557Y023663D01*
D02*
G37*
G36*
X02261Y023293D02*
X02256D01*
X022559D01*
X022558D01*
X022557D01*
X022555D01*
X022552Y023292D01*
X02255D01*
X022543Y023292D01*
X022541Y023292D01*
X022575Y023208D01*
X02261Y023293D01*
D02*
G37*
G36*
X022558Y023067D02*
X022523D01*
X022523Y023066D01*
X022521Y023066D01*
X022519Y023065D01*
X022514Y023064D01*
X022509Y023062D01*
X022503Y02306D01*
X022492Y023057D01*
Y023055D01*
X022493Y023055D01*
X022496Y023054D01*
X022501Y023053D01*
X022507Y023051D01*
X022513Y023049D01*
X022519Y023047D01*
X022526Y023044D01*
X022558Y023032D01*
Y023067D01*
D02*
G37*
G36*
X022653D02*
X022594D01*
Y023019D01*
X022653Y022997D01*
Y023067D01*
D02*
G37*
G36*
X022557Y022886D02*
Y02281D01*
X022619Y022834D01*
X022619D01*
X02262Y022834D01*
X022622Y022835D01*
X022624Y022835D01*
X022626Y022836D01*
X022629Y022837D01*
X022632Y022838D01*
X022635Y02284D01*
X022643Y022842D01*
X022651Y022845D01*
X022658Y022847D01*
X022666Y02285D01*
X022666D01*
X022665Y02285D01*
X022664D01*
X022662Y022851D01*
X02266Y022851D01*
X022658Y022852D01*
X022652Y022853D01*
X022646Y022855D01*
X022639Y022857D01*
X022631Y022859D01*
X022623Y022862D01*
X022557Y022886D01*
D02*
G37*
G36*
X022615Y022513D02*
X02256D01*
X022559D01*
X022558D01*
X022557D01*
X022555D01*
X022552Y022512D01*
X02255D01*
X022543Y022512D01*
X022537Y022511D01*
X022575Y022418D01*
X022615Y022513D01*
D02*
G37*
G36*
X022512Y022505D02*
X022512Y022505D01*
X022509Y022503D01*
X022506Y022501D01*
X022502Y022497D01*
X022498Y022494D01*
X022495Y022489D01*
X022495Y022488D01*
X022494Y022487D01*
X022493Y022484D01*
X022492Y02248D01*
X02249Y022475D01*
X022489Y02247D01*
X022488Y022463D01*
X022488Y022457D01*
Y022453D01*
X022488Y022452D01*
Y022449D01*
X022489Y022446D01*
X02249Y022439D01*
X022492Y022431D01*
X022494Y022423D01*
X022498Y022416D01*
X0225Y022413D01*
X022503Y02241D01*
X022503Y02241D01*
X022503Y022409D01*
X022504Y022409D01*
X022506Y022408D01*
X022507Y022407D01*
X022509Y022405D01*
X022512Y022404D01*
X022515Y022403D01*
X022519Y022402D01*
X022523Y022401D01*
X022528Y022399D01*
X022533Y022398D01*
X022539Y022397D01*
X022545Y022397D01*
X022552Y022396D01*
X022559D01*
X022512Y022505D01*
D02*
G37*
G36*
X022568Y022287D02*
X022551D01*
X022526Y022278D01*
X022526D01*
X022525Y022277D01*
X022524Y022277D01*
X022523Y022276D01*
X022521Y022276D01*
X022519Y022275D01*
X022514Y022274D01*
X022509Y022272D01*
X022503Y02227D01*
X022492Y022267D01*
Y022265D01*
X022493Y022265D01*
X022496Y022264D01*
X022501Y022263D01*
X022507Y022261D01*
X022513Y022259D01*
X022519Y022257D01*
X022526Y022254D01*
X022568Y022239D01*
Y022287D01*
D02*
G37*
G36*
X022663D02*
X022594D01*
Y022229D01*
X022663Y022203D01*
Y022287D01*
D02*
G37*
G36*
X022557Y022096D02*
Y02202D01*
X022619Y022044D01*
X022619D01*
X02262Y022044D01*
X022622Y022045D01*
X022624Y022045D01*
X022626Y022046D01*
X022629Y022047D01*
X022632Y022048D01*
X022635Y02205D01*
X022643Y022052D01*
X022651Y022055D01*
X022658Y022057D01*
X022666Y02206D01*
X022666D01*
X022665Y02206D01*
X022664D01*
X022662Y022061D01*
X02266Y022061D01*
X022658Y022062D01*
X022652Y022063D01*
X022646Y022065D01*
X022639Y022067D01*
X022631Y022069D01*
X022623Y022072D01*
X022557Y022096D01*
D02*
G37*
G36*
X022615Y021723D02*
X02256D01*
X022559D01*
X022558D01*
X022557D01*
X022555D01*
X022552Y021722D01*
X02255D01*
X022543Y021722D01*
X022537Y021721D01*
X022575Y021628D01*
X022615Y021723D01*
D02*
G37*
G36*
X022512Y021715D02*
X022512Y021715D01*
X022509Y021713D01*
X022506Y021711D01*
X022502Y021707D01*
X022498Y021704D01*
X022495Y021699D01*
X022495Y021698D01*
X022494Y021697D01*
X022493Y021694D01*
X022492Y02169D01*
X02249Y021685D01*
X022489Y02168D01*
X022488Y021673D01*
X022488Y021667D01*
Y021663D01*
X022488Y021662D01*
Y021659D01*
X022489Y021656D01*
X02249Y021649D01*
X022492Y021641D01*
X022494Y021633D01*
X022498Y021626D01*
X0225Y021623D01*
X022503Y02162D01*
X022503Y02162D01*
X022503Y021619D01*
X022504Y021619D01*
X022506Y021618D01*
X022507Y021617D01*
X022509Y021615D01*
X022512Y021614D01*
X022515Y021613D01*
X022519Y021612D01*
X022523Y021611D01*
X022528Y021609D01*
X022533Y021608D01*
X022539Y021607D01*
X022545Y021607D01*
X022552Y021606D01*
X022559D01*
X022512Y021715D01*
D02*
G37*
G36*
X022568Y021497D02*
X022551D01*
X022526Y021488D01*
X022526D01*
X022525Y021487D01*
X022524Y021487D01*
X022523Y021486D01*
X022521Y021486D01*
X022519Y021485D01*
X022514Y021484D01*
X022509Y021482D01*
X022503Y02148D01*
X022492Y021477D01*
Y021475D01*
X022493Y021475D01*
X022496Y021474D01*
X022501Y021473D01*
X022507Y021471D01*
X022513Y021469D01*
X022519Y021467D01*
X022526Y021464D01*
X022568Y021449D01*
Y021497D01*
D02*
G37*
G36*
X022663D02*
X022594D01*
Y021439D01*
X022663Y021413D01*
Y021497D01*
D02*
G37*
G36*
X022557Y021306D02*
Y02123D01*
X022619Y021254D01*
X022619D01*
X02262Y021254D01*
X022622Y021255D01*
X022624Y021255D01*
X022626Y021256D01*
X022629Y021257D01*
X022632Y021258D01*
X022635Y02126D01*
X022643Y021262D01*
X022651Y021265D01*
X022658Y021267D01*
X022666Y02127D01*
X022666D01*
X022665Y02127D01*
X022664D01*
X022662Y021271D01*
X02266Y021271D01*
X022658Y021272D01*
X022652Y021273D01*
X022646Y021275D01*
X022639Y021277D01*
X022631Y021279D01*
X022623Y021282D01*
X022557Y021306D01*
D02*
G37*
G36*
X022615Y020933D02*
X02256D01*
X022559D01*
X022558D01*
X022557D01*
X022555D01*
X022552Y020932D01*
X02255D01*
X022543Y020932D01*
X022537Y020931D01*
X022575Y020838D01*
X022615Y020933D01*
D02*
G37*
G36*
X022512Y020925D02*
X022512Y020925D01*
X022509Y020923D01*
X022506Y020921D01*
X022502Y020917D01*
X022498Y020914D01*
X022495Y020909D01*
X022495Y020908D01*
X022494Y020907D01*
X022493Y020904D01*
X022492Y0209D01*
X02249Y020895D01*
X022489Y02089D01*
X022488Y020883D01*
X022488Y020877D01*
Y020873D01*
X022488Y020872D01*
Y020869D01*
X022489Y020866D01*
X02249Y020859D01*
X022492Y020851D01*
X022494Y020843D01*
X022498Y020836D01*
X0225Y020833D01*
X022503Y02083D01*
X022503Y02083D01*
X022503Y020829D01*
X022504Y020829D01*
X022506Y020828D01*
X022507Y020827D01*
X022509Y020825D01*
X022512Y020824D01*
X022515Y020823D01*
X022519Y020822D01*
X022523Y020821D01*
X022528Y020819D01*
X022533Y020818D01*
X022539Y020817D01*
X022545Y020817D01*
X022552Y020816D01*
X022559D01*
X022512Y020925D01*
D02*
G37*
G36*
X022568Y020707D02*
X022551D01*
X022526Y020698D01*
X022526D01*
X022525Y020697D01*
X022524Y020697D01*
X022523Y020696D01*
X022521Y020696D01*
X022519Y020695D01*
X022514Y020694D01*
X022509Y020692D01*
X022503Y02069D01*
X022492Y020687D01*
Y020685D01*
X022493Y020685D01*
X022496Y020684D01*
X022501Y020683D01*
X022507Y020681D01*
X022513Y020679D01*
X022519Y020677D01*
X022526Y020674D01*
X022568Y020659D01*
Y020707D01*
D02*
G37*
G36*
X022663D02*
X022594D01*
Y020649D01*
X022663Y020623D01*
Y020707D01*
D02*
G37*
G36*
X022557Y020516D02*
Y02044D01*
X022619Y020464D01*
X022619D01*
X02262Y020464D01*
X022622Y020465D01*
X022624Y020465D01*
X022626Y020466D01*
X022629Y020467D01*
X022632Y020468D01*
X022635Y02047D01*
X022643Y020472D01*
X022651Y020475D01*
X022658Y020477D01*
X022666Y02048D01*
X022666D01*
X022665Y02048D01*
X022664D01*
X022662Y020481D01*
X02266Y020481D01*
X022658Y020482D01*
X022652Y020483D01*
X022646Y020485D01*
X022639Y020487D01*
X022631Y020489D01*
X022623Y020492D01*
X022557Y020516D01*
D02*
G37*
G36*
X022582Y020143D02*
X02256D01*
X022559D01*
X022558D01*
X022557D01*
X022555D01*
X022552Y020142D01*
X02255D01*
X022543Y020142D01*
X022541Y020142D01*
X022561Y020092D01*
X022582Y020143D01*
D02*
G37*
G36*
X02261D02*
X022609D01*
X022574Y02006D01*
X022575Y020058D01*
X02261Y020143D01*
D02*
G37*
G36*
X022568Y019917D02*
X022523D01*
X022523Y019916D01*
X022521Y019916D01*
X022519Y019915D01*
X022514Y019914D01*
X02251Y019913D01*
X022568Y019891D01*
Y019917D01*
D02*
G37*
G36*
X022663D02*
X022594D01*
Y019881D01*
X022663Y019856D01*
Y019917D01*
D02*
G37*
G36*
X022663Y0197D02*
X022645Y019693D01*
X022651Y019695D01*
X022658Y019697D01*
X022666Y0197D01*
X022666D01*
X022665Y0197D01*
X022664D01*
X022663Y0197D01*
D02*
G37*
G36*
X022557Y019736D02*
Y019688D01*
X022599Y019704D01*
X022599D01*
X0226Y019704D01*
X022602Y019705D01*
X022604Y019705D01*
X022606Y019706D01*
X022609Y019707D01*
X022612Y019708D01*
X022615Y01971D01*
X022622Y019712D01*
X022557Y019736D01*
D02*
G37*
G36*
X02259Y019363D02*
X02256D01*
X022559D01*
X022558D01*
X022557D01*
X022555D01*
X022552Y019362D01*
X02255D01*
X022543Y019362D01*
X022537Y019361D01*
X022563Y019297D01*
X02259Y019363D01*
D02*
G37*
G36*
X0225Y019346D02*
X022498Y019344D01*
X022495Y019339D01*
X022495Y019338D01*
X022494Y019337D01*
X022493Y019334D01*
X022492Y01933D01*
X02249Y019325D01*
X022489Y01932D01*
X022488Y019313D01*
X022488Y019307D01*
Y019303D01*
X022488Y019302D01*
Y019299D01*
X022489Y019296D01*
X02249Y019289D01*
X022492Y019281D01*
X022494Y019273D01*
X022495Y019273D01*
X022499Y019272D01*
X022503Y019271D01*
X022508Y019269D01*
X022513Y019268D01*
X022519Y019267D01*
X022525Y019267D01*
X022532Y019266D01*
X022535D01*
X0225Y019346D01*
D02*
G37*
G36*
X022684Y019216D02*
X022669D01*
Y019211D01*
X022684Y019216D01*
D02*
G37*
G36*
X022548Y019135D02*
X022526Y019128D01*
X022526D01*
X022525Y019127D01*
X022524Y019127D01*
X022523Y019126D01*
X022521Y019126D01*
X022519Y019125D01*
X022514Y019124D01*
X022509Y019122D01*
X022503Y01912D01*
X022496Y019118D01*
X022499Y019117D01*
X022506Y019114D01*
X022548Y019099D01*
Y019135D01*
D02*
G37*
G36*
X022643Y019137D02*
X022594D01*
Y019081D01*
X022643Y019063D01*
Y019137D01*
D02*
G37*
G36*
X022465Y019019D02*
X02245D01*
X022465Y019013D01*
Y019019D01*
D02*
G37*
G36*
X022557Y018946D02*
Y018888D01*
X022599Y018904D01*
X022599D01*
X0226Y018904D01*
X022602Y018905D01*
X022604Y018905D01*
X022606Y018906D01*
X022609Y018907D01*
X022612Y018908D01*
X022615Y01891D01*
X022623Y018912D01*
X022631Y018915D01*
X022638Y018917D01*
X022631Y018919D01*
X022623Y018922D01*
X022557Y018946D01*
D02*
G37*
%LPD*%
M02*
