G04*
G04 #@! TF.GenerationSoftware,Altium Limited,Altium Designer,19.0.15 (446)*
G04*
G04 Layer_Color=255*
%FSTAX24Y24*%
%MOIN*%
G70*
G01*
G75*
G04:AMPARAMS|DCode=19|XSize=98.4mil|YSize=169.3mil|CornerRadius=24.6mil|HoleSize=0mil|Usage=FLASHONLY|Rotation=180.000|XOffset=0mil|YOffset=0mil|HoleType=Round|Shape=RoundedRectangle|*
%AMROUNDEDRECTD19*
21,1,0.0984,0.1201,0,0,180.0*
21,1,0.0492,0.1693,0,0,180.0*
1,1,0.0492,-0.0246,0.0600*
1,1,0.0492,0.0246,0.0600*
1,1,0.0492,0.0246,-0.0600*
1,1,0.0492,-0.0246,-0.0600*
%
%ADD19ROUNDEDRECTD19*%
G04:AMPARAMS|DCode=20|XSize=36.6mil|YSize=51.6mil|CornerRadius=2.7mil|HoleSize=0mil|Usage=FLASHONLY|Rotation=0.000|XOffset=0mil|YOffset=0mil|HoleType=Round|Shape=RoundedRectangle|*
%AMROUNDEDRECTD20*
21,1,0.0366,0.0461,0,0,0.0*
21,1,0.0311,0.0516,0,0,0.0*
1,1,0.0055,0.0156,-0.0230*
1,1,0.0055,-0.0156,-0.0230*
1,1,0.0055,-0.0156,0.0230*
1,1,0.0055,0.0156,0.0230*
%
%ADD20ROUNDEDRECTD20*%
G04:AMPARAMS|DCode=21|XSize=127.6mil|YSize=51.6mil|CornerRadius=3.9mil|HoleSize=0mil|Usage=FLASHONLY|Rotation=0.000|XOffset=0mil|YOffset=0mil|HoleType=Round|Shape=RoundedRectangle|*
%AMROUNDEDRECTD21*
21,1,0.1276,0.0438,0,0,0.0*
21,1,0.1198,0.0516,0,0,0.0*
1,1,0.0077,0.0599,-0.0219*
1,1,0.0077,-0.0599,-0.0219*
1,1,0.0077,-0.0599,0.0219*
1,1,0.0077,0.0599,0.0219*
%
%ADD21ROUNDEDRECTD21*%
%ADD22R,0.0550X0.0394*%
G04:AMPARAMS|DCode=23|XSize=50mil|YSize=50mil|CornerRadius=12.5mil|HoleSize=0mil|Usage=FLASHONLY|Rotation=270.000|XOffset=0mil|YOffset=0mil|HoleType=Round|Shape=RoundedRectangle|*
%AMROUNDEDRECTD23*
21,1,0.0500,0.0250,0,0,270.0*
21,1,0.0250,0.0500,0,0,270.0*
1,1,0.0250,-0.0125,-0.0125*
1,1,0.0250,-0.0125,0.0125*
1,1,0.0250,0.0125,0.0125*
1,1,0.0250,0.0125,-0.0125*
%
%ADD23ROUNDEDRECTD23*%
%ADD24R,0.0394X0.0550*%
G04:AMPARAMS|DCode=25|XSize=19.3mil|YSize=17.7mil|CornerRadius=2.2mil|HoleSize=0mil|Usage=FLASHONLY|Rotation=270.000|XOffset=0mil|YOffset=0mil|HoleType=Round|Shape=RoundedRectangle|*
%AMROUNDEDRECTD25*
21,1,0.0193,0.0133,0,0,270.0*
21,1,0.0149,0.0177,0,0,270.0*
1,1,0.0044,-0.0066,-0.0074*
1,1,0.0044,-0.0066,0.0074*
1,1,0.0044,0.0066,0.0074*
1,1,0.0044,0.0066,-0.0074*
%
%ADD25ROUNDEDRECTD25*%
%ADD45O,0.0650X0.0900*%
%ADD46R,0.0650X0.0900*%
%ADD47C,0.1100*%
%ADD48R,0.0650X0.1000*%
%ADD49O,0.0650X0.1000*%
%ADD50C,0.0750*%
%ADD51R,0.0500X0.0500*%
%ADD52R,0.0630X0.0630*%
%ADD53C,0.0630*%
%ADD54R,0.0630X0.0630*%
D19*
X02805Y0337D02*
D03*
X0308Y0337D02*
D03*
X0279Y0263D02*
D03*
X03065Y0263D02*
D03*
D20*
X028398Y028783D02*
D03*
X0293D02*
D03*
X030202D02*
D03*
D21*
X0293Y031417D02*
D03*
D22*
X0209Y02095D02*
D03*
Y02185D02*
D03*
X0241Y02735D02*
D03*
Y02825D02*
D03*
X02235Y02735D02*
D03*
Y02825D02*
D03*
X0172Y02735D02*
D03*
Y02825D02*
D03*
X0206Y02735D02*
D03*
Y02825D02*
D03*
X01365Y02825D02*
D03*
Y02735D02*
D03*
X01545Y02825D02*
D03*
Y02735D02*
D03*
X0189Y02735D02*
D03*
Y02825D02*
D03*
D23*
X0259Y0283D02*
D03*
Y0273D02*
D03*
D24*
X0198Y0352D02*
D03*
X0207D02*
D03*
D25*
X013266Y031182D02*
D03*
X014034D02*
D03*
X013778D02*
D03*
X013522D02*
D03*
X013266Y030418D02*
D03*
X014034D02*
D03*
X013778D02*
D03*
X013522D02*
D03*
D45*
X029046Y021606D02*
D03*
X030046D02*
D03*
X031046D02*
D03*
X028046D02*
D03*
D46*
X032046D02*
D03*
D47*
X0332Y02885D02*
D03*
Y03085D02*
D03*
D48*
X0183Y03515D02*
D03*
D49*
X0173D02*
D03*
D50*
X02291Y03296D02*
D03*
X02037Y03108D02*
D03*
X0204Y033D02*
D03*
X02285Y03105D02*
D03*
X01866Y03296D02*
D03*
X01612Y03108D02*
D03*
X01615Y033D02*
D03*
X0186Y03105D02*
D03*
D51*
X021871Y020205D02*
D03*
Y020955D02*
D03*
Y021755D02*
D03*
Y022525D02*
D03*
Y023325D02*
D03*
Y024105D02*
D03*
Y024905D02*
D03*
Y019385D02*
D03*
X016409D02*
D03*
Y020175D02*
D03*
Y020955D02*
D03*
Y021745D02*
D03*
Y023325D02*
D03*
Y024105D02*
D03*
Y024895D02*
D03*
Y022535D02*
D03*
D52*
X013522Y02415D02*
D03*
D53*
Y02315D02*
D03*
Y02215D02*
D03*
Y02115D02*
D03*
X025Y0197D02*
D03*
D54*
X024D02*
D03*
M02*
